<svg id="Camada_1" data-name="Camada 1" xmlns="http://www.w3.org/2000/svg" viewBox="0 0 216.40727 82.26242"><title>Ativo 13</title><g id="Camada_2" data-name="Camada 2"><g id="fundo"><path d="M11.55616,0.15927L0.11593,7.15716l3.40923,5.57874L14.94364,5.74345ZM4.62895,11.84962L2.9488,11.37656,1.05116,8.26639,1.39371,6.55362l8.988-5.49174,1.68015,0.47305L13.95948,4.6451,13.55711,6.3905Z" transform="translate(0.09025 0.09073)" style="fill:#2e1f4f;stroke:#2e1f4f;stroke-miterlimit:10;stroke-width:0.30000001192092896px"/><polygon points="12.147 1.626 10.472 1.153 1.484 6.644 1.141 8.357 3.039 11.462 4.719 11.94 13.647 6.481 14.05 4.736 12.147 1.626" style="fill:#334082;stroke:#2e1f4f;stroke-miterlimit:10;stroke-width:0.30000001192092896px"/><path d="M6.64621,5.04746a1.63121,1.63121,0,1,1-.54374,2.2837A1.66927,1.66927,0,0,1,6.64621,5.04746Z" transform="translate(0.09025 0.09073)" style="fill:none;stroke:#2e1f4f;stroke-linecap:round;stroke-linejoin:round;stroke-width:0.30000001192092896px"/><line x1="5.27381" y1="7.96562" x2="3.31092" y2="9.16185" style="fill:none;stroke:#2e1f4f;stroke-linecap:round;stroke-linejoin:round;stroke-width:0.30000001192092896px"/><line x1="12.09771" y1="3.80604" x2="10.13482" y2="5.00769" style="fill:none;stroke:#2e1f4f;stroke-linecap:round;stroke-linejoin:round;stroke-width:0.30000001192092896px"/><path d="M33.94725,14.9761L22.6484,7.75528,19.125,13.26877,30.451,20.4896ZM20.4082,13.88863L20.12,12.15411l1.96289-3.06668L23.76849,8.647,32.626,14.31275,32.9359,16.031l-1.94114,3.06668L29.24936,19.5Z" transform="translate(0.09025 0.09073)" style="fill:#2e1f4f;stroke:#2e1f4f;stroke-miterlimit:10;stroke-width:0.30000001192092896px"/><polygon points="33.026 16.122 32.716 14.403 23.837 8.732 22.151 9.173 20.189 12.245 20.498 13.963 29.318 19.596 31.063 19.194 33.026 16.122" style="fill:#7a3444;stroke:#2e1f4f;stroke-miterlimit:10;stroke-width:0.30000001192092896px"/><path d="M27.4061,12.70872a1.63121,1.63121,0,1,1-2.30544.4948A1.66927,1.66927,0,0,1,27.4061,12.70872Z" transform="translate(0.09025 0.09073)" style="fill:none;stroke:#2e1f4f;stroke-linecap:round;stroke-linejoin:round;stroke-width:0.30000001192092896px"/><line x1="24.31548" y1="12.71789" x2="22.37978" y2="11.4836" style="fill:none;stroke:#2e1f4f;stroke-linecap:round;stroke-linejoin:round;stroke-width:0.30000001192092896px"/><line x1="31.04151" y1="17.02972" x2="29.1058" y2="15.79544" style="fill:none;stroke:#2e1f4f;stroke-linecap:round;stroke-linejoin:round;stroke-width:0.30000001192092896px"/><path d="M48.28016,0.15927L36.86168,7.15173l3.37661,5.58418L51.65677,5.74345Zm-6.9544,11.69035-1.63121-.47849L37.77516,8.26639l0.34255-1.71277,8.988-5.49174,1.68015,0.47305L50.68348,4.6451,50.28111,6.3905Z" transform="translate(0.09025 0.09073)" style="fill:#2e1f4f;stroke:#2e1f4f;stroke-miterlimit:10;stroke-width:0.30000001192092896px"/><polygon points="48.871 1.626 47.196 1.153 38.208 6.644 37.865 8.357 39.763 11.462 41.443 11.94 50.371 6.481 50.774 4.736 48.871 1.626" style="fill:#334082;stroke:#2e1f4f;stroke-miterlimit:10;stroke-width:0.30000001192092896px"/><path d="M43.37565,5.04746a1.63121,1.63121,0,1,1-.54374,2.2837A1.66927,1.66927,0,0,1,43.37565,5.04746Z" transform="translate(0.09025 0.09073)" style="fill:none;stroke:#2e1f4f;stroke-linecap:round;stroke-linejoin:round;stroke-width:0.30000001192092896px"/><line x1="41.99781" y1="7.96562" x2="40.03492" y2="9.16185" style="fill:none;stroke:#2e1f4f;stroke-linecap:round;stroke-linejoin:round;stroke-width:0.30000001192092896px"/><line x1="48.82171" y1="3.80604" x2="46.85882" y2="5.00769" style="fill:none;stroke:#2e1f4f;stroke-linecap:round;stroke-linejoin:round;stroke-width:0.30000001192092896px"/><path d="M70.68757,14.9761L59.3724,7.75528,55.849,13.26877l11.3043,7.22083ZM57.14851,13.88863l-0.30993-1.71821,1.96289-3.06668,1.68558-.44043,8.87923,5.67118,0.30993,1.71821-1.96289,3.06668-1.7454.40237Z" transform="translate(0.09025 0.09073)" style="fill:#2e1f4f;stroke:#2e1f4f;stroke-miterlimit:10;stroke-width:0.30000001192092896px"/><polygon points="69.75 16.122 69.44 14.403 60.561 8.732 58.875 9.173 56.913 12.245 57.222 13.963 66.042 19.596 67.787 19.194 69.75 16.122" style="fill:#7a3444;stroke:#2e1f4f;stroke-miterlimit:10;stroke-width:0.30000001192092896px"/><path d="M64.1301,12.70872a1.63121,1.63121,0,1,1-2.30544.4948A1.66927,1.66927,0,0,1,64.1301,12.70872Z" transform="translate(0.09025 0.09073)" style="fill:none;stroke:#2e1f4f;stroke-linecap:round;stroke-linejoin:round;stroke-width:0.30000001192092896px"/><line x1="61.03948" y1="12.71789" x2="59.10378" y2="11.4836" style="fill:none;stroke:#2e1f4f;stroke-linecap:round;stroke-linejoin:round;stroke-width:0.30000001192092896px"/><line x1="67.76551" y1="17.02972" x2="65.82981" y2="15.79544" style="fill:none;stroke:#2e1f4f;stroke-linecap:round;stroke-linejoin:round;stroke-width:0.30000001192092896px"/><path d="M83.85688,0.11577L72.4384,7.10823,75.84764,12.687,87.26612,5.69451ZM76.92967,11.80068l-1.68015-.47305L73.35188,8.21745l0.34256-1.71277,8.988-5.49175L84.36255,1.486,86.2602,4.59616l-0.40237,1.7454Z" transform="translate(0.09025 0.09073)" style="fill:#2e1f4f;stroke:#2e1f4f;stroke-miterlimit:10;stroke-width:0.30000001192092896px"/><polygon points="84.447 1.577 82.773 1.104 73.785 6.601 73.442 8.308 75.34 11.418 77.02 11.891 85.948 6.432 86.35 4.687 84.447 1.577" style="fill:#334082;stroke:#2e1f4f;stroke-miterlimit:10;stroke-width:0.30000001192092896px"/><path d="M78.94694,4.99853a1.63121,1.63121,0,1,1-.54374,2.2837A1.66927,1.66927,0,0,1,78.94694,4.99853Z" transform="translate(0.09025 0.09073)" style="fill:none;stroke:#2e1f4f;stroke-linecap:round;stroke-linejoin:round;stroke-width:0.30000001192092896px"/><line x1="77.57453" y1="7.91669" x2="75.61164" y2="9.11291" style="fill:none;stroke:#2e1f4f;stroke-linecap:round;stroke-linejoin:round;stroke-width:0.30000001192092896px"/><line x1="84.39843" y1="3.7571" x2="82.43554" y2="4.95876" style="fill:none;stroke:#2e1f4f;stroke-linecap:round;stroke-linejoin:round;stroke-width:0.30000001192092896px"/><path d="M106.25342,14.92717L94.94912,7.71178,91.4257,13.22527l11.29886,7.22083ZM92.71436,13.83969l-0.30993-1.71821,1.96289-3.06668,1.68559-.44043,8.8901,5.64943,0.30993,1.71821-1.97921,3.05037-1.7454.40237Z" transform="translate(0.09025 0.09073)" style="fill:#2e1f4f;stroke:#2e1f4f;stroke-miterlimit:10;stroke-width:0.30000001192092896px"/><polygon points="105.327 16.073 105.017 14.355 96.138 8.683 94.452 9.124 92.489 12.196 92.799 13.914 101.619 19.547 103.364 19.145 105.327 16.073" style="fill:#7a3444;stroke:#2e1f4f;stroke-miterlimit:10;stroke-width:0.30000001192092896px"/><path d="M99.70682,12.65978a1.63121,1.63121,0,1,1-2.30545.4948A1.66927,1.66927,0,0,1,99.70682,12.65978Z" transform="translate(0.09025 0.09073)" style="fill:none;stroke:#2e1f4f;stroke-linecap:round;stroke-linejoin:round;stroke-width:0.30000001192092896px"/><line x1="96.61621" y1="12.66895" x2="94.6805" y2="11.43467" style="fill:none;stroke:#2e1f4f;stroke-linecap:round;stroke-linejoin:round;stroke-width:0.30000001192092896px"/><line x1="103.34223" y1="16.98079" x2="101.40653" y2="15.7465" style="fill:none;stroke:#2e1f4f;stroke-linecap:round;stroke-linejoin:round;stroke-width:0.30000001192092896px"/><path d="M120.58088,0.11577L109.1624,7.10823l3.39292,5.57874,11.41848-6.99246ZM113.6428,11.80068l-1.68015-.47305L110.065,8.21745l0.34256-1.71277,8.99885-5.49175L121.08656,1.486l1.89765,3.11018-0.40237,1.7454Z" transform="translate(0.09025 0.09073)" style="fill:#2e1f4f;stroke:#2e1f4f;stroke-miterlimit:10;stroke-width:0.30000001192092896px"/><polygon points="121.177 1.577 119.497 1.104 110.509 6.601 110.166 8.308 112.064 11.418 113.744 11.891 122.672 6.432 123.074 4.687 121.177 1.577" style="fill:#334082;stroke:#2e1f4f;stroke-miterlimit:10;stroke-width:0.30000001192092896px"/><path d="M115.67638,4.99853a1.63121,1.63121,0,1,1-.54374,2.2837A1.66927,1.66927,0,0,1,115.67638,4.99853Z" transform="translate(0.09025 0.09073)" style="fill:none;stroke:#2e1f4f;stroke-linecap:round;stroke-linejoin:round;stroke-width:0.30000001192092896px"/><line x1="114.29853" y1="7.91669" x2="112.33564" y2="9.11291" style="fill:none;stroke:#2e1f4f;stroke-linecap:round;stroke-linejoin:round;stroke-width:0.30000001192092896px"/><line x1="121.12243" y1="3.7571" x2="119.16499" y2="4.95876" style="fill:none;stroke:#2e1f4f;stroke-linecap:round;stroke-linejoin:round;stroke-width:0.30000001192092896px"/><path d="M142.97742,14.92717l-11.3043-7.21539-3.52341,5.51349,11.29886,7.22083Zm-13.53905-1.08747-0.30993-1.71821,1.96289-3.06668,1.68559-.44043,8.87923,5.67118,0.30993,1.71821-1.96834,3.02862-1.7454.40237Z" transform="translate(0.09025 0.09073)" style="fill:#2e1f4f;stroke:#2e1f4f;stroke-miterlimit:10;stroke-width:0.30000001192092896px"/><polygon points="142.051 16.073 141.741 14.355 132.867 8.683 131.176 9.124 129.213 12.196 129.523 13.914 138.343 19.547 140.088 19.145 142.051 16.073" style="fill:#7a3444;stroke:#2e1f4f;stroke-miterlimit:10;stroke-width:0.30000001192092896px"/><path d="M136.43083,12.65978a1.63121,1.63121,0,1,1-2.30545.4948A1.66927,1.66927,0,0,1,136.43083,12.65978Z" transform="translate(0.09025 0.09073)" style="fill:none;stroke:#2e1f4f;stroke-linecap:round;stroke-linejoin:round;stroke-width:0.30000001192092896px"/><line x1="133.34021" y1="12.66895" x2="131.4045" y2="11.43467" style="fill:none;stroke:#2e1f4f;stroke-linecap:round;stroke-linejoin:round;stroke-width:0.30000001192092896px"/><line x1="140.06623" y1="16.98079" x2="138.13053" y2="15.7465" style="fill:none;stroke:#2e1f4f;stroke-linecap:round;stroke-linejoin:round;stroke-width:0.30000001192092896px"/><path d="M155.8368,0.5997L144.39657,7.6139l3.40923,5.57874,11.41848-6.99246Zm-6.92722,11.68491-1.68015-.47305L145.3318,8.70138l0.34256-1.71277,8.988-5.49175,1.68015,0.47305,1.88677,3.11018-0.40236,1.7454Z" transform="translate(0.09025 0.09073)" style="fill:#2e1f4f;stroke:#2e1f4f;stroke-miterlimit:10;stroke-width:0.30000001192092896px"/><polygon points="156.433 2.066 154.753 1.593 145.765 7.085 145.422 8.798 147.32 11.902 149 12.375 157.928 6.922 158.33 5.176 156.433 2.066" style="fill:#334082;stroke:#2e1f4f;stroke-miterlimit:10;stroke-width:0.30000001192092896px"/><path d="M150.93229,5.48789a1.63121,1.63121,0,1,1-.54374,2.2837A1.66927,1.66927,0,0,1,150.93229,5.48789Z" transform="translate(0.09025 0.09073)" style="fill:none;stroke:#2e1f4f;stroke-linecap:round;stroke-linejoin:round;stroke-width:0.30000001192092896px"/><line x1="149.55445" y1="8.40605" x2="147.597" y2="9.60227" style="fill:none;stroke:#2e1f4f;stroke-linecap:round;stroke-linejoin:round;stroke-width:0.30000001192092896px"/><line x1="156.37835" y1="4.24646" x2="154.42089" y2="5.44268" style="fill:none;stroke:#2e1f4f;stroke-linecap:round;stroke-linejoin:round;stroke-width:0.30000001192092896px"/><path d="M178.23334,15.41653L166.929,8.1957l-3.52342,5.51349L174.70447,20.93Zm-13.53905-1.08747-0.30993-1.71821,1.96288-3.06668,1.68559-.44043,8.87922,5.67118,0.30993,1.71821-1.96288,3.06668-1.74539.40237Z" transform="translate(0.09025 0.09073)" style="fill:#2e1f4f;stroke:#2e1f4f;stroke-miterlimit:10;stroke-width:0.30000001192092896px"/><polygon points="177.307 16.562 176.997 14.844 168.123 9.173 166.432 9.613 164.475 12.685 164.785 14.398 173.604 20.037 175.349 19.629 177.307 16.562" style="fill:#7a3444;stroke:#2e1f4f;stroke-miterlimit:10;stroke-width:0.30000001192092896px"/><path d="M171.69218,13.14371a1.63121,1.63121,0,1,1-2.30544.4948A1.66927,1.66927,0,0,1,171.69218,13.14371Z" transform="translate(0.09025 0.09073)" style="fill:none;stroke:#2e1f4f;stroke-linecap:round;stroke-linejoin:round;stroke-width:0.30000001192092896px"/><line x1="168.59612" y1="13.15831" x2="166.66042" y2="11.91859" style="fill:none;stroke:#2e1f4f;stroke-linecap:round;stroke-linejoin:round;stroke-width:0.30000001192092896px"/><line x1="175.32759" y1="17.47015" x2="173.39189" y2="16.23043" style="fill:none;stroke:#2e1f4f;stroke-linecap:round;stroke-linejoin:round;stroke-width:0.30000001192092896px"/><path d="M192.56624,0.5997L181.12058,7.6139l3.40923,5.57874,11.41848-6.99246Zm-6.93265,11.68491-1.68015-.47305-1.89764-3.11018,0.34256-1.71277,8.99884-5.48631,1.68015,0.47305L194.975,5.08553l-0.40236,1.7454Z" transform="translate(0.09025 0.09073)" style="fill:#2e1f4f;stroke:#2e1f4f;stroke-miterlimit:10;stroke-width:0.30000001192092896px"/><polygon points="193.157 2.066 191.477 1.593 182.489 7.085 182.146 8.798 184.044 11.902 185.724 12.375 194.652 6.922 195.054 5.176 193.157 2.066" style="fill:#334082;stroke:#2e1f4f;stroke-miterlimit:10;stroke-width:0.30000001192092896px"/><path d="M187.65629,5.48789a1.63121,1.63121,0,1,1-.54374,2.2837A1.66927,1.66927,0,0,1,187.65629,5.48789Z" transform="translate(0.09025 0.09073)" style="fill:none;stroke:#2e1f4f;stroke-linecap:round;stroke-linejoin:round;stroke-width:0.30000001192092896px"/><line x1="186.28389" y1="8.40605" x2="184.321" y2="9.60227" style="fill:none;stroke:#2e1f4f;stroke-linecap:round;stroke-linejoin:round;stroke-width:0.30000001192092896px"/><line x1="193.1078" y1="4.24646" x2="191.1449" y2="5.44268" style="fill:none;stroke:#2e1f4f;stroke-linecap:round;stroke-linejoin:round;stroke-width:0.30000001192092896px"/><path d="M214.95733,15.41653L203.65847,8.1957l-3.52342,5.51349L211.43391,20.93Zm-13.53905-1.08747-0.30993-1.71821,1.96288-3.06668,1.68559-.44043,8.87924,5.64943,0.30993,1.71821-1.96288,3.06668-1.74539.40237Z" transform="translate(0.09025 0.09073)" style="fill:#2e1f4f;stroke:#2e1f4f;stroke-miterlimit:10;stroke-width:0.30000001192092896px"/><polygon points="214.031 16.562 213.721 14.844 204.847 9.173 203.156 9.613 201.199 12.685 201.509 14.398 210.328 20.037 212.073 19.629 214.031 16.562" style="fill:#7a3444;stroke:#2e1f4f;stroke-miterlimit:10;stroke-width:0.30000001192092896px"/><path d="M208.41617,13.14371a1.63121,1.63121,0,1,1-2.30544.4948A1.66927,1.66927,0,0,1,208.41617,13.14371Z" transform="translate(0.09025 0.09073)" style="fill:none;stroke:#2e1f4f;stroke-linecap:round;stroke-linejoin:round;stroke-width:0.30000001192092896px"/><line x1="205.32557" y1="13.15831" x2="203.38443" y2="11.91859" style="fill:none;stroke:#2e1f4f;stroke-linecap:round;stroke-linejoin:round;stroke-width:0.30000001192092896px"/><line x1="212.0516" y1="17.47015" x2="210.11589" y2="16.23043" style="fill:none;stroke:#2e1f4f;stroke-linecap:round;stroke-linejoin:round;stroke-width:0.30000001192092896px"/><path d="M12.33914,20.78865L0.92066,27.78111l3.38748,5.57874,11.462-6.99246ZM5.41193,32.47357l-1.68015-.47305L1.83414,28.89034l0.34255-1.7019,8.988-5.49174,1.68015,0.47305,1.89764,3.11018-0.40237,1.7454Z" transform="translate(0.09025 0.09073)" style="fill:#2e1f4f;stroke:#2e1f4f;stroke-miterlimit:10;stroke-width:0.30000001192092896px"/><polygon points="12.93 22.255 11.255 21.777 2.267 27.274 1.924 28.981 3.822 32.091 5.502 32.564 14.43 27.105 14.833 25.36 12.93 22.255" style="fill:#334082;stroke:#2e1f4f;stroke-miterlimit:10;stroke-width:0.30000001192092896px"/><path d="M7.42919,25.67141a1.63121,1.63121,0,1,1-.54374,2.2837A1.66927,1.66927,0,0,1,7.42919,25.67141Z" transform="translate(0.09025 0.09073)" style="fill:none;stroke:#2e1f4f;stroke-linecap:round;stroke-linejoin:round;stroke-width:0.30000001192092896px"/><line x1="6.05679" y1="28.58957" x2="4.0939" y2="29.78579" style="fill:none;stroke:#2e1f4f;stroke-linecap:round;stroke-linejoin:round;stroke-width:0.30000001192092896px"/><line x1="12.88069" y1="24.42998" x2="10.9178" y2="25.63164" style="fill:none;stroke:#2e1f4f;stroke-linecap:round;stroke-linejoin:round;stroke-width:0.30000001192092896px"/><path d="M34.73567,35.60005l-11.3043-7.21539L19.908,33.89272l11.3043,7.22083ZM21.19662,34.51258l-0.30993-1.71821,1.952-3.083,1.68558-.44043L33.409,34.94213l0.30449,1.71277L31.756,39.727l-1.7454.40236Z" transform="translate(0.09025 0.09073)" style="fill:#2e1f4f;stroke:#2e1f4f;stroke-miterlimit:10;stroke-width:0.30000001192092896px"/><polygon points="33.809 36.746 33.499 35.027 24.62 29.362 22.934 29.802 20.971 32.869 21.281 34.587 30.101 40.22 31.846 39.818 33.809 36.746" style="fill:#7a3444;stroke:#2e1f4f;stroke-miterlimit:10;stroke-width:0.30000001192092896px"/><path d="M28.18908,33.33267a1.63121,1.63121,0,1,1-2.30545.4948A1.66927,1.66927,0,0,1,28.18908,33.33267Z" transform="translate(0.09025 0.09073)" style="fill:none;stroke:#2e1f4f;stroke-linecap:round;stroke-linejoin:round;stroke-width:0.30000001192092896px"/><line x1="25.09846" y1="33.34184" x2="23.16276" y2="32.10755" style="fill:none;stroke:#2e1f4f;stroke-linecap:round;stroke-linejoin:round;stroke-width:0.30000001192092896px"/><line x1="31.82449" y1="37.65911" x2="29.88879" y2="36.41939" style="fill:none;stroke:#2e1f4f;stroke-linecap:round;stroke-linejoin:round;stroke-width:0.30000001192092896px"/><path d="M49.06315,20.78865L37.64467,27.78111l3.40923,5.57874L52.47238,26.3674ZM42.13593,32.47357l-1.68015-.47305-1.89764-3.11018,0.34255-1.7019,8.988-5.49174,1.68015,0.47305,1.89764,3.11018-0.40236,1.7454Z" transform="translate(0.09025 0.09073)" style="fill:#2e1f4f;stroke:#2e1f4f;stroke-miterlimit:10;stroke-width:0.30000001192092896px"/><polygon points="49.659 22.255 47.979 21.777 38.991 27.274 38.648 28.981 40.546 32.091 42.226 32.564 51.154 27.105 51.557 25.36 49.659 22.255" style="fill:#334082;stroke:#2e1f4f;stroke-miterlimit:10;stroke-width:0.30000001192092896px"/><path d="M44.15863,25.67141a1.63121,1.63121,0,1,1-.54374,2.2837A1.66927,1.66927,0,0,1,44.15863,25.67141Z" transform="translate(0.09025 0.09073)" style="fill:none;stroke:#2e1f4f;stroke-linecap:round;stroke-linejoin:round;stroke-width:0.30000001192092896px"/><line x1="42.78079" y1="28.58957" x2="40.8179" y2="29.78579" style="fill:none;stroke:#2e1f4f;stroke-linecap:round;stroke-linejoin:round;stroke-width:0.30000001192092896px"/><line x1="49.60469" y1="24.42998" x2="47.6418" y2="25.63164" style="fill:none;stroke:#2e1f4f;stroke-linecap:round;stroke-linejoin:round;stroke-width:0.30000001192092896px"/><path d="M71.45967,35.60005l-11.3043-7.21539L56.632,33.89816,67.93082,41.119ZM57.92062,34.51258l-0.30993-1.71821,1.96289-3.06668,1.68558-.44043,8.88467,5.65487,0.30993,1.71821L68.49087,39.727l-1.7454.40236Z" transform="translate(0.09025 0.09073)" style="fill:#2e1f4f;stroke:#2e1f4f;stroke-miterlimit:10;stroke-width:0.30000001192092896px"/><polygon points="70.533 36.746 70.223 35.027 61.344 29.362 59.658 29.802 57.696 32.869 58.005 34.587 66.825 40.22 68.57 39.818 70.533 36.746" style="fill:#7a3444;stroke:#2e1f4f;stroke-miterlimit:10;stroke-width:0.30000001192092896px"/><path d="M64.91308,33.33267a1.63121,1.63121,0,1,1-2.30544.4948A1.66927,1.66927,0,0,1,64.91308,33.33267Z" transform="translate(0.09025 0.09073)" style="fill:none;stroke:#2e1f4f;stroke-linecap:round;stroke-linejoin:round;stroke-width:0.30000001192092896px"/><line x1="61.82247" y1="33.34184" x2="59.88676" y2="32.10755" style="fill:none;stroke:#2e1f4f;stroke-linecap:round;stroke-linejoin:round;stroke-width:0.30000001192092896px"/><line x1="68.5485" y1="37.65911" x2="66.61279" y2="36.41939" style="fill:none;stroke:#2e1f4f;stroke-linecap:round;stroke-linejoin:round;stroke-width:0.30000001192092896px"/><path d="M84.63987,20.73972L73.19963,27.73218l3.40923,5.57874,11.41848-6.99246ZM77.71265,32.42463l-1.68015-.47305-1.89765-3.13193,0.35887-1.68558,8.988-5.49174,1.68015,0.47305,1.89765,3.11018-0.40237,1.7454Z" transform="translate(0.09025 0.09073)" style="fill:#2e1f4f;stroke:#2e1f4f;stroke-miterlimit:10;stroke-width:0.30000001192092896px"/><polygon points="85.236 22.206 83.556 21.728 74.568 27.225 74.225 28.932 76.123 32.042 77.803 32.515 86.731 27.056 87.133 25.311 85.236 22.206" style="fill:#334082;stroke:#2e1f4f;stroke-miterlimit:10;stroke-width:0.30000001192092896px"/><path d="M79.73535,25.62248a1.63121,1.63121,0,1,1-.54374,2.2837A1.66927,1.66927,0,0,1,79.73535,25.62248Z" transform="translate(0.09025 0.09073)" style="fill:none;stroke:#2e1f4f;stroke-linecap:round;stroke-linejoin:round;stroke-width:0.30000001192092896px"/><line x1="78.35751" y1="28.54064" x2="76.39462" y2="29.74229" style="fill:none;stroke:#2e1f4f;stroke-linecap:round;stroke-linejoin:round;stroke-width:0.30000001192092896px"/><line x1="85.18142" y1="24.38648" x2="83.21852" y2="25.58271" style="fill:none;stroke:#2e1f4f;stroke-linecap:round;stroke-linejoin:round;stroke-width:0.30000001192092896px"/><path d="M107.0364,35.55655L95.7321,28.33573l-3.52341,5.51349L103.50754,41.07ZM93.49735,34.46908l-0.30993-1.71821,1.96833-3.08843,1.68559-.44043,8.87923,5.67118,0.30993,1.71821-1.97378,3.083-1.7454.40236Z" transform="translate(0.09025 0.09073)" style="fill:#2e1f4f;stroke:#2e1f4f;stroke-miterlimit:10;stroke-width:0.30000001192092896px"/><polygon points="106.11 36.697 105.8 34.984 96.921 29.313 95.235 29.753 93.272 32.82 93.582 34.538 102.402 40.171 104.147 39.769 106.11 36.697" style="fill:#7a3444;stroke:#2e1f4f;stroke-miterlimit:10;stroke-width:0.30000001192092896px"/><path d="M100.4898,33.28373a1.63121,1.63121,0,1,1-2.30545.4948A1.66927,1.66927,0,0,1,100.4898,33.28373Z" transform="translate(0.09025 0.09073)" style="fill:none;stroke:#2e1f4f;stroke-linecap:round;stroke-linejoin:round;stroke-width:0.30000001192092896px"/><line x1="97.39919" y1="33.29834" x2="95.46348" y2="32.05862" style="fill:none;stroke:#2e1f4f;stroke-linecap:round;stroke-linejoin:round;stroke-width:0.30000001192092896px"/><line x1="104.12521" y1="37.61017" x2="102.18951" y2="36.37045" style="fill:none;stroke:#2e1f4f;stroke-linecap:round;stroke-linejoin:round;stroke-width:0.30000001192092896px"/><path d="M121.36387,20.73972l-11.44023,6.99246,3.40923,5.57874,11.41848-6.99246Zm-6.92721,11.68491-1.68015-.47305-1.89765-3.13193,0.34256-1.71277,8.96622-5.47,1.68015,0.47305,1.89765,3.11018-0.40237,1.7454Z" transform="translate(0.09025 0.09073)" style="fill:#2e1f4f;stroke:#2e1f4f;stroke-miterlimit:10;stroke-width:0.30000001192092896px"/><polygon points="121.96 22.206 120.28 21.728 111.292 27.225 110.949 28.932 112.847 32.042 114.527 32.515 123.455 27.056 123.857 25.311 121.96 22.206" style="fill:#334082;stroke:#2e1f4f;stroke-miterlimit:10;stroke-width:0.30000001192092896px"/><path d="M116.45936,25.62248a1.63121,1.63121,0,1,1-.54374,2.2837A1.66927,1.66927,0,0,1,116.45936,25.62248Z" transform="translate(0.09025 0.09073)" style="fill:none;stroke:#2e1f4f;stroke-linecap:round;stroke-linejoin:round;stroke-width:0.30000001192092896px"/><line x1="115.08151" y1="28.54064" x2="113.12407" y2="29.74229" style="fill:none;stroke:#2e1f4f;stroke-linecap:round;stroke-linejoin:round;stroke-width:0.30000001192092896px"/><line x1="121.90542" y1="24.38648" x2="119.94796" y2="25.58271" style="fill:none;stroke:#2e1f4f;stroke-linecap:round;stroke-linejoin:round;stroke-width:0.30000001192092896px"/><path d="M143.76041,35.55655l-11.3043-7.22083-3.52341,5.51349L140.23156,41.07Zm-13.53905-1.08747-0.30993-1.71821,1.96289-3.06668,1.68559-.44043,8.901,5.64943,0.30993,1.71821-1.99008,3.083-1.7454.40236Z" transform="translate(0.09025 0.09073)" style="fill:#2e1f4f;stroke:#2e1f4f;stroke-miterlimit:10;stroke-width:0.30000001192092896px"/><polygon points="142.834 36.697 142.524 34.984 133.65 29.313 131.959 29.753 129.996 32.82 130.306 34.538 139.126 40.171 140.871 39.769 142.834 36.697" style="fill:#7a3444;stroke:#2e1f4f;stroke-miterlimit:10;stroke-width:0.30000001192092896px"/><path d="M137.21381,33.28373a1.63121,1.63121,0,1,1-2.30545.4948A1.66927,1.66927,0,0,1,137.21381,33.28373Z" transform="translate(0.09025 0.09073)" style="fill:none;stroke:#2e1f4f;stroke-linecap:round;stroke-linejoin:round;stroke-width:0.30000001192092896px"/><line x1="134.12319" y1="33.29834" x2="132.18749" y2="32.05862" style="fill:none;stroke:#2e1f4f;stroke-linecap:round;stroke-linejoin:round;stroke-width:0.30000001192092896px"/><line x1="140.84922" y1="37.61017" x2="138.91351" y2="36.37045" style="fill:none;stroke:#2e1f4f;stroke-linecap:round;stroke-linejoin:round;stroke-width:0.30000001192092896px"/><path d="M156.598,21.20733l-11.41848,7.01421,3.40923,5.57874,11.41848-6.99246ZM149.69257,32.914l-1.68015-.47305-1.89764-3.11018,0.34256-1.71277,8.988-5.49175,1.68015,0.47305,1.89764,3.11018-0.40236,1.7454Z" transform="translate(0.09025 0.09073)" style="fill:#2e1f4f;stroke:#2e1f4f;stroke-miterlimit:10;stroke-width:0.30000001192092896px"/><polygon points="157.216 22.69 155.536 22.217 146.548 27.709 146.205 29.421 148.103 32.532 149.783 33.005 158.716 27.546 159.113 25.8 157.216 22.69" style="fill:#334082;stroke:#2e1f4f;stroke-miterlimit:10;stroke-width:0.30000001192092896px"/><path d="M151.7044,26.101a1.63121,1.63121,0,1,1-.54374,2.2837A1.66927,1.66927,0,0,1,151.7044,26.101Z" transform="translate(0.09025 0.09073)" style="fill:none;stroke:#2e1f4f;stroke-linecap:round;stroke-linejoin:round;stroke-width:0.30000001192092896px"/><line x1="150.33743" y1="29.03" x2="148.37998" y2="30.22622" style="fill:none;stroke:#2e1f4f;stroke-linecap:round;stroke-linejoin:round;stroke-width:0.30000001192092896px"/><line x1="157.16133" y1="24.87041" x2="155.20387" y2="26.07207" style="fill:none;stroke:#2e1f4f;stroke-linecap:round;stroke-linejoin:round;stroke-width:0.30000001192092896px"/><path d="M179.01632,36.04048l-11.29886-7.22083-3.50711,5.51349L175.50921,41.554ZM165.47727,34.953l-0.30993-1.71821,1.96288-3.06668,1.68559-.44043,8.87922,5.67118,0.30993,1.71821-1.96288,3.06668-1.74539.40236Z" transform="translate(0.09025 0.09073)" style="fill:#2e1f4f;stroke:#2e1f4f;stroke-miterlimit:10;stroke-width:0.30000001192092896px"/><polygon points="178.09 37.186 177.785 35.468 168.906 29.797 167.22 30.237 165.258 33.309 165.568 35.027 174.387 40.661 176.132 40.253 178.09 37.186" style="fill:#7a3444;stroke:#2e1f4f;stroke-miterlimit:10;stroke-width:0.30000001192092896px"/><path d="M172.47516,33.7731a1.63121,1.63121,0,1,1-2.2837.48393A1.66927,1.66927,0,0,1,172.47516,33.7731Z" transform="translate(0.09025 0.09073)" style="fill:none;stroke:#2e1f4f;stroke-linecap:round;stroke-linejoin:round;stroke-width:0.30000001192092896px"/><line x1="169.3791" y1="33.78226" x2="167.4434" y2="32.54798" style="fill:none;stroke:#2e1f4f;stroke-linecap:round;stroke-linejoin:round;stroke-width:0.30000001192092896px"/><line x1="176.11057" y1="38.0941" x2="174.17487" y2="36.85982" style="fill:none;stroke:#2e1f4f;stroke-linecap:round;stroke-linejoin:round;stroke-width:0.30000001192092896px"/><path d="M193.34922,21.20733l-11.41848,6.99246L185.34,33.77854l11.41848-6.99246ZM186.41657,32.914l-1.68015-.47305-1.89764-3.11018,0.34256-1.71277,8.988-5.49175,1.68015,0.47305,1.89764,3.11018-0.40236,1.7454Z" transform="translate(0.09025 0.09073)" style="fill:#2e1f4f;stroke:#2e1f4f;stroke-miterlimit:10;stroke-width:0.30000001192092896px"/><polygon points="193.94 22.69 192.26 22.217 183.272 27.709 182.929 29.421 184.832 32.532 186.507 33.005 195.44 27.546 195.837 25.8 193.94 22.69" style="fill:#334082;stroke:#2e1f4f;stroke-miterlimit:10;stroke-width:0.30000001192092896px"/><path d="M188.43928,26.101a1.63121,1.63121,0,1,1-.54374,2.2837A1.66927,1.66927,0,0,1,188.43928,26.101Z" transform="translate(0.09025 0.09073)" style="fill:none;stroke:#2e1f4f;stroke-linecap:round;stroke-linejoin:round;stroke-width:0.30000001192092896px"/><line x1="187.06687" y1="29.03" x2="185.10399" y2="30.22622" style="fill:none;stroke:#2e1f4f;stroke-linecap:round;stroke-linejoin:round;stroke-width:0.30000001192092896px"/><line x1="193.89078" y1="24.87041" x2="191.92788" y2="26.07207" style="fill:none;stroke:#2e1f4f;stroke-linecap:round;stroke-linejoin:round;stroke-width:0.30000001192092896px"/><path d="M215.74031,36.04048L204.4469,28.81965l-3.52342,5.51349L212.22233,41.554ZM202.20126,34.953l-0.30993-1.71821,1.96288-3.06668,1.68559-.44043,8.87922,5.67118,0.30993,1.71821-1.96288,3.06668-1.74539.40236Z" transform="translate(0.09025 0.09073)" style="fill:#2e1f4f;stroke:#2e1f4f;stroke-miterlimit:10;stroke-width:0.30000001192092896px"/><polygon points="214.814 37.186 214.509 35.468 205.63 29.797 203.944 30.237 201.982 33.309 202.292 35.027 211.111 40.661 212.856 40.253 214.814 37.186" style="fill:#7a3444;stroke:#2e1f4f;stroke-miterlimit:10;stroke-width:0.30000001192092896px"/><path d="M209.19916,33.7731a1.63121,1.63121,0,1,1-2.30544.4948A1.66927,1.66927,0,0,1,209.19916,33.7731Z" transform="translate(0.09025 0.09073)" style="fill:none;stroke:#2e1f4f;stroke-linecap:round;stroke-linejoin:round;stroke-width:0.30000001192092896px"/><line x1="206.10855" y1="33.78226" x2="204.16741" y2="32.54798" style="fill:none;stroke:#2e1f4f;stroke-linecap:round;stroke-linejoin:round;stroke-width:0.30000001192092896px"/><line x1="212.83458" y1="38.0941" x2="210.89888" y2="36.85982" style="fill:none;stroke:#2e1f4f;stroke-linecap:round;stroke-linejoin:round;stroke-width:0.30000001192092896px"/><path d="M11.9259,40.56981L0.48567,47.56227,3.8949,53.14645,15.31338,46.154ZM4.99869,52.25472l-1.68015-.473L1.4209,48.67149l0.34255-1.71277,8.988-5.49174L12.43158,41.94l1.89764,3.11018-0.40237,1.7454Z" transform="translate(0.09025 0.09073)" style="fill:#2e1f4f;stroke:#2e1f4f;stroke-miterlimit:10;stroke-width:0.30000001192092896px"/><polygon points="12.522 42.036 10.842 41.558 1.854 47.055 1.511 48.762 3.409 51.872 5.089 52.345 14.017 46.886 14.419 45.141 12.522 42.036" style="fill:#334082;stroke:#2e1f4f;stroke-miterlimit:10;stroke-width:0.30000001192092896px"/><path d="M7.02139,45.45257a1.63121,1.63121,0,1,1-.54374,2.28369A1.66927,1.66927,0,0,1,7.02139,45.45257Z" transform="translate(0.09025 0.09073)" style="fill:none;stroke:#2e1f4f;stroke-linecap:round;stroke-linejoin:round;stroke-width:0.30000001192092896px"/><line x1="5.64355" y1="48.37073" x2="3.68609" y2="49.57239" style="fill:none;stroke:#2e1f4f;stroke-linecap:round;stroke-linejoin:round;stroke-width:0.30000001192092896px"/><line x1="12.46745" y1="44.21658" x2="10.50999" y2="45.4128" style="fill:none;stroke:#2e1f4f;stroke-linecap:round;stroke-linejoin:round;stroke-width:0.30000001192092896px"/><path d="M34.32243,55.38665L23.01814,48.16582l-3.518,5.50806L30.799,60.90014ZM20.78338,54.29917L20.47345,52.581l1.95745-3.0993,1.68558-.44043,8.87923,5.67118,0.30993,1.71821L31.34275,59.4973l-1.7454.40236Z" transform="translate(0.09025 0.09073)" style="fill:#2e1f4f;stroke:#2e1f4f;stroke-miterlimit:10;stroke-width:0.30000001192092896px"/><polygon points="33.396 56.527 33.086 54.814 24.207 49.137 22.521 49.583 20.564 52.65 20.868 54.368 29.693 60.001 31.433 59.599 33.396 56.527" style="fill:#7a3444;stroke:#2e1f4f;stroke-miterlimit:10;stroke-width:0.30000001192092896px"/><path d="M27.78127,53.11383a1.63121,1.63121,0,1,1-2.30545.4948A1.66927,1.66927,0,0,1,27.78127,53.11383Z" transform="translate(0.09025 0.09073)" style="fill:none;stroke:#2e1f4f;stroke-linecap:round;stroke-linejoin:round;stroke-width:0.30000001192092896px"/><line x1="24.68522" y1="53.12843" x2="22.74952" y2="51.88871" style="fill:none;stroke:#2e1f4f;stroke-linecap:round;stroke-linejoin:round;stroke-width:0.30000001192092896px"/><line x1="31.41125" y1="57.44026" x2="29.47555" y2="56.20054" style="fill:none;stroke:#2e1f4f;stroke-linecap:round;stroke-linejoin:round;stroke-width:0.30000001192092896px"/><path d="M48.6499,40.56981L37.23143,47.56227l3.38748,5.58418L52.03738,46.154ZM41.72269,52.25472l-1.68015-.47305-1.89764-3.11018,0.34255-1.71277,8.988-5.49174L49.15558,41.94l1.89764,3.11018-0.40236,1.7454Z" transform="translate(0.09025 0.09073)" style="fill:#2e1f4f;stroke:#2e1f4f;stroke-miterlimit:10;stroke-width:0.30000001192092896px"/><polygon points="49.246 42.036 47.566 41.558 38.578 47.055 38.235 48.762 40.133 51.872 41.813 52.345 50.741 46.886 51.143 45.141 49.246 42.036" style="fill:#334082;stroke:#2e1f4f;stroke-miterlimit:10;stroke-width:0.30000001192092896px"/><path d="M43.74539,45.45257a1.63121,1.63121,0,1,1-.54374,2.28369A1.66927,1.66927,0,0,1,43.74539,45.45257Z" transform="translate(0.09025 0.09073)" style="fill:none;stroke:#2e1f4f;stroke-linecap:round;stroke-linejoin:round;stroke-width:0.30000001192092896px"/><line x1="42.36755" y1="48.37073" x2="40.4101" y2="49.57239" style="fill:none;stroke:#2e1f4f;stroke-linecap:round;stroke-linejoin:round;stroke-width:0.30000001192092896px"/><line x1="49.19145" y1="44.21658" x2="47.234" y2="45.4128" style="fill:none;stroke:#2e1f4f;stroke-linecap:round;stroke-linejoin:round;stroke-width:0.30000001192092896px"/><path d="M71.04644,55.38665l-11.3043-7.22083-3.518,5.50806L67.523,60.90014ZM57.50738,54.29917L57.19745,52.581l1.95745-3.0993,1.68558-.44043,8.87923,5.67118,0.30993,1.71821L68.06676,59.4973l-1.7454.40236Z" transform="translate(0.09025 0.09073)" style="fill:#2e1f4f;stroke:#2e1f4f;stroke-miterlimit:10;stroke-width:0.30000001192092896px"/><polygon points="70.12 56.527 69.81 54.814 60.936 49.137 59.245 49.583 57.288 52.65 57.592 54.368 66.412 60.001 68.162 59.599 70.12 56.527" style="fill:#7a3444;stroke:#2e1f4f;stroke-miterlimit:10;stroke-width:0.30000001192092896px"/><path d="M64.50528,53.11383a1.63121,1.63121,0,1,1-2.30544.4948A1.66927,1.66927,0,0,1,64.50528,53.11383Z" transform="translate(0.09025 0.09073)" style="fill:none;stroke:#2e1f4f;stroke-linecap:round;stroke-linejoin:round;stroke-width:0.30000001192092896px"/><line x1="61.40922" y1="53.12843" x2="59.47352" y2="51.88871" style="fill:none;stroke:#2e1f4f;stroke-linecap:round;stroke-linejoin:round;stroke-width:0.30000001192092896px"/><line x1="68.14069" y1="57.44026" x2="66.19955" y2="56.20054" style="fill:none;stroke:#2e1f4f;stroke-linecap:round;stroke-linejoin:round;stroke-width:0.30000001192092896px"/><path d="M84.22662,40.52087L72.80814,47.51333l3.40923,5.57874,11.41848-6.99246ZM77.29941,52.20035l-1.68015-.47305-1.89765-3.11018,0.34256-1.71277,8.988-5.49174,1.68015,0.47305,1.89765,3.11018L86.22758,46.763Z" transform="translate(0.09025 0.09073)" style="fill:#2e1f4f;stroke:#2e1f4f;stroke-miterlimit:10;stroke-width:0.30000001192092896px"/><polygon points="84.823 41.987 83.142 41.509 74.154 47.006 73.812 48.713 75.71 51.823 77.39 52.297 86.318 46.837 86.72 45.092 84.823 41.987" style="fill:#334082;stroke:#2e1f4f;stroke-miterlimit:10;stroke-width:0.30000001192092896px"/><path d="M79.32212,45.40363a1.63121,1.63121,0,1,1-.54374,2.28369A1.66927,1.66927,0,0,1,79.32212,45.40363Z" transform="translate(0.09025 0.09073)" style="fill:none;stroke:#2e1f4f;stroke-linecap:round;stroke-linejoin:round;stroke-width:0.30000001192092896px"/><line x1="77.94427" y1="48.32179" x2="75.98682" y2="49.52345" style="fill:none;stroke:#2e1f4f;stroke-linecap:round;stroke-linejoin:round;stroke-width:0.30000001192092896px"/><line x1="84.76817" y1="44.16764" x2="82.81072" y2="45.36386" style="fill:none;stroke:#2e1f4f;stroke-linecap:round;stroke-linejoin:round;stroke-width:0.30000001192092896px"/><path d="M106.62315,55.33771L95.31886,48.11688l-3.52341,5.51349L103.0943,60.8512ZM93.0841,54.25023L92.77417,52.532l1.96289-3.06668,1.68559-.44043,8.87923,5.67118,0.30993,1.71821L103.64892,59.481l-1.7454.40236Z" transform="translate(0.09025 0.09073)" style="fill:#2e1f4f;stroke:#2e1f4f;stroke-miterlimit:10;stroke-width:0.30000001192092896px"/><polygon points="105.697 56.478 105.387 54.765 96.513 49.094 94.822 49.534 92.864 52.601 93.174 54.319 101.994 59.952 103.739 59.55 105.697 56.478" style="fill:#7a3444;stroke:#2e1f4f;stroke-miterlimit:10;stroke-width:0.30000001192092896px"/><path d="M100.082,53.06489a1.63121,1.63121,0,1,1-2.30545.4948A1.66927,1.66927,0,0,1,100.082,53.06489Z" transform="translate(0.09025 0.09073)" style="fill:none;stroke:#2e1f4f;stroke-linecap:round;stroke-linejoin:round;stroke-width:0.30000001192092896px"/><line x1="96.98594" y1="53.07949" x2="95.05024" y2="51.83977" style="fill:none;stroke:#2e1f4f;stroke-linecap:round;stroke-linejoin:round;stroke-width:0.30000001192092896px"/><line x1="103.71741" y1="57.39133" x2="101.77627" y2="56.15161" style="fill:none;stroke:#2e1f4f;stroke-linecap:round;stroke-linejoin:round;stroke-width:0.30000001192092896px"/><path d="M120.95063,40.52087l-11.41848,6.99246,3.40923,5.57874,11.41848-6.99246Zm-6.92721,11.67948-1.68015-.47305-1.89765-3.11018,0.34256-1.71277,8.988-5.49174,1.68015,0.47305,1.89765,3.11018L122.95158,46.763Z" transform="translate(0.09025 0.09073)" style="fill:#2e1f4f;stroke:#2e1f4f;stroke-miterlimit:10;stroke-width:0.30000001192092896px"/><polygon points="121.547 41.987 119.866 41.509 110.878 47.006 110.536 48.713 112.434 51.823 114.114 52.297 123.042 46.837 123.444 45.092 121.547 41.987" style="fill:#334082;stroke:#2e1f4f;stroke-miterlimit:10;stroke-width:0.30000001192092896px"/><path d="M116.04612,45.40363a1.63121,1.63121,0,1,1-.54374,2.28369A1.66927,1.66927,0,0,1,116.04612,45.40363Z" transform="translate(0.09025 0.09073)" style="fill:none;stroke:#2e1f4f;stroke-linecap:round;stroke-linejoin:round;stroke-width:0.30000001192092896px"/><line x1="114.66828" y1="48.32179" x2="112.71082" y2="49.52345" style="fill:none;stroke:#2e1f4f;stroke-linecap:round;stroke-linejoin:round;stroke-width:0.30000001192092896px"/><line x1="121.49218" y1="44.16764" x2="119.53472" y2="45.36386" style="fill:none;stroke:#2e1f4f;stroke-linecap:round;stroke-linejoin:round;stroke-width:0.30000001192092896px"/><path d="M143.34716,55.33771l-11.3043-7.22083-3.52341,5.51349,11.29886,7.22083Zm-13.53905-1.08747L129.49818,52.532l1.96289-3.06668,1.68559-.44043,8.87923,5.67118,0.30993,1.71821L140.37294,59.481l-1.7454.40236Z" transform="translate(0.09025 0.09073)" style="fill:#2e1f4f;stroke:#2e1f4f;stroke-miterlimit:10;stroke-width:0.30000001192092896px"/><polygon points="142.421 56.478 142.111 54.765 133.237 49.094 131.546 49.534 129.588 52.601 129.898 54.319 138.718 59.952 140.458 59.55 142.421 56.478" style="fill:#7a3444;stroke:#2e1f4f;stroke-miterlimit:10;stroke-width:0.30000001192092896px"/><path d="M136.806,53.06489a1.63121,1.63121,0,1,1-2.30545.4948A1.66927,1.66927,0,0,1,136.806,53.06489Z" transform="translate(0.09025 0.09073)" style="fill:none;stroke:#2e1f4f;stroke-linecap:round;stroke-linejoin:round;stroke-width:0.30000001192092896px"/><line x1="133.70995" y1="53.07949" x2="131.77424" y2="51.83977" style="fill:none;stroke:#2e1f4f;stroke-linecap:round;stroke-linejoin:round;stroke-width:0.30000001192092896px"/><line x1="140.44141" y1="57.39133" x2="138.50028" y2="56.15161" style="fill:none;stroke:#2e1f4f;stroke-linecap:round;stroke-linejoin:round;stroke-width:0.30000001192092896px"/><path d="M156.212,41.01024L144.7935,48.0027l3.40923,5.57874L159.62121,46.589Zm-6.93265,11.68491-1.67472-.4948-1.88133-3.08843,0.34256-1.71277,8.988-5.49174,1.68015,0.47305,1.89764,3.11018-0.40236,1.7454Z" transform="translate(0.09025 0.09073)" style="fill:#2e1f4f;stroke:#2e1f4f;stroke-miterlimit:10;stroke-width:0.30000001192092896px"/><polygon points="156.802 42.471 155.122 41.998 146.134 47.49 145.792 49.203 147.695 52.307 149.37 52.786 158.303 47.327 158.7 45.581 156.802 42.471" style="fill:#334082;stroke:#2e1f4f;stroke-miterlimit:10;stroke-width:0.30000001192092896px"/><path d="M151.302,45.893a1.63121,1.63121,0,1,1-.54374,2.28369A1.66929,1.66929,0,0,1,151.302,45.893Z" transform="translate(0.09025 0.09073)" style="fill:none;stroke:#2e1f4f;stroke-linecap:round;stroke-linejoin:round;stroke-width:0.30000001192092896px"/><line x1="149.92963" y1="48.81116" x2="147.96673" y2="50.00738" style="fill:none;stroke:#2e1f4f;stroke-linecap:round;stroke-linejoin:round;stroke-width:0.30000001192092896px"/><line x1="156.75353" y1="44.65157" x2="154.79064" y2="45.85323" style="fill:none;stroke:#2e1f4f;stroke-linecap:round;stroke-linejoin:round;stroke-width:0.30000001192092896px"/><path d="M178.60307,55.82164l-11.29886-7.22083L163.7808,54.1143l11.3043,7.22083ZM165.064,54.73416l-0.30993-1.73452L166.717,49.933l1.68559-.44043L177.26,55.15828,177.57,56.87649l-1.94115,3.07211-1.74539.40236Z" transform="translate(0.09025 0.09073)" style="fill:#2e1f4f;stroke:#2e1f4f;stroke-miterlimit:10;stroke-width:0.30000001192092896px"/><polygon points="177.682 56.967 177.372 55.249 168.493 49.578 166.807 50.018 164.844 53.09 165.154 54.809 173.974 60.442 175.719 60.039 177.682 56.967" style="fill:#7a3444;stroke:#2e1f4f;stroke-miterlimit:10;stroke-width:0.30000001192092896px"/><path d="M172.06192,53.55425a1.63121,1.63121,0,1,1-2.30544.4948A1.66928,1.66928,0,0,1,172.06192,53.55425Z" transform="translate(0.09025 0.09073)" style="fill:none;stroke:#2e1f4f;stroke-linecap:round;stroke-linejoin:round;stroke-width:0.30000001192092896px"/><line x1="168.9713" y1="53.56342" x2="167.0356" y2="52.32913" style="fill:none;stroke:#2e1f4f;stroke-linecap:round;stroke-linejoin:round;stroke-width:0.30000001192092896px"/><line x1="175.69733" y1="57.87525" x2="173.76162" y2="56.64097" style="fill:none;stroke:#2e1f4f;stroke-linecap:round;stroke-linejoin:round;stroke-width:0.30000001192092896px"/><path d="M192.936,41.01024L181.5175,48.0027l3.40923,5.57874L196.3452,46.589Zm-6.93265,11.68491-1.6747-.4948L182.431,49.09017l0.34256-1.71277,8.988-5.49174,1.68015,0.47305,1.89764,3.11018-0.40236,1.7454Z" transform="translate(0.09025 0.09073)" style="fill:#2e1f4f;stroke:#2e1f4f;stroke-miterlimit:10;stroke-width:0.30000001192092896px"/><polygon points="193.526 42.471 191.852 41.998 182.858 47.49 182.516 49.203 184.419 52.307 186.094 52.786 195.027 47.327 195.43 45.581 193.526 42.471" style="fill:#334082;stroke:#2e1f4f;stroke-miterlimit:10;stroke-width:0.30000001192092896px"/><path d="M188.026,45.893a1.63121,1.63121,0,1,1-.54374,2.28369A1.66929,1.66929,0,0,1,188.026,45.893Z" transform="translate(0.09025 0.09073)" style="fill:none;stroke:#2e1f4f;stroke-linecap:round;stroke-linejoin:round;stroke-width:0.30000001192092896px"/><line x1="186.65362" y1="48.81116" x2="184.69074" y2="50.00738" style="fill:none;stroke:#2e1f4f;stroke-linecap:round;stroke-linejoin:round;stroke-width:0.30000001192092896px"/><line x1="193.47754" y1="44.65157" x2="191.51464" y2="45.85323" style="fill:none;stroke:#2e1f4f;stroke-linecap:round;stroke-linejoin:round;stroke-width:0.30000001192092896px"/><path d="M215.32164,55.82164l-11.29341-7.22083L200.5048,54.1143l11.29886,7.22083Zm-13.53905-1.08747L201.47266,53.016l1.96288-3.06668,1.68559-.44043L214.00035,55.18l0.30993,1.71821-1.96288,3.06668-1.74539.40236Z" transform="translate(0.09025 0.09073)" style="fill:#2e1f4f;stroke:#2e1f4f;stroke-miterlimit:10;stroke-width:0.30000001192092896px"/><polygon points="214.406 56.967 214.096 55.249 205.217 49.578 203.531 50.018 201.568 53.09 201.878 54.809 210.698 60.442 212.443 60.039 214.406 56.967" style="fill:#7a3444;stroke:#2e1f4f;stroke-miterlimit:10;stroke-width:0.30000001192092896px"/><path d="M208.7968,53.55425a1.63121,1.63121,0,1,1-2.30544.4948A1.66928,1.66928,0,0,1,208.7968,53.55425Z" transform="translate(0.09025 0.09073)" style="fill:none;stroke:#2e1f4f;stroke-linecap:round;stroke-linejoin:round;stroke-width:0.30000001192092896px"/><line x1="205.69531" y1="53.56342" x2="203.75961" y2="52.32913" style="fill:none;stroke:#2e1f4f;stroke-linecap:round;stroke-linejoin:round;stroke-width:0.30000001192092896px"/><line x1="212.42133" y1="57.87525" x2="210.48563" y2="56.64097" style="fill:none;stroke:#2e1f4f;stroke-linecap:round;stroke-linejoin:round;stroke-width:0.30000001192092896px"/><path d="M12.70888,61.19376L1.2904,68.18622,4.67788,73.7704l11.41848-6.99246ZM5.78167,72.86236l-1.68015-.473L2.17669,69.29544l0.34255-1.71277,8.988-5.49174L13.18737,62.564,15.085,65.67416,14.70983,67.425Z" transform="translate(0.09025 0.09073)" style="fill:#2e1f4f;stroke:#2e1f4f;stroke-miterlimit:10;stroke-width:0.30000001192092896px"/><polygon points="13.305 62.66 11.625 62.182 2.637 67.679 2.294 69.386 4.192 72.496 5.872 72.969 14.8 67.51 15.202 65.765 13.305 62.66" style="fill:#334082;stroke:#2e1f4f;stroke-miterlimit:10;stroke-width:0.30000001192092896px"/><path d="M7.80437,66.082a1.63121,1.63121,0,1,1-.54374,2.28369A1.66927,1.66927,0,0,1,7.80437,66.082Z" transform="translate(0.09025 0.09073)" style="fill:none;stroke:#2e1f4f;stroke-linecap:round;stroke-linejoin:round;stroke-width:0.30000001192092896px"/><line x1="6.42653" y1="68.99468" x2="4.46908" y2="70.19633" style="fill:none;stroke:#2e1f4f;stroke-linecap:round;stroke-linejoin:round;stroke-width:0.30000001192092896px"/><line x1="13.25043" y1="64.84053" x2="11.29298" y2="66.03675" style="fill:none;stroke:#2e1f4f;stroke-linecap:round;stroke-linejoin:round;stroke-width:0.30000001192092896px"/><path d="M35.10541,76.01059L23.80112,68.78977l-3.518,5.51349L31.582,81.52409ZM21.56636,74.92312l-0.30993-1.71821,1.96289-3.06668,1.68558-.44043L33.78413,75.369l0.30993,1.71821-1.96289,3.06668-1.7454.40237Z" transform="translate(0.09025 0.09073)" style="fill:#2e1f4f;stroke:#2e1f4f;stroke-miterlimit:10;stroke-width:0.30000001192092896px"/><polygon points="34.179 77.151 33.869 75.438 24.995 69.767 23.304 70.207 21.347 73.274 21.651 74.992 30.476 80.625 32.216 80.223 34.179 77.151" style="fill:#7a3444;stroke:#2e1f4f;stroke-miterlimit:10;stroke-width:0.30000001192092896px"/><path d="M28.56425,73.73777a1.63121,1.63121,0,1,1-2.30544.4948A1.66927,1.66927,0,0,1,28.56425,73.73777Z" transform="translate(0.09025 0.09073)" style="fill:none;stroke:#2e1f4f;stroke-linecap:round;stroke-linejoin:round;stroke-width:0.30000001192092896px"/><line x1="25.4682" y1="73.75238" x2="23.5325" y2="72.51266" style="fill:none;stroke:#2e1f4f;stroke-linecap:round;stroke-linejoin:round;stroke-width:0.30000001192092896px"/><line x1="32.19967" y1="78.06421" x2="30.25853" y2="76.82449" style="fill:none;stroke:#2e1f4f;stroke-linecap:round;stroke-linejoin:round;stroke-width:0.30000001192092896px"/><path d="M49.43289,61.19376L38.01441,68.18622,41.42364,73.765,52.84212,66.7725Zm-6.92721,11.6686-1.68015-.473-1.89764-3.11018,0.34255-1.71277,8.988-5.49174,1.68015,0.47305,1.89764,3.11018L51.43384,67.425Z" transform="translate(0.09025 0.09073)" style="fill:#2e1f4f;stroke:#2e1f4f;stroke-miterlimit:10;stroke-width:0.30000001192092896px"/><polygon points="50.029 62.66 48.349 62.182 39.361 67.679 39.018 69.386 40.916 72.496 42.596 72.969 51.524 67.51 51.926 65.765 50.029 62.66" style="fill:#334082;stroke:#2e1f4f;stroke-miterlimit:10;stroke-width:0.30000001192092896px"/><path d="M44.52838,66.082a1.63121,1.63121,0,1,1-.54374,2.28369A1.66927,1.66927,0,0,1,44.52838,66.082Z" transform="translate(0.09025 0.09073)" style="fill:none;stroke:#2e1f4f;stroke-linecap:round;stroke-linejoin:round;stroke-width:0.30000001192092896px"/><line x1="43.15054" y1="68.99468" x2="41.19308" y2="70.19633" style="fill:none;stroke:#2e1f4f;stroke-linecap:round;stroke-linejoin:round;stroke-width:0.30000001192092896px"/><line x1="49.97443" y1="64.84053" x2="48.01698" y2="66.03675" style="fill:none;stroke:#2e1f4f;stroke-linecap:round;stroke-linejoin:round;stroke-width:0.30000001192092896px"/><path d="M71.82942,76.01059L60.53056,68.78976l-3.52342,5.51349L68.306,81.52409ZM58.29037,74.92312l-0.30993-1.71821,1.96289-3.06668,1.68558-.44043L70.50813,75.369l0.30993,1.71821-1.96289,3.06668-1.7454.40237Z" transform="translate(0.09025 0.09073)" style="fill:#2e1f4f;stroke:#2e1f4f;stroke-miterlimit:10;stroke-width:0.30000001192092896px"/><polygon points="70.903 77.151 70.593 75.438 61.719 69.767 60.028 70.207 58.071 73.274 58.375 74.992 67.2 80.625 68.945 80.223 70.903 77.151" style="fill:#7a3444;stroke:#2e1f4f;stroke-miterlimit:10;stroke-width:0.30000001192092896px"/><path d="M65.28826,73.73777a1.63121,1.63121,0,1,1-2.30544.4948A1.66927,1.66927,0,0,1,65.28826,73.73777Z" transform="translate(0.09025 0.09073)" style="fill:none;stroke:#2e1f4f;stroke-linecap:round;stroke-linejoin:round;stroke-width:0.30000001192092896px"/><line x1="62.19221" y1="73.75238" x2="60.2565" y2="72.51266" style="fill:none;stroke:#2e1f4f;stroke-linecap:round;stroke-linejoin:round;stroke-width:0.30000001192092896px"/><line x1="68.92367" y1="78.06421" x2="66.98253" y2="76.82449" style="fill:none;stroke:#2e1f4f;stroke-linecap:round;stroke-linejoin:round;stroke-width:0.30000001192092896px"/><path d="M85.0096,61.14482L73.59112,68.13728,77.00036,73.716l11.41848-6.99246ZM78.0824,72.82973l-1.68015-.473-1.90852-3.10474,0.34256-1.71277,8.988-5.49174,1.68015,0.47305,1.89765,3.11018-0.40237,1.7454Z" transform="translate(0.09025 0.09073)" style="fill:#2e1f4f;stroke:#2e1f4f;stroke-miterlimit:10;stroke-width:0.30000001192092896px"/><polygon points="85.606 62.611 83.925 62.138 74.937 67.63 74.595 69.343 76.492 72.447 78.173 72.92 87.101 67.467 87.503 65.716 85.606 62.611" style="fill:#334082;stroke:#2e1f4f;stroke-miterlimit:10;stroke-width:0.30000001192092896px"/><path d="M80.1051,66.033a1.63121,1.63121,0,1,1-.54374,2.28369A1.66927,1.66927,0,0,1,80.1051,66.033Z" transform="translate(0.09025 0.09073)" style="fill:none;stroke:#2e1f4f;stroke-linecap:round;stroke-linejoin:round;stroke-width:0.30000001192092896px"/><line x1="78.72725" y1="68.95118" x2="76.7698" y2="70.1474" style="fill:none;stroke:#2e1f4f;stroke-linecap:round;stroke-linejoin:round;stroke-width:0.30000001192092896px"/><line x1="85.55115" y1="64.79159" x2="83.5937" y2="65.98781" style="fill:none;stroke:#2e1f4f;stroke-linecap:round;stroke-linejoin:round;stroke-width:0.30000001192092896px"/><path d="M107.40614,75.96166L96.10728,68.74083l-3.52341,5.51349,11.29886,7.22083ZM93.86708,74.87418L93.55715,73.156,95.52,70.08929l1.68559-.44043L106.08486,75.32l0.30993,1.71821-1.96289,3.06668-1.7454.40237Z" transform="translate(0.09025 0.09073)" style="fill:#2e1f4f;stroke:#2e1f4f;stroke-miterlimit:10;stroke-width:0.30000001192092896px"/><polygon points="106.48 77.107 106.17 75.389 97.296 69.718 95.605 70.158 93.647 73.23 93.957 74.943 102.777 80.582 104.522 80.174 106.48 77.107" style="fill:#7a3444;stroke:#2e1f4f;stroke-miterlimit:10;stroke-width:0.30000001192092896px"/><path d="M100.865,73.68884a1.63121,1.63121,0,1,1-2.30545.4948A1.66927,1.66927,0,0,1,100.865,73.68884Z" transform="translate(0.09025 0.09073)" style="fill:none;stroke:#2e1f4f;stroke-linecap:round;stroke-linejoin:round;stroke-width:0.30000001192092896px"/><line x1="97.76893" y1="73.70344" x2="95.83322" y2="72.46372" style="fill:none;stroke:#2e1f4f;stroke-linecap:round;stroke-linejoin:round;stroke-width:0.30000001192092896px"/><line x1="104.50039" y1="78.01527" x2="102.55925" y2="76.77555" style="fill:none;stroke:#2e1f4f;stroke-linecap:round;stroke-linejoin:round;stroke-width:0.30000001192092896px"/><path d="M121.73361,61.14482l-11.41848,6.99246,3.40923,5.57874,11.41848-6.99246ZM114.8064,72.82973l-1.68015-.473-1.89765-3.11018,0.34256-1.71277,8.988-5.49174,1.68015,0.47305,1.89765,3.11018-0.40237,1.7454Z" transform="translate(0.09025 0.09073)" style="fill:#2e1f4f;stroke:#2e1f4f;stroke-miterlimit:10;stroke-width:0.30000001192092896px"/><polygon points="122.33 62.611 120.649 62.138 111.661 67.63 111.319 69.343 113.216 72.447 114.897 72.92 123.825 67.467 124.227 65.716 122.33 62.611" style="fill:#334082;stroke:#2e1f4f;stroke-miterlimit:10;stroke-width:0.30000001192092896px"/><path d="M116.8291,66.033a1.63121,1.63121,0,1,1-.54374,2.28369A1.66927,1.66927,0,0,1,116.8291,66.033Z" transform="translate(0.09025 0.09073)" style="fill:none;stroke:#2e1f4f;stroke-linecap:round;stroke-linejoin:round;stroke-width:0.30000001192092896px"/><line x1="115.45126" y1="68.95118" x2="113.4938" y2="70.1474" style="fill:none;stroke:#2e1f4f;stroke-linecap:round;stroke-linejoin:round;stroke-width:0.30000001192092896px"/><line x1="122.27516" y1="64.79159" x2="120.31771" y2="65.98781" style="fill:none;stroke:#2e1f4f;stroke-linecap:round;stroke-linejoin:round;stroke-width:0.30000001192092896px"/><path d="M144.13015,75.96166l-11.29886-7.22083-3.52341,5.51349,11.29886,7.22083Zm-13.53905-1.08747L130.28116,73.156l1.96289-3.06668,1.68559-.44043L142.80887,75.32l0.30993,1.71821-1.96288,3.06668-1.74539.40237Z" transform="translate(0.09025 0.09073)" style="fill:#2e1f4f;stroke:#2e1f4f;stroke-miterlimit:10;stroke-width:0.30000001192092896px"/><polygon points="143.204 77.107 142.894 75.389 134.02 69.718 132.329 70.158 130.371 73.23 130.681 74.943 139.501 80.582 141.246 80.174 143.204 77.107" style="fill:#7a3444;stroke:#2e1f4f;stroke-miterlimit:10;stroke-width:0.30000001192092896px"/><path d="M137.56723,73.68884a1.63121,1.63121,0,1,1-2.30545.4948A1.66927,1.66927,0,0,1,137.56723,73.68884Z" transform="translate(0.09025 0.09073)" style="fill:none;stroke:#2e1f4f;stroke-linecap:round;stroke-linejoin:round;stroke-width:0.30000001192092896px"/><line x1="134.49293" y1="73.70344" x2="132.55722" y2="72.46372" style="fill:none;stroke:#2e1f4f;stroke-linecap:round;stroke-linejoin:round;stroke-width:0.30000001192092896px"/><line x1="141.2244" y1="78.01527" x2="139.28869" y2="76.77555" style="fill:none;stroke:#2e1f4f;stroke-linecap:round;stroke-linejoin:round;stroke-width:0.30000001192092896px"/><path d="M156.995,61.63419l-11.41848,6.99246,3.40923,5.58418,11.41848-6.99246Zm-6.92178,11.68491-1.68559-.45674L146.49,69.75218l0.34256-1.71277,8.98253-5.50806,1.68015,0.47305,1.89764,3.11018L158.99047,67.86Z" transform="translate(0.09025 0.09073)" style="fill:#2e1f4f;stroke:#2e1f4f;stroke-miterlimit:10;stroke-width:0.30000001192092896px"/><polygon points="157.585 63.101 155.905 62.622 146.917 68.119 146.575 69.827 148.478 72.937 150.153 73.41 159.086 67.951 159.483 66.205 157.585 63.101" style="fill:#334082;stroke:#2e1f4f;stroke-miterlimit:10;stroke-width:0.30000001192092896px"/><path d="M152.085,66.51695a1.63121,1.63121,0,1,1-.54374,2.28369A1.66929,1.66929,0,0,1,152.085,66.51695Z" transform="translate(0.09025 0.09073)" style="fill:none;stroke:#2e1f4f;stroke-linecap:round;stroke-linejoin:round;stroke-width:0.30000001192092896px"/><line x1="150.71261" y1="69.4351" x2="148.74972" y2="70.63677" style="fill:none;stroke:#2e1f4f;stroke-linecap:round;stroke-linejoin:round;stroke-width:0.30000001192092896px"/><line x1="157.53651" y1="65.28095" x2="155.57363" y2="66.47717" style="fill:none;stroke:#2e1f4f;stroke-linecap:round;stroke-linejoin:round;stroke-width:0.30000001192092896px"/><path d="M179.38606,76.451L168.0872,69.2302l-3.52342,5.51349,11.29886,7.22083ZM165.847,75.36355l-0.30993-1.71821L167.5,70.57866l1.68559-.44043,8.87922,5.67118,0.30993,1.71821-1.96288,3.06668-1.74539.40237Z" transform="translate(0.09025 0.09073)" style="fill:#2e1f4f;stroke:#2e1f4f;stroke-miterlimit:10;stroke-width:0.30000001192092896px"/><polygon points="178.465 77.591 178.155 75.878 169.276 70.207 167.59 70.648 165.627 73.714 165.937 75.433 174.757 81.066 176.502 80.663 178.465 77.591" style="fill:#7a3444;stroke:#2e1f4f;stroke-miterlimit:10;stroke-width:0.30000001192092896px"/><path d="M172.8449,74.1782a1.63121,1.63121,0,1,1-2.30544.4948A1.66928,1.66928,0,0,1,172.8449,74.1782Z" transform="translate(0.09025 0.09073)" style="fill:none;stroke:#2e1f4f;stroke-linecap:round;stroke-linejoin:round;stroke-width:0.30000001192092896px"/><line x1="169.75428" y1="74.1928" x2="167.81858" y2="72.95308" style="fill:none;stroke:#2e1f4f;stroke-linecap:round;stroke-linejoin:round;stroke-width:0.30000001192092896px"/><line x1="176.48031" y1="78.50464" x2="174.54461" y2="77.26492" style="fill:none;stroke:#2e1f4f;stroke-linecap:round;stroke-linejoin:round;stroke-width:0.30000001192092896px"/><path d="M193.719,61.63419l-11.41848,6.99246,3.40923,5.57874,11.41848-6.99246Zm-6.92721,11.68491-1.68015-.473L183.214,69.73587l0.34256-1.71277,8.988-5.49174,1.68015,0.47305,1.89764,3.11018L195.71991,67.86Z" transform="translate(0.09025 0.09073)" style="fill:#2e1f4f;stroke:#2e1f4f;stroke-miterlimit:10;stroke-width:0.30000001192092896px"/><polygon points="194.309 63.101 192.635 62.622 183.641 68.119 183.299 69.827 185.202 72.937 186.877 73.41 195.81 67.951 196.213 66.205 194.309 63.101" style="fill:#334082;stroke:#2e1f4f;stroke-miterlimit:10;stroke-width:0.30000001192092896px"/><path d="M188.809,66.51695a1.63121,1.63121,0,1,1-.54374,2.28369A1.66929,1.66929,0,0,1,188.809,66.51695Z" transform="translate(0.09025 0.09073)" style="fill:none;stroke:#2e1f4f;stroke-linecap:round;stroke-linejoin:round;stroke-width:0.30000001192092896px"/><line x1="187.43661" y1="69.4351" x2="185.47372" y2="70.63677" style="fill:none;stroke:#2e1f4f;stroke-linecap:round;stroke-linejoin:round;stroke-width:0.30000001192092896px"/><line x1="194.26052" y1="65.28095" x2="192.29762" y2="66.47717" style="fill:none;stroke:#2e1f4f;stroke-linecap:round;stroke-linejoin:round;stroke-width:0.30000001192092896px"/><path d="M216.11007,76.451L204.81121,69.2302l-3.52342,5.51349L212.603,81.95908ZM202.571,75.36355l-0.29907-1.74,1.96288-3.06668,1.68559-.44043,8.85748,5.67118,0.30993,1.71821-1.94115,3.06667-1.74539.40237Z" transform="translate(0.09025 0.09073)" style="fill:#2e1f4f;stroke:#2e1f4f;stroke-miterlimit:10;stroke-width:0.30000001192092896px"/><polygon points="215.189 77.591 214.879 75.878 206 70.207 204.314 70.648 202.351 73.714 202.661 75.433 211.481 81.066 213.226 80.663 215.189 77.591" style="fill:#7a3444;stroke:#2e1f4f;stroke-miterlimit:10;stroke-width:0.30000001192092896px"/><path d="M209.56891,74.1782a1.63121,1.63121,0,1,1-2.30544.4948A1.66928,1.66928,0,0,1,209.56891,74.1782Z" transform="translate(0.09025 0.09073)" style="fill:none;stroke:#2e1f4f;stroke-linecap:round;stroke-linejoin:round;stroke-width:0.30000001192092896px"/><line x1="206.47829" y1="74.1928" x2="204.54259" y2="72.95308" style="fill:none;stroke:#2e1f4f;stroke-linecap:round;stroke-linejoin:round;stroke-width:0.30000001192092896px"/><line x1="213.20432" y1="78.50464" x2="211.26861" y2="77.26492" style="fill:none;stroke:#2e1f4f;stroke-linecap:round;stroke-linejoin:round;stroke-width:0.30000001192092896px"/></g></g></svg>