<?xml version="1.0" encoding="utf-8"?>
<!-- Generator: Adobe Illustrator 19.2.1, SVG Export Plug-In . SVG Version: 6.00 Build 0)  -->
<svg version="1.1" id="Capa_1" xmlns="http://www.w3.org/2000/svg" xmlns:xlink="http://www.w3.org/1999/xlink" x="0px" y="0px"
	 viewBox="0 0 879.3 512" style="enable-background:new 0 0 879.3 512;" xml:space="preserve">
<style type="text/css">
	.st0{fill:#562C17;}
	.st1{fill:#8E4528;}
	.st2{fill:#3F1C0D;}
	.st3{fill:#6B351D;}
	.st4{fill:#161619;}
</style>
<g id="XMLID_1624_">
	<path id="XMLID_1527_" class="st0" d="M823.6,406.3v11.1c0,3.1-2.5,5.6-5.6,5.6H61.2c-3.1,0-5.6-2.5-5.6-5.6v-11.1
		c0-3.1,2.5-5.6,5.6-5.6H818C821.1,400.7,823.6,403.2,823.6,406.3z"/>
	<path id="XMLID_1526_" class="st1" d="M829.2,500.9H818c-3.1,0-5.6-2.5-5.6-5.6V128c0-3.1,2.5-5.6,5.6-5.6h11.1
		c3.1,0,5.6,2.5,5.6,5.6v367.3C834.7,498.4,832.2,500.9,829.2,500.9z M66.8,495.3V128c0-3.1-2.5-5.6-5.6-5.6H50.1
		c-3.1,0-5.6,2.5-5.6,5.6v367.3c0,3.1,2.5,5.6,5.6,5.6h11.1C64.3,500.9,66.8,498.4,66.8,495.3z"/>
	<path id="XMLID_1524_" class="st2" d="M72.3,512H39c-3.1,0-5.6-2.5-5.6-5.6v-5.6c0-6.1,5-11.1,11.1-11.1h22.3
		c6.1,0,11.1,5,11.1,11.1v5.6C77.9,509.5,75.4,512,72.3,512z M845.9,506.4v-5.6c0-6.1-5-11.1-11.1-11.1h-22.3
		c-6.1,0-11.1,5-11.1,11.1v5.6c0,3.1,2.5,5.6,5.6,5.6h33.4C843.4,512,845.9,509.5,845.9,506.4z"/>
	<path id="XMLID_1158_" class="st2" d="M768,345c0,6.1-5,11.1-11.1,11.1H122.4c-6.1,0-11.1-5-11.1-11.1v-22.3H768V345z"/>
	<path id="XMLID_1159_" class="st1" d="M768,345c0,6.1-5,11.1-11.1,11.1H122.4c-6.1,0-11.1-5-11.1-11.1l0,0H768L768,345z"/>
	<path id="XMLID_1156_" class="st2" d="M879.3,183.7v11.1c0,3.1-2.5,5.6-5.6,5.6h-43.4h-6.7H5.6c-3.1,0-5.6-2.5-5.6-5.6v-11.1
		c0-3.1,2.5-5.6,5.6-5.6h818h6.7h43.4C876.8,178.1,879.3,180.6,879.3,183.7z"/>
	<path id="XMLID_1143_" class="st0" d="M857,333.9H22.3V0H857V333.9z"/>
	<path id="XMLID_1140_" class="st3" d="M845.9,333.9H33.4V0h812.5V333.9z"/>
	<path id="XMLID_1029_" class="st4" d="M845.9,322.8H33.4V11.1h812.5V322.8z"/>
</g>
</svg>
