<svg id="Layer_1" data-name="Layer 1" xmlns="http://www.w3.org/2000/svg" viewBox="0 0 292.56909 225.72635"><title>escola</title><rect x="19.52742" y="88.00738" width="254.18097" height="133.71897" style="fill:#f2f2f2;stroke:#30204f;stroke-miterlimit:10;stroke-width:2px"/><path d="M2464.27921-604.8177H2201.3239c-4.7679,0-7.31034-4.97039-4.16191-8.13639l51.218-51.50384h168.84312l51.218,51.50384C2471.58955-609.78809,2469.04711-604.8177,2464.27921-604.8177Z" transform="translate(-2185.89965 694.06354)" style="fill:#30204f"/><polygon points="146.618 4 230.713 93.211 62.522 93.211 146.618 4" style="fill:#f2f2f2"/><polyline points="64.082 93.211 148.177 4 232.273 93.211" style="fill:none;stroke:#77111a;stroke-linecap:round;stroke-linejoin:round;stroke-width:8px"/><g id="relogio"><circle cx="148.46141" cy="76.68555" r="28.28455" style="fill:#e7e7e7;stroke:#bdbec0;stroke-miterlimit:10;stroke-width:6px"/><polyline points="148.461 62.581 148.461 76.686 133.095 76.686" style="fill:none;stroke:#971b1e;stroke-linecap:round;stroke-miterlimit:10;stroke-width:6px"/></g><g id="porta"><rect x="107.13925" y="134.82202" width="82.64432" height="86.90433" style="fill:#d2d3d4;stroke:#77111a;stroke-linecap:round;stroke-linejoin:round;stroke-width:8px"/><line x1="146.28454" y1="134.82202" x2="146.28454" y2="221.72635" style="fill:#e7e7e7;stroke:#77111a;stroke-linecap:round;stroke-linejoin:round;stroke-width:8px"/></g><line x1="4" y1="221.72635" x2="288.56909" y2="221.72635" style="fill:none;stroke:#77111a;stroke-linecap:round;stroke-miterlimit:10;stroke-width:8px"/><g id="janela"><polygon points="73.261 191.964 47.124 191.964 47.124 173.416 47.124 154.867 73.261 154.867 73.261 191.964" style="fill:#29aae1;stroke:#77111a;stroke-linecap:round;stroke-linejoin:round;stroke-width:8px"/><line x1="73.26094" y1="173.41563" x2="47.12405" y2="173.41563" style="fill:#29aae1;stroke:#77111a;stroke-linecap:round;stroke-linejoin:round;stroke-width:8px"/></g><g id="janela-2" data-name="janela"><polygon points="247.07 191.964 220.933 191.964 220.933 173.416 220.933 154.867 247.07 154.867 247.07 191.964" style="fill:#29aae1;stroke:#77111a;stroke-linecap:round;stroke-linejoin:round;stroke-width:8px"/><line x1="247.0696" y1="173.41563" x2="220.93271" y2="173.41563" style="fill:#29aae1;stroke:#77111a;stroke-linecap:round;stroke-linejoin:round;stroke-width:8px"/></g></svg>