<svg id="Layer_1" data-name="Layer 1" xmlns="http://www.w3.org/2000/svg" xmlns:xlink="http://www.w3.org/1999/xlink" viewBox="0 0 314.56909 235.72635"><defs><clipPath id="clip-path" transform="translate(-2185.89965 694.06354)"><polygon points="2255 -788 2375.683 -594 2301 -565.333 2359 -484 2286.333 -425.333 2123 -425.333 2105.667 -600.853 2255 -788" style="fill:none"/></clipPath><clipPath id="clip-path-2" transform="translate(-2185.89965 694.06354)"><polygon points="2277 -778 2397.683 -584 2323 -555.333 2381 -474 2308.333 -415.333 2603 -448 2565.667 -765.333 2277 -778" style="fill:none"/></clipPath></defs><title>escolapart</title><g style="clip-path:url(#clip-path)"><rect x="19.52742" y="88.00738" width="254.18097" height="133.71897" style="fill:#f2f2f2;stroke:#30204f;stroke-miterlimit:10;stroke-width:2px"/><path d="M2464.27921-604.8177H2201.3239c-4.7679,0-7.31034-4.97039-4.16191-8.13639l51.218-51.50384h168.84312l51.218,51.50384C2471.58955-609.78809,2469.04711-604.8177,2464.27921-604.8177Z" transform="translate(-2185.89965 694.06354)" style="fill:#30204f"/><polygon points="146.618 4 230.713 93.211 62.522 93.211 146.618 4" style="fill:#f2f2f2"/><polyline points="64.082 93.211 148.177 4 232.273 93.211" style="fill:none;stroke:#77111a;stroke-linecap:round;stroke-linejoin:round;stroke-width:8px"/><g id="relogio"><circle cx="148.46141" cy="76.68555" r="28.28455" style="fill:#e7e7e7;stroke:#bdbec0;stroke-miterlimit:10;stroke-width:6px"/><polyline points="148.461 62.581 148.461 76.686 133.095 76.686" style="fill:none;stroke:#971b1e;stroke-linecap:round;stroke-miterlimit:10;stroke-width:6px"/></g><g id="porta"><rect x="107.13925" y="134.82202" width="82.64432" height="86.90433" style="fill:#d2d3d4;stroke:#77111a;stroke-linecap:round;stroke-linejoin:round;stroke-width:8px"/><line x1="146.28454" y1="134.82202" x2="146.28454" y2="221.72635" style="fill:#e7e7e7;stroke:#77111a;stroke-linecap:round;stroke-linejoin:round;stroke-width:8px"/></g><line x1="4" y1="221.72635" x2="288.56909" y2="221.72635" style="fill:none;stroke:#77111a;stroke-linecap:round;stroke-miterlimit:10;stroke-width:8px"/><g id="janela"><polygon points="73.261 191.964 47.124 191.964 47.124 173.416 47.124 154.867 73.261 154.867 73.261 191.964" style="fill:#29aae1;stroke:#77111a;stroke-linecap:round;stroke-linejoin:round;stroke-width:8px"/><line x1="73.26094" y1="173.41563" x2="47.12405" y2="173.41563" style="fill:#29aae1;stroke:#77111a;stroke-linecap:round;stroke-linejoin:round;stroke-width:8px"/></g><g id="janela-2" data-name="janela"><polygon points="247.07 191.964 220.933 191.964 220.933 173.416 220.933 154.867 247.07 154.867 247.07 191.964" style="fill:#29aae1;stroke:#77111a;stroke-linecap:round;stroke-linejoin:round;stroke-width:8px"/><line x1="247.0696" y1="173.41563" x2="220.93271" y2="173.41563" style="fill:#29aae1;stroke:#77111a;stroke-linecap:round;stroke-linejoin:round;stroke-width:8px"/></g></g><g style="clip-path:url(#clip-path-2)"><rect x="41.52742" y="98.00738" width="254.18097" height="133.71897" style="fill:#f2f2f2;stroke:#30204f;stroke-miterlimit:10;stroke-width:2px"/><path d="M2486.27921-594.8177H2223.3239c-4.7679,0-7.31034-4.97039-4.16191-8.13639l51.218-51.50384h168.84312l51.218,51.50384C2493.58955-599.78809,2491.04711-594.8177,2486.27921-594.8177Z" transform="translate(-2185.89965 694.06354)" style="fill:#30204f"/><polygon points="168.618 14 252.713 103.211 84.522 103.211 168.618 14" style="fill:#f2f2f2"/><polyline points="86.082 103.211 170.177 14 254.273 103.211" style="fill:none;stroke:#77111a;stroke-linecap:round;stroke-linejoin:round;stroke-width:8px"/><g id="relogio-2" data-name="relogio"><circle cx="170.46141" cy="86.68555" r="28.28455" style="fill:#e7e7e7;stroke:#bdbec0;stroke-miterlimit:10;stroke-width:6px"/><polyline points="170.461 72.581 170.461 86.686 155.095 86.686" style="fill:none;stroke:#971b1e;stroke-linecap:round;stroke-miterlimit:10;stroke-width:6px"/></g><g id="porta-2" data-name="porta"><rect x="129.13925" y="144.82202" width="82.64432" height="86.90433" style="fill:#d2d3d4;stroke:#77111a;stroke-linecap:round;stroke-linejoin:round;stroke-width:8px"/><line x1="168.28454" y1="144.82202" x2="168.28454" y2="231.72635" style="fill:#e7e7e7;stroke:#77111a;stroke-linecap:round;stroke-linejoin:round;stroke-width:8px"/></g><line x1="26" y1="231.72635" x2="310.56909" y2="231.72635" style="fill:none;stroke:#77111a;stroke-linecap:round;stroke-miterlimit:10;stroke-width:8px"/><g id="janela-3" data-name="janela"><polygon points="95.261 201.964 69.124 201.964 69.124 183.416 69.124 164.867 95.261 164.867 95.261 201.964" style="fill:#29aae1;stroke:#77111a;stroke-linecap:round;stroke-linejoin:round;stroke-width:8px"/><line x1="95.26094" y1="183.41563" x2="69.12405" y2="183.41563" style="fill:#29aae1;stroke:#77111a;stroke-linecap:round;stroke-linejoin:round;stroke-width:8px"/></g><g id="janela-4" data-name="janela"><polygon points="269.07 201.964 242.933 201.964 242.933 183.416 242.933 164.867 269.07 164.867 269.07 201.964" style="fill:#29aae1;stroke:#77111a;stroke-linecap:round;stroke-linejoin:round;stroke-width:8px"/><line x1="269.0696" y1="183.41563" x2="242.93271" y2="183.41563" style="fill:#29aae1;stroke:#77111a;stroke-linecap:round;stroke-linejoin:round;stroke-width:8px"/></g></g></svg>