<?xml version="1.0" encoding="utf-8"?>
<!-- Generator: Adobe Illustrator 19.2.1, SVG Export Plug-In . SVG Version: 6.00 Build 0)  -->
<svg version="1.1" id="Capa_1" xmlns="http://www.w3.org/2000/svg" xmlns:xlink="http://www.w3.org/1999/xlink" x="0px" y="0px"
	 viewBox="0 0 3579 667.5" style="enable-background:new 0 0 3579 667.5;" xml:space="preserve">
<style type="text/css">
	.st0{fill:#EDC92F;}
	.st1{fill:#274B6D;}
	.st2{fill:#082947;}
	.st3{fill:#6DA8D6;}
	.st4{fill:#185F8D;}
	.st5{fill:#E7ECED;}
	.st6{fill:#BFA380;}
	.st7{fill:#7A6857;}
	.st8{fill:#6B5B4B;}
	.st9{fill:#6C797A;}
</style>
<rect y="520.5" class="st0" width="3579" height="147"/>
<g>
	<path class="st1" d="M1399.5,499.5v33.2c0,4.6,3.7,8.3,8.3,8.3c4.6,0,8.3-3.7,8.3-8.3v-44.3L1399.5,499.5z"/>
	<path class="st2" d="M1559.1,477.4v55.4c0,4.6,3.7,8.3,8.3,8.3s8.3-3.7,8.3-8.3v-55.4H1559.1z"/>
	<path class="st2" d="M1727,477.4v55.4c0,4.6,3.7,8.3,8.3,8.3c4.6,0,8.3-3.7,8.3-8.3v-55.4H1727z"/>
	<path class="st1" d="M1886.6,488.4v44.3c0,4.6,3.7,8.3,8.3,8.3s8.3-3.7,8.3-8.3v-33.2L1886.6,488.4z"/>
	<polygon class="st3" points="1399.5,29 1399.5,499.5 1567.4,499.5 1589.5,264.2 1567.4,29 	"/>
	<path class="st3" d="M1903.2,29v470.5h-167.9l-22.1-235.2L1735.3,29H1903.2z"/>
	<path class="st4" d="M1735.3,29v470.5h-167.9V29H1735.3z"/>
	<path class="st3" d="M1628.3,247.6c9.2,0,16.6,7.4,16.6,16.6c0,9.2-7.4,16.6-16.6,16.6c-9.2,0-16.6-7.4-16.6-16.6
		C1611.7,255.1,1619.1,247.6,1628.3,247.6z"/>
	<path class="st4" d="M1796.2,247.6c9.2,0,16.6,7.4,16.6,16.6c0,9.2-7.4,16.6-16.6,16.6c-9.2,0-16.6-7.4-16.6-16.6
		C1779.6,255.1,1787,247.6,1796.2,247.6z"/>
	<path class="st4" d="M1523.1,81.6h-79.3c-4.6,0-8.3-3.7-8.3-8.3s3.7-8.3,8.3-8.3h79.3c4.6,0,8.3,3.7,8.3,8.3
		S1527.7,81.6,1523.1,81.6z"/>
	<path class="st4" d="M1523.1,114.8h-79.3c-4.6,0-8.3-3.7-8.3-8.3s3.7-8.3,8.3-8.3h79.3c4.6,0,8.3,3.7,8.3,8.3
		S1527.7,114.8,1523.1,114.8z"/>
	<path class="st4" d="M1523.1,148h-79.3c-4.6,0-8.3-3.7-8.3-8.3c0-4.6,3.7-8.3,8.3-8.3h79.3c4.6,0,8.3,3.7,8.3,8.3
		C1531.4,144.3,1527.7,148,1523.1,148z"/>
	<path class="st4" d="M1523.1,397.1h-79.3c-4.6,0-8.3-3.7-8.3-8.3c0-4.6,3.7-8.3,8.3-8.3h79.3c4.6,0,8.3,3.7,8.3,8.3
		C1531.4,393.4,1527.7,397.1,1523.1,397.1z"/>
	<path class="st4" d="M1523.1,430.3h-79.3c-4.6,0-8.3-3.7-8.3-8.3c0-4.6,3.7-8.3,8.3-8.3h79.3c4.6,0,8.3,3.7,8.3,8.3
		C1531.4,426.6,1527.7,430.3,1523.1,430.3z"/>
	<path class="st4" d="M1523.1,463.5h-79.3c-4.6,0-8.3-3.7-8.3-8.3c0-4.6,3.7-8.3,8.3-8.3h79.3c4.6,0,8.3,3.7,8.3,8.3
		C1531.4,459.8,1527.7,463.5,1523.1,463.5z"/>
	<path class="st2" d="M1691,81.6h-79.3c-4.6,0-8.3-3.7-8.3-8.3s3.7-8.3,8.3-8.3h79.3c4.6,0,8.3,3.7,8.3,8.3S1695.6,81.6,1691,81.6z"
		/>
	<path class="st2" d="M1691,114.8h-79.3c-4.6,0-8.3-3.7-8.3-8.3s3.7-8.3,8.3-8.3h79.3c4.6,0,8.3,3.7,8.3,8.3
		S1695.6,114.8,1691,114.8z"/>
	<path class="st2" d="M1691,148h-79.3c-4.6,0-8.3-3.7-8.3-8.3c0-4.6,3.7-8.3,8.3-8.3h79.3c4.6,0,8.3,3.7,8.3,8.3
		C1699.3,144.3,1695.6,148,1691,148z"/>
	<path class="st2" d="M1691,397.1h-79.3c-4.6,0-8.3-3.7-8.3-8.3c0-4.6,3.7-8.3,8.3-8.3h79.3c4.6,0,8.3,3.7,8.3,8.3
		C1699.3,393.4,1695.6,397.1,1691,397.1z"/>
	<path class="st2" d="M1691,430.3h-79.3c-4.6,0-8.3-3.7-8.3-8.3c0-4.6,3.7-8.3,8.3-8.3h79.3c4.6,0,8.3,3.7,8.3,8.3
		C1699.3,426.6,1695.6,430.3,1691,430.3z"/>
	<path class="st2" d="M1691,463.5h-79.3c-4.6,0-8.3-3.7-8.3-8.3c0-4.6,3.7-8.3,8.3-8.3h79.3c4.6,0,8.3,3.7,8.3,8.3
		C1699.3,459.8,1695.6,463.5,1691,463.5z"/>
	<path class="st4" d="M1858.9,81.6h-79.3c-4.6,0-8.3-3.7-8.3-8.3s3.7-8.3,8.3-8.3h79.3c4.6,0,8.3,3.7,8.3,8.3
		S1863.5,81.6,1858.9,81.6z"/>
	<path class="st4" d="M1858.9,114.8h-79.3c-4.6,0-8.3-3.7-8.3-8.3s3.7-8.3,8.3-8.3h79.3c4.6,0,8.3,3.7,8.3,8.3
		S1863.5,114.8,1858.9,114.8z"/>
	<path class="st4" d="M1858.9,148h-79.3c-4.6,0-8.3-3.7-8.3-8.3c0-4.6,3.7-8.3,8.3-8.3h79.3c4.6,0,8.3,3.7,8.3,8.3
		C1867.2,144.3,1863.5,148,1858.9,148z"/>
	<path class="st4" d="M1858.9,397.1h-79.3c-4.6,0-8.3-3.7-8.3-8.3c0-4.6,3.7-8.3,8.3-8.3h79.3c4.6,0,8.3,3.7,8.3,8.3
		C1867.2,393.4,1863.5,397.1,1858.9,397.1z"/>
	<path class="st4" d="M1858.9,430.3h-79.3c-4.6,0-8.3-3.7-8.3-8.3c0-4.6,3.7-8.3,8.3-8.3h79.3c4.6,0,8.3,3.7,8.3,8.3
		C1867.2,426.6,1863.5,430.3,1858.9,430.3z"/>
	<path class="st4" d="M1858.9,463.5h-79.3c-4.6,0-8.3-3.7-8.3-8.3c0-4.6,3.7-8.3,8.3-8.3h79.3c4.6,0,8.3,3.7,8.3,8.3
		C1867.2,459.8,1863.5,463.5,1858.9,463.5z"/>
	<path class="st4" d="M1460.4,247.6c9.2,0,16.6,7.4,16.6,16.6c0,9.2-7.4,16.6-16.6,16.6c-9.2,0-16.6-7.4-16.6-16.6
		C1443.8,255.1,1451.2,247.6,1460.4,247.6z"/>
</g>
<g>
	<path class="st1" d="M2986.7,499.5v33.2c0,4.6,3.7,8.3,8.3,8.3c4.6,0,8.3-3.7,8.3-8.3v-44.3L2986.7,499.5z"/>
	<path class="st2" d="M3146.2,477.4v55.4c0,4.6,3.7,8.3,8.3,8.3s8.3-3.7,8.3-8.3v-55.4H3146.2z"/>
	<path class="st2" d="M3314.1,477.4v55.4c0,4.6,3.7,8.3,8.3,8.3s8.3-3.7,8.3-8.3v-55.4H3314.1z"/>
	<path class="st1" d="M3473.8,488.4v44.3c0,4.6,3.7,8.3,8.3,8.3s8.3-3.7,8.3-8.3v-33.2L3473.8,488.4z"/>
	<polygon class="st3" points="2986.7,29 2986.7,499.5 3154.6,499.5 3176.7,264.2 3154.6,29 	"/>
	<path class="st3" d="M3490.4,29v470.5h-167.9l-22.1-235.2L3322.5,29H3490.4z"/>
	<path class="st4" d="M3322.5,29v470.5h-167.9V29H3322.5z"/>
	<path class="st3" d="M3215.4,247.6c9.2,0,16.6,7.4,16.6,16.6c0,9.2-7.4,16.6-16.6,16.6c-9.2,0-16.6-7.4-16.6-16.6
		C3198.8,255.1,3206.3,247.6,3215.4,247.6z"/>
	<path class="st4" d="M3383.3,247.6c9.2,0,16.6,7.4,16.6,16.6c0,9.2-7.4,16.6-16.6,16.6c-9.2,0-16.6-7.4-16.6-16.6
		C3366.7,255.1,3374.2,247.6,3383.3,247.6z"/>
	<path class="st4" d="M3110.3,81.6h-79.3c-4.6,0-8.3-3.7-8.3-8.3s3.7-8.3,8.3-8.3h79.3c4.6,0,8.3,3.7,8.3,8.3
		S3114.9,81.6,3110.3,81.6z"/>
	<path class="st4" d="M3110.3,114.8h-79.3c-4.6,0-8.3-3.7-8.3-8.3s3.7-8.3,8.3-8.3h79.3c4.6,0,8.3,3.7,8.3,8.3
		S3114.9,114.8,3110.3,114.8z"/>
	<path class="st4" d="M3110.3,148h-79.3c-4.6,0-8.3-3.7-8.3-8.3c0-4.6,3.7-8.3,8.3-8.3h79.3c4.6,0,8.3,3.7,8.3,8.3
		C3118.6,144.3,3114.9,148,3110.3,148z"/>
	<path class="st4" d="M3110.3,397.1h-79.3c-4.6,0-8.3-3.7-8.3-8.3c0-4.6,3.7-8.3,8.3-8.3h79.3c4.6,0,8.3,3.7,8.3,8.3
		C3118.6,393.4,3114.9,397.1,3110.3,397.1z"/>
	<path class="st4" d="M3110.3,430.3h-79.3c-4.6,0-8.3-3.7-8.3-8.3c0-4.6,3.7-8.3,8.3-8.3h79.3c4.6,0,8.3,3.7,8.3,8.3
		C3118.6,426.6,3114.9,430.3,3110.3,430.3z"/>
	<path class="st4" d="M3110.3,463.5h-79.3c-4.6,0-8.3-3.7-8.3-8.3c0-4.6,3.7-8.3,8.3-8.3h79.3c4.6,0,8.3,3.7,8.3,8.3
		C3118.6,459.8,3114.9,463.5,3110.3,463.5z"/>
	<path class="st2" d="M3278.2,81.6h-79.3c-4.6,0-8.3-3.7-8.3-8.3s3.7-8.3,8.3-8.3h79.3c4.6,0,8.3,3.7,8.3,8.3
		S3282.8,81.6,3278.2,81.6z"/>
	<path class="st2" d="M3278.2,114.8h-79.3c-4.6,0-8.3-3.7-8.3-8.3s3.7-8.3,8.3-8.3h79.3c4.6,0,8.3,3.7,8.3,8.3
		S3282.8,114.8,3278.2,114.8z"/>
	<path class="st2" d="M3278.2,148h-79.3c-4.6,0-8.3-3.7-8.3-8.3c0-4.6,3.7-8.3,8.3-8.3h79.3c4.6,0,8.3,3.7,8.3,8.3
		C3286.5,144.3,3282.8,148,3278.2,148z"/>
	<path class="st2" d="M3278.2,397.1h-79.3c-4.6,0-8.3-3.7-8.3-8.3c0-4.6,3.7-8.3,8.3-8.3h79.3c4.6,0,8.3,3.7,8.3,8.3
		C3286.5,393.4,3282.8,397.1,3278.2,397.1z"/>
	<path class="st2" d="M3278.2,430.3h-79.3c-4.6,0-8.3-3.7-8.3-8.3c0-4.6,3.7-8.3,8.3-8.3h79.3c4.6,0,8.3,3.7,8.3,8.3
		C3286.5,426.6,3282.8,430.3,3278.2,430.3z"/>
	<path class="st2" d="M3278.2,463.5h-79.3c-4.6,0-8.3-3.7-8.3-8.3c0-4.6,3.7-8.3,8.3-8.3h79.3c4.6,0,8.3,3.7,8.3,8.3
		C3286.5,459.8,3282.8,463.5,3278.2,463.5z"/>
	<path class="st4" d="M3446.1,81.6h-79.3c-4.6,0-8.3-3.7-8.3-8.3s3.7-8.3,8.3-8.3h79.3c4.6,0,8.3,3.7,8.3,8.3
		S3450.7,81.6,3446.1,81.6z"/>
	<path class="st4" d="M3446.1,114.8h-79.3c-4.6,0-8.3-3.7-8.3-8.3s3.7-8.3,8.3-8.3h79.3c4.6,0,8.3,3.7,8.3,8.3
		S3450.7,114.8,3446.1,114.8z"/>
	<path class="st4" d="M3446.1,148h-79.3c-4.6,0-8.3-3.7-8.3-8.3c0-4.6,3.7-8.3,8.3-8.3h79.3c4.6,0,8.3,3.7,8.3,8.3
		C3454.4,144.3,3450.7,148,3446.1,148z"/>
	<path class="st4" d="M3446.1,397.1h-79.3c-4.6,0-8.3-3.7-8.3-8.3c0-4.6,3.7-8.3,8.3-8.3h79.3c4.6,0,8.3,3.7,8.3,8.3
		C3454.4,393.4,3450.7,397.1,3446.1,397.1z"/>
	<path class="st4" d="M3446.1,430.3h-79.3c-4.6,0-8.3-3.7-8.3-8.3c0-4.6,3.7-8.3,8.3-8.3h79.3c4.6,0,8.3,3.7,8.3,8.3
		C3454.4,426.6,3450.7,430.3,3446.1,430.3z"/>
	<path class="st4" d="M3446.1,463.5h-79.3c-4.6,0-8.3-3.7-8.3-8.3c0-4.6,3.7-8.3,8.3-8.3h79.3c4.6,0,8.3,3.7,8.3,8.3
		C3454.4,459.8,3450.7,463.5,3446.1,463.5z"/>
	<path class="st4" d="M3047.5,247.6c9.2,0,16.6,7.4,16.6,16.6c0,9.2-7.4,16.6-16.6,16.6c-9.2,0-16.6-7.4-16.6-16.6
		C3030.9,255.1,3038.4,247.6,3047.5,247.6z"/>
</g>
<g>
	<path class="st1" d="M2404.6,499.5v33.2c0,4.6,3.7,8.3,8.3,8.3s8.3-3.7,8.3-8.3v-44.3L2404.6,499.5z"/>
	<path class="st2" d="M2564.2,477.4v55.4c0,4.6,3.7,8.3,8.3,8.3c4.6,0,8.3-3.7,8.3-8.3v-55.4H2564.2z"/>
	<path class="st2" d="M2732.1,477.4v55.4c0,4.6,3.7,8.3,8.3,8.3s8.3-3.7,8.3-8.3v-55.4H2732.1z"/>
	<path class="st1" d="M2891.7,488.4v44.3c0,4.6,3.7,8.3,8.3,8.3s8.3-3.7,8.3-8.3v-33.2L2891.7,488.4z"/>
	<polygon class="st3" points="2404.6,29 2404.6,499.5 2572.5,499.5 2594.6,264.2 2572.5,29 	"/>
	<path class="st3" d="M2908.3,29v470.5h-167.9l-22.1-235.2L2740.4,29H2908.3z"/>
	<path class="st4" d="M2740.4,29v470.5h-167.9V29H2740.4z"/>
	<path class="st3" d="M2633.4,247.6c9.2,0,16.6,7.4,16.6,16.6c0,9.2-7.4,16.6-16.6,16.6c-9.2,0-16.6-7.4-16.6-16.6
		C2616.8,255.1,2624.2,247.6,2633.4,247.6z"/>
	<path class="st4" d="M2801.3,247.6c9.2,0,16.6,7.4,16.6,16.6c0,9.2-7.4,16.6-16.6,16.6c-9.2,0-16.6-7.4-16.6-16.6
		C2784.7,255.1,2792.1,247.6,2801.3,247.6z"/>
	<path class="st4" d="M2528.2,81.6h-79.3c-4.6,0-8.3-3.7-8.3-8.3s3.7-8.3,8.3-8.3h79.3c4.6,0,8.3,3.7,8.3,8.3
		S2532.8,81.6,2528.2,81.6z"/>
	<path class="st4" d="M2528.2,114.8h-79.3c-4.6,0-8.3-3.7-8.3-8.3s3.7-8.3,8.3-8.3h79.3c4.6,0,8.3,3.7,8.3,8.3
		S2532.8,114.8,2528.2,114.8z"/>
	<path class="st4" d="M2528.2,148h-79.3c-4.6,0-8.3-3.7-8.3-8.3c0-4.6,3.7-8.3,8.3-8.3h79.3c4.6,0,8.3,3.7,8.3,8.3
		C2536.5,144.3,2532.8,148,2528.2,148z"/>
	<path class="st4" d="M2528.2,397.1h-79.3c-4.6,0-8.3-3.7-8.3-8.3c0-4.6,3.7-8.3,8.3-8.3h79.3c4.6,0,8.3,3.7,8.3,8.3
		C2536.5,393.4,2532.8,397.1,2528.2,397.1z"/>
	<path class="st4" d="M2528.2,430.3h-79.3c-4.6,0-8.3-3.7-8.3-8.3c0-4.6,3.7-8.3,8.3-8.3h79.3c4.6,0,8.3,3.7,8.3,8.3
		C2536.5,426.6,2532.8,430.3,2528.2,430.3z"/>
	<path class="st4" d="M2528.2,463.5h-79.3c-4.6,0-8.3-3.7-8.3-8.3c0-4.6,3.7-8.3,8.3-8.3h79.3c4.6,0,8.3,3.7,8.3,8.3
		C2536.5,459.8,2532.8,463.5,2528.2,463.5z"/>
	<path class="st2" d="M2696.1,81.6h-79.3c-4.6,0-8.3-3.7-8.3-8.3s3.7-8.3,8.3-8.3h79.3c4.6,0,8.3,3.7,8.3,8.3
		S2700.7,81.6,2696.1,81.6z"/>
	<path class="st2" d="M2696.1,114.8h-79.3c-4.6,0-8.3-3.7-8.3-8.3s3.7-8.3,8.3-8.3h79.3c4.6,0,8.3,3.7,8.3,8.3
		S2700.7,114.8,2696.1,114.8z"/>
	<path class="st2" d="M2696.1,148h-79.3c-4.6,0-8.3-3.7-8.3-8.3c0-4.6,3.7-8.3,8.3-8.3h79.3c4.6,0,8.3,3.7,8.3,8.3
		C2704.4,144.3,2700.7,148,2696.1,148z"/>
	<path class="st2" d="M2696.1,397.1h-79.3c-4.6,0-8.3-3.7-8.3-8.3c0-4.6,3.7-8.3,8.3-8.3h79.3c4.6,0,8.3,3.7,8.3,8.3
		C2704.4,393.4,2700.7,397.1,2696.1,397.1z"/>
	<path class="st2" d="M2696.1,430.3h-79.3c-4.6,0-8.3-3.7-8.3-8.3c0-4.6,3.7-8.3,8.3-8.3h79.3c4.6,0,8.3,3.7,8.3,8.3
		C2704.4,426.6,2700.7,430.3,2696.1,430.3z"/>
	<path class="st2" d="M2696.1,463.5h-79.3c-4.6,0-8.3-3.7-8.3-8.3c0-4.6,3.7-8.3,8.3-8.3h79.3c4.6,0,8.3,3.7,8.3,8.3
		C2704.4,459.8,2700.7,463.5,2696.1,463.5z"/>
	<path class="st4" d="M2864,81.6h-79.3c-4.6,0-8.3-3.7-8.3-8.3s3.7-8.3,8.3-8.3h79.3c4.6,0,8.3,3.7,8.3,8.3S2868.6,81.6,2864,81.6z"
		/>
	<path class="st4" d="M2864,114.8h-79.3c-4.6,0-8.3-3.7-8.3-8.3s3.7-8.3,8.3-8.3h79.3c4.6,0,8.3,3.7,8.3,8.3
		S2868.6,114.8,2864,114.8z"/>
	<path class="st4" d="M2864,148h-79.3c-4.6,0-8.3-3.7-8.3-8.3c0-4.6,3.7-8.3,8.3-8.3h79.3c4.6,0,8.3,3.7,8.3,8.3
		C2872.3,144.3,2868.6,148,2864,148z"/>
	<path class="st4" d="M2864,397.1h-79.3c-4.6,0-8.3-3.7-8.3-8.3c0-4.6,3.7-8.3,8.3-8.3h79.3c4.6,0,8.3,3.7,8.3,8.3
		C2872.3,393.4,2868.6,397.1,2864,397.1z"/>
	<path class="st4" d="M2864,430.3h-79.3c-4.6,0-8.3-3.7-8.3-8.3c0-4.6,3.7-8.3,8.3-8.3h79.3c4.6,0,8.3,3.7,8.3,8.3
		C2872.3,426.6,2868.6,430.3,2864,430.3z"/>
	<path class="st4" d="M2864,463.5h-79.3c-4.6,0-8.3-3.7-8.3-8.3c0-4.6,3.7-8.3,8.3-8.3h79.3c4.6,0,8.3,3.7,8.3,8.3
		C2872.3,459.8,2868.6,463.5,2864,463.5z"/>
	<path class="st4" d="M2465.5,247.6c9.2,0,16.6,7.4,16.6,16.6c0,9.2-7.4,16.6-16.6,16.6c-9.2,0-16.6-7.4-16.6-16.6
		C2448.9,255.1,2456.3,247.6,2465.5,247.6z"/>
</g>
<g>
	<path class="st1" d="M1072,499.5v33.2c0,4.6,3.7,8.3,8.3,8.3c4.6,0,8.3-3.7,8.3-8.3v-44.3L1072,499.5z"/>
	<path class="st2" d="M1231.6,477.4v55.4c0,4.6,3.7,8.3,8.3,8.3s8.3-3.7,8.3-8.3v-55.4H1231.6z"/>
	<path class="st2" d="M1399.5,477.4v55.4c0,4.6,3.7,8.3,8.3,8.3c4.6,0,8.3-3.7,8.3-8.3v-55.4H1399.5z"/>
	<path class="st1" d="M1559.1,488.4v44.3c0,4.6,3.7,8.3,8.3,8.3c4.6,0,8.3-3.7,8.3-8.3v-33.2L1559.1,488.4z"/>
	<polygon class="st3" points="1072,29 1072,499.5 1239.9,499.5 1262,264.2 1239.9,29 	"/>
	<path class="st3" d="M1575.7,29v470.5h-167.9l-22.1-235.2L1407.8,29H1575.7z"/>
	<path class="st4" d="M1407.8,29v470.5h-167.9V29H1407.8z"/>
	<path class="st3" d="M1300.8,247.6c9.2,0,16.6,7.4,16.6,16.6c0,9.2-7.4,16.6-16.6,16.6c-9.2,0-16.6-7.4-16.6-16.6
		C1284.2,255.1,1291.6,247.6,1300.8,247.6z"/>
	<path class="st4" d="M1468.7,247.6c9.2,0,16.6,7.4,16.6,16.6c0,9.2-7.4,16.6-16.6,16.6c-9.2,0-16.6-7.4-16.6-16.6
		C1452.1,255.1,1459.5,247.6,1468.7,247.6z"/>
	<path class="st4" d="M1195.6,81.6h-79.3c-4.6,0-8.3-3.7-8.3-8.3s3.7-8.3,8.3-8.3h79.3c4.6,0,8.3,3.7,8.3,8.3
		S1200.2,81.6,1195.6,81.6z"/>
	<path class="st4" d="M1195.6,114.8h-79.3c-4.6,0-8.3-3.7-8.3-8.3s3.7-8.3,8.3-8.3h79.3c4.6,0,8.3,3.7,8.3,8.3
		S1200.2,114.8,1195.6,114.8z"/>
	<path class="st4" d="M1195.6,148h-79.3c-4.6,0-8.3-3.7-8.3-8.3c0-4.6,3.7-8.3,8.3-8.3h79.3c4.6,0,8.3,3.7,8.3,8.3
		C1203.9,144.3,1200.2,148,1195.6,148z"/>
	<path class="st4" d="M1195.6,397.1h-79.3c-4.6,0-8.3-3.7-8.3-8.3c0-4.6,3.7-8.3,8.3-8.3h79.3c4.6,0,8.3,3.7,8.3,8.3
		C1203.9,393.4,1200.2,397.1,1195.6,397.1z"/>
	<path class="st4" d="M1195.6,430.3h-79.3c-4.6,0-8.3-3.7-8.3-8.3c0-4.6,3.7-8.3,8.3-8.3h79.3c4.6,0,8.3,3.7,8.3,8.3
		C1203.9,426.6,1200.2,430.3,1195.6,430.3z"/>
	<path class="st4" d="M1195.6,463.5h-79.3c-4.6,0-8.3-3.7-8.3-8.3c0-4.6,3.7-8.3,8.3-8.3h79.3c4.6,0,8.3,3.7,8.3,8.3
		C1203.9,459.8,1200.2,463.5,1195.6,463.5z"/>
	<path class="st2" d="M1363.5,81.6h-79.3c-4.6,0-8.3-3.7-8.3-8.3s3.7-8.3,8.3-8.3h79.3c4.6,0,8.3,3.7,8.3,8.3
		S1368.1,81.6,1363.5,81.6z"/>
	<path class="st2" d="M1363.5,114.8h-79.3c-4.6,0-8.3-3.7-8.3-8.3s3.7-8.3,8.3-8.3h79.3c4.6,0,8.3,3.7,8.3,8.3
		S1368.1,114.8,1363.5,114.8z"/>
	<path class="st2" d="M1363.5,148h-79.3c-4.6,0-8.3-3.7-8.3-8.3c0-4.6,3.7-8.3,8.3-8.3h79.3c4.6,0,8.3,3.7,8.3,8.3
		C1371.8,144.3,1368.1,148,1363.5,148z"/>
	<path class="st2" d="M1363.5,397.1h-79.3c-4.6,0-8.3-3.7-8.3-8.3c0-4.6,3.7-8.3,8.3-8.3h79.3c4.6,0,8.3,3.7,8.3,8.3
		C1371.8,393.4,1368.1,397.1,1363.5,397.1z"/>
	<path class="st2" d="M1363.5,430.3h-79.3c-4.6,0-8.3-3.7-8.3-8.3c0-4.6,3.7-8.3,8.3-8.3h79.3c4.6,0,8.3,3.7,8.3,8.3
		C1371.8,426.6,1368.1,430.3,1363.5,430.3z"/>
	<path class="st2" d="M1363.5,463.5h-79.3c-4.6,0-8.3-3.7-8.3-8.3c0-4.6,3.7-8.3,8.3-8.3h79.3c4.6,0,8.3,3.7,8.3,8.3
		C1371.8,459.8,1368.1,463.5,1363.5,463.5z"/>
	<path class="st4" d="M1531.4,81.6h-79.3c-4.6,0-8.3-3.7-8.3-8.3s3.7-8.3,8.3-8.3h79.3c4.6,0,8.3,3.7,8.3,8.3S1536,81.6,1531.4,81.6
		z"/>
	<path class="st4" d="M1531.4,114.8h-79.3c-4.6,0-8.3-3.7-8.3-8.3s3.7-8.3,8.3-8.3h79.3c4.6,0,8.3,3.7,8.3,8.3
		S1536,114.8,1531.4,114.8z"/>
	<path class="st4" d="M1531.4,148h-79.3c-4.6,0-8.3-3.7-8.3-8.3c0-4.6,3.7-8.3,8.3-8.3h79.3c4.6,0,8.3,3.7,8.3,8.3
		C1539.7,144.3,1536,148,1531.4,148z"/>
	<path class="st4" d="M1531.4,397.1h-79.3c-4.6,0-8.3-3.7-8.3-8.3c0-4.6,3.7-8.3,8.3-8.3h79.3c4.6,0,8.3,3.7,8.3,8.3
		C1539.7,393.4,1536,397.1,1531.4,397.1z"/>
	<path class="st4" d="M1531.4,430.3h-79.3c-4.6,0-8.3-3.7-8.3-8.3c0-4.6,3.7-8.3,8.3-8.3h79.3c4.6,0,8.3,3.7,8.3,8.3
		C1539.7,426.6,1536,430.3,1531.4,430.3z"/>
	<path class="st4" d="M1531.4,463.5h-79.3c-4.6,0-8.3-3.7-8.3-8.3c0-4.6,3.7-8.3,8.3-8.3h79.3c4.6,0,8.3,3.7,8.3,8.3
		C1539.7,459.8,1536,463.5,1531.4,463.5z"/>
	<path class="st4" d="M1132.9,247.6c9.2,0,16.6,7.4,16.6,16.6c0,9.2-7.4,16.6-16.6,16.6c-9.2,0-16.6-7.4-16.6-16.6
		C1116.3,255.1,1123.7,247.6,1132.9,247.6z"/>
</g>
<g>
	<path class="st1" d="M744.5,499.5v33.2c0,4.6,3.7,8.3,8.3,8.3c4.6,0,8.3-3.7,8.3-8.3v-44.3L744.5,499.5z"/>
	<path class="st2" d="M904.1,477.4v55.4c0,4.6,3.7,8.3,8.3,8.3s8.3-3.7,8.3-8.3v-55.4H904.1z"/>
	<path class="st2" d="M1072,477.4v55.4c0,4.6,3.7,8.3,8.3,8.3s8.3-3.7,8.3-8.3v-55.4H1072z"/>
	<path class="st1" d="M1231.6,488.4v44.3c0,4.6,3.7,8.3,8.3,8.3c4.6,0,8.3-3.7,8.3-8.3v-33.2L1231.6,488.4z"/>
	<polygon class="st3" points="744.5,29 744.5,499.5 912.4,499.5 934.6,264.2 912.4,29 	"/>
	<path class="st3" d="M1248.2,29v470.5h-167.9l-22.1-235.2L1080.3,29H1248.2z"/>
	<path class="st4" d="M1080.3,29v470.5H912.4V29H1080.3z"/>
	<path class="st3" d="M973.3,247.6c9.2,0,16.6,7.4,16.6,16.6c0,9.2-7.4,16.6-16.6,16.6c-9.2,0-16.6-7.4-16.6-16.6
		C956.7,255.1,964.1,247.6,973.3,247.6z"/>
	<path class="st4" d="M1141.2,247.6c9.2,0,16.6,7.4,16.6,16.6c0,9.2-7.4,16.6-16.6,16.6c-9.2,0-16.6-7.4-16.6-16.6
		C1124.6,255.1,1132,247.6,1141.2,247.6z"/>
	<path class="st4" d="M868.1,81.6h-79.3c-4.6,0-8.3-3.7-8.3-8.3s3.7-8.3,8.3-8.3h79.3c4.6,0,8.3,3.7,8.3,8.3S872.7,81.6,868.1,81.6z
		"/>
	<path class="st4" d="M868.1,114.8h-79.3c-4.6,0-8.3-3.7-8.3-8.3s3.7-8.3,8.3-8.3h79.3c4.6,0,8.3,3.7,8.3,8.3
		S872.7,114.8,868.1,114.8z"/>
	<path class="st4" d="M868.1,148h-79.3c-4.6,0-8.3-3.7-8.3-8.3c0-4.6,3.7-8.3,8.3-8.3h79.3c4.6,0,8.3,3.7,8.3,8.3
		C876.4,144.3,872.7,148,868.1,148z"/>
	<path class="st4" d="M868.1,397.1h-79.3c-4.6,0-8.3-3.7-8.3-8.3c0-4.6,3.7-8.3,8.3-8.3h79.3c4.6,0,8.3,3.7,8.3,8.3
		C876.4,393.4,872.7,397.1,868.1,397.1z"/>
	<path class="st4" d="M868.1,430.3h-79.3c-4.6,0-8.3-3.7-8.3-8.3c0-4.6,3.7-8.3,8.3-8.3h79.3c4.6,0,8.3,3.7,8.3,8.3
		C876.4,426.6,872.7,430.3,868.1,430.3z"/>
	<path class="st4" d="M868.1,463.5h-79.3c-4.6,0-8.3-3.7-8.3-8.3c0-4.6,3.7-8.3,8.3-8.3h79.3c4.6,0,8.3,3.7,8.3,8.3
		C876.4,459.8,872.7,463.5,868.1,463.5z"/>
	<path class="st2" d="M1036,81.6h-79.3c-4.6,0-8.3-3.7-8.3-8.3s3.7-8.3,8.3-8.3h79.3c4.6,0,8.3,3.7,8.3,8.3S1040.6,81.6,1036,81.6z"
		/>
	<path class="st2" d="M1036,114.8h-79.3c-4.6,0-8.3-3.7-8.3-8.3s3.7-8.3,8.3-8.3h79.3c4.6,0,8.3,3.7,8.3,8.3
		S1040.6,114.8,1036,114.8z"/>
	<path class="st2" d="M1036,148h-79.3c-4.6,0-8.3-3.7-8.3-8.3c0-4.6,3.7-8.3,8.3-8.3h79.3c4.6,0,8.3,3.7,8.3,8.3
		C1044.3,144.3,1040.6,148,1036,148z"/>
	<path class="st2" d="M1036,397.1h-79.3c-4.6,0-8.3-3.7-8.3-8.3c0-4.6,3.7-8.3,8.3-8.3h79.3c4.6,0,8.3,3.7,8.3,8.3
		C1044.3,393.4,1040.6,397.1,1036,397.1z"/>
	<path class="st2" d="M1036,430.3h-79.3c-4.6,0-8.3-3.7-8.3-8.3c0-4.6,3.7-8.3,8.3-8.3h79.3c4.6,0,8.3,3.7,8.3,8.3
		C1044.3,426.6,1040.6,430.3,1036,430.3z"/>
	<path class="st2" d="M1036,463.5h-79.3c-4.6,0-8.3-3.7-8.3-8.3c0-4.6,3.7-8.3,8.3-8.3h79.3c4.6,0,8.3,3.7,8.3,8.3
		C1044.3,459.8,1040.6,463.5,1036,463.5z"/>
	<path class="st4" d="M1203.9,81.6h-79.3c-4.6,0-8.3-3.7-8.3-8.3s3.7-8.3,8.3-8.3h79.3c4.6,0,8.3,3.7,8.3,8.3
		S1208.5,81.6,1203.9,81.6z"/>
	<path class="st4" d="M1203.9,114.8h-79.3c-4.6,0-8.3-3.7-8.3-8.3s3.7-8.3,8.3-8.3h79.3c4.6,0,8.3,3.7,8.3,8.3
		S1208.5,114.8,1203.9,114.8z"/>
	<path class="st4" d="M1203.9,148h-79.3c-4.6,0-8.3-3.7-8.3-8.3c0-4.6,3.7-8.3,8.3-8.3h79.3c4.6,0,8.3,3.7,8.3,8.3
		C1212.2,144.3,1208.5,148,1203.9,148z"/>
	<path class="st4" d="M1203.9,397.1h-79.3c-4.6,0-8.3-3.7-8.3-8.3c0-4.6,3.7-8.3,8.3-8.3h79.3c4.6,0,8.3,3.7,8.3,8.3
		C1212.2,393.4,1208.5,397.1,1203.9,397.1z"/>
	<path class="st4" d="M1203.9,430.3h-79.3c-4.6,0-8.3-3.7-8.3-8.3c0-4.6,3.7-8.3,8.3-8.3h79.3c4.6,0,8.3,3.7,8.3,8.3
		C1212.2,426.6,1208.5,430.3,1203.9,430.3z"/>
	<path class="st4" d="M1203.9,463.5h-79.3c-4.6,0-8.3-3.7-8.3-8.3c0-4.6,3.7-8.3,8.3-8.3h79.3c4.6,0,8.3,3.7,8.3,8.3
		C1212.2,459.8,1208.5,463.5,1203.9,463.5z"/>
	<path class="st4" d="M805.4,247.6c9.2,0,16.6,7.4,16.6,16.6c0,9.2-7.4,16.6-16.6,16.6c-9.2,0-16.6-7.4-16.6-16.6
		C788.8,255.1,796.2,247.6,805.4,247.6z"/>
</g>
<g>
	<path class="st1" d="M90.4,499.5v33.2c0,4.6,3.7,8.3,8.3,8.3c4.6,0,8.3-3.7,8.3-8.3v-44.3L90.4,499.5z"/>
	<path class="st2" d="M250,477.4v55.4c0,4.6,3.7,8.3,8.3,8.3c4.6,0,8.3-3.7,8.3-8.3v-55.4H250z"/>
	<path class="st2" d="M417.9,477.4v55.4c0,4.6,3.7,8.3,8.3,8.3s8.3-3.7,8.3-8.3v-55.4H417.9z"/>
	<path class="st1" d="M577.5,488.4v44.3c0,4.6,3.7,8.3,8.3,8.3s8.3-3.7,8.3-8.3v-33.2L577.5,488.4z"/>
	<polygon class="st3" points="90.4,29 90.4,499.5 258.3,499.5 280.4,264.2 258.3,29 	"/>
	<path class="st3" d="M594.1,29v470.5H426.2L404,264.2L426.2,29H594.1z"/>
	<path class="st4" d="M426.2,29v470.5H258.3V29H426.2z"/>
	<path class="st3" d="M319.2,247.6c9.2,0,16.6,7.4,16.6,16.6c0,9.2-7.4,16.6-16.6,16.6c-9.2,0-16.6-7.4-16.6-16.6
		C302.5,255.1,310,247.6,319.2,247.6z"/>
	<path class="st4" d="M487.1,247.6c9.2,0,16.6,7.4,16.6,16.6c0,9.2-7.4,16.6-16.6,16.6c-9.2,0-16.6-7.4-16.6-16.6
		C470.4,255.1,477.9,247.6,487.1,247.6z"/>
	<path class="st4" d="M214,81.6h-79.3c-4.6,0-8.3-3.7-8.3-8.3s3.7-8.3,8.3-8.3H214c4.6,0,8.3,3.7,8.3,8.3S218.6,81.6,214,81.6z"/>
	<path class="st4" d="M214,114.8h-79.3c-4.6,0-8.3-3.7-8.3-8.3s3.7-8.3,8.3-8.3H214c4.6,0,8.3,3.7,8.3,8.3S218.6,114.8,214,114.8z"
		/>
	<path class="st4" d="M214,148h-79.3c-4.6,0-8.3-3.7-8.3-8.3c0-4.6,3.7-8.3,8.3-8.3H214c4.6,0,8.3,3.7,8.3,8.3
		C222.3,144.3,218.6,148,214,148z"/>
	<path class="st4" d="M214,397.1h-79.3c-4.6,0-8.3-3.7-8.3-8.3c0-4.6,3.7-8.3,8.3-8.3H214c4.6,0,8.3,3.7,8.3,8.3
		C222.3,393.4,218.6,397.1,214,397.1z"/>
	<path class="st4" d="M214,430.3h-79.3c-4.6,0-8.3-3.7-8.3-8.3c0-4.6,3.7-8.3,8.3-8.3H214c4.6,0,8.3,3.7,8.3,8.3
		C222.3,426.6,218.6,430.3,214,430.3z"/>
	<path class="st4" d="M214,463.5h-79.3c-4.6,0-8.3-3.7-8.3-8.3c0-4.6,3.7-8.3,8.3-8.3H214c4.6,0,8.3,3.7,8.3,8.3
		C222.3,459.8,218.6,463.5,214,463.5z"/>
	<path class="st2" d="M381.9,81.6h-79.3c-4.6,0-8.3-3.7-8.3-8.3s3.7-8.3,8.3-8.3h79.3c4.6,0,8.3,3.7,8.3,8.3S386.5,81.6,381.9,81.6z
		"/>
	<path class="st2" d="M381.9,114.8h-79.3c-4.6,0-8.3-3.7-8.3-8.3s3.7-8.3,8.3-8.3h79.3c4.6,0,8.3,3.7,8.3,8.3
		S386.5,114.8,381.9,114.8z"/>
	<path class="st2" d="M381.9,148h-79.3c-4.6,0-8.3-3.7-8.3-8.3c0-4.6,3.7-8.3,8.3-8.3h79.3c4.6,0,8.3,3.7,8.3,8.3
		C390.2,144.3,386.5,148,381.9,148z"/>
	<path class="st2" d="M381.9,397.1h-79.3c-4.6,0-8.3-3.7-8.3-8.3c0-4.6,3.7-8.3,8.3-8.3h79.3c4.6,0,8.3,3.7,8.3,8.3
		C390.2,393.4,386.5,397.1,381.9,397.1z"/>
	<path class="st2" d="M381.9,430.3h-79.3c-4.6,0-8.3-3.7-8.3-8.3c0-4.6,3.7-8.3,8.3-8.3h79.3c4.6,0,8.3,3.7,8.3,8.3
		C390.2,426.6,386.5,430.3,381.9,430.3z"/>
	<path class="st2" d="M381.9,463.5h-79.3c-4.6,0-8.3-3.7-8.3-8.3c0-4.6,3.7-8.3,8.3-8.3h79.3c4.6,0,8.3,3.7,8.3,8.3
		C390.2,459.8,386.5,463.5,381.9,463.5z"/>
	<path class="st4" d="M549.8,81.6h-79.3c-4.6,0-8.3-3.7-8.3-8.3s3.7-8.3,8.3-8.3h79.3c4.6,0,8.3,3.7,8.3,8.3S554.4,81.6,549.8,81.6z
		"/>
	<path class="st4" d="M549.8,114.8h-79.3c-4.6,0-8.3-3.7-8.3-8.3s3.7-8.3,8.3-8.3h79.3c4.6,0,8.3,3.7,8.3,8.3
		S554.4,114.8,549.8,114.8z"/>
	<path class="st4" d="M549.8,148h-79.3c-4.6,0-8.3-3.7-8.3-8.3c0-4.6,3.7-8.3,8.3-8.3h79.3c4.6,0,8.3,3.7,8.3,8.3
		C558.1,144.3,554.4,148,549.8,148z"/>
	<path class="st4" d="M549.8,397.1h-79.3c-4.6,0-8.3-3.7-8.3-8.3c0-4.6,3.7-8.3,8.3-8.3h79.3c4.6,0,8.3,3.7,8.3,8.3
		C558.1,393.4,554.4,397.1,549.8,397.1z"/>
	<path class="st4" d="M549.8,430.3h-79.3c-4.6,0-8.3-3.7-8.3-8.3c0-4.6,3.7-8.3,8.3-8.3h79.3c4.6,0,8.3,3.7,8.3,8.3
		C558.1,426.6,554.4,430.3,549.8,430.3z"/>
	<path class="st4" d="M549.8,463.5h-79.3c-4.6,0-8.3-3.7-8.3-8.3c0-4.6,3.7-8.3,8.3-8.3h79.3c4.6,0,8.3,3.7,8.3,8.3
		C558.1,459.8,554.4,463.5,549.8,463.5z"/>
	<path class="st4" d="M151.3,247.6c9.2,0,16.6,7.4,16.6,16.6c0,9.2-7.4,16.6-16.6,16.6c-9.2,0-16.6-7.4-16.6-16.6
		C134.7,255.1,142.1,247.6,151.3,247.6z"/>
</g>
<g>
	<path class="st1" d="M417,499.5v33.2c0,4.6,3.7,8.3,8.3,8.3c4.6,0,8.3-3.7,8.3-8.3v-44.3L417,499.5z"/>
	<path class="st2" d="M576.6,477.4v55.4c0,4.6,3.7,8.3,8.3,8.3c4.6,0,8.3-3.7,8.3-8.3v-55.4H576.6z"/>
	<path class="st2" d="M744.5,477.4v55.4c0,4.6,3.7,8.3,8.3,8.3s8.3-3.7,8.3-8.3v-55.4H744.5z"/>
	<path class="st1" d="M904.1,488.4v44.3c0,4.6,3.7,8.3,8.3,8.3s8.3-3.7,8.3-8.3v-33.2L904.1,488.4z"/>
	<polygon class="st3" points="417,29 417,499.5 584.9,499.5 607.1,264.2 584.9,29 	"/>
	<path class="st3" d="M920.7,29v470.5H752.8l-22.1-235.2L752.8,29H920.7z"/>
	<path class="st4" d="M752.8,29v470.5H584.9V29H752.8z"/>
	<path class="st3" d="M645.8,247.6c9.2,0,16.6,7.4,16.6,16.6c0,9.2-7.4,16.6-16.6,16.6c-9.2,0-16.6-7.4-16.6-16.6
		C629.2,255.1,636.6,247.6,645.8,247.6z"/>
	<path class="st4" d="M813.7,247.6c9.2,0,16.6,7.4,16.6,16.6c0,9.2-7.4,16.6-16.6,16.6c-9.2,0-16.6-7.4-16.6-16.6
		C797.1,255.1,804.5,247.6,813.7,247.6z"/>
	<path class="st4" d="M540.6,81.6h-79.3c-4.6,0-8.3-3.7-8.3-8.3s3.7-8.3,8.3-8.3h79.3c4.6,0,8.3,3.7,8.3,8.3S545.2,81.6,540.6,81.6z
		"/>
	<path class="st4" d="M540.6,114.8h-79.3c-4.6,0-8.3-3.7-8.3-8.3s3.7-8.3,8.3-8.3h79.3c4.6,0,8.3,3.7,8.3,8.3
		S545.2,114.8,540.6,114.8z"/>
	<path class="st4" d="M540.6,148h-79.3c-4.6,0-8.3-3.7-8.3-8.3c0-4.6,3.7-8.3,8.3-8.3h79.3c4.6,0,8.3,3.7,8.3,8.3
		C548.9,144.3,545.2,148,540.6,148z"/>
	<path class="st4" d="M540.6,397.1h-79.3c-4.6,0-8.3-3.7-8.3-8.3c0-4.6,3.7-8.3,8.3-8.3h79.3c4.6,0,8.3,3.7,8.3,8.3
		C548.9,393.4,545.2,397.1,540.6,397.1z"/>
	<path class="st4" d="M540.6,430.3h-79.3c-4.6,0-8.3-3.7-8.3-8.3c0-4.6,3.7-8.3,8.3-8.3h79.3c4.6,0,8.3,3.7,8.3,8.3
		C548.9,426.6,545.2,430.3,540.6,430.3z"/>
	<path class="st4" d="M540.6,463.5h-79.3c-4.6,0-8.3-3.7-8.3-8.3c0-4.6,3.7-8.3,8.3-8.3h79.3c4.6,0,8.3,3.7,8.3,8.3
		C548.9,459.8,545.2,463.5,540.6,463.5z"/>
	<path class="st2" d="M708.5,81.6h-79.3c-4.6,0-8.3-3.7-8.3-8.3s3.7-8.3,8.3-8.3h79.3c4.6,0,8.3,3.7,8.3,8.3S713.1,81.6,708.5,81.6z
		"/>
	<path class="st2" d="M708.5,114.8h-79.3c-4.6,0-8.3-3.7-8.3-8.3s3.7-8.3,8.3-8.3h79.3c4.6,0,8.3,3.7,8.3,8.3
		S713.1,114.8,708.5,114.8z"/>
	<path class="st2" d="M708.5,148h-79.3c-4.6,0-8.3-3.7-8.3-8.3c0-4.6,3.7-8.3,8.3-8.3h79.3c4.6,0,8.3,3.7,8.3,8.3
		C716.8,144.3,713.1,148,708.5,148z"/>
	<path class="st2" d="M708.5,397.1h-79.3c-4.6,0-8.3-3.7-8.3-8.3c0-4.6,3.7-8.3,8.3-8.3h79.3c4.6,0,8.3,3.7,8.3,8.3
		C716.8,393.4,713.1,397.1,708.5,397.1z"/>
	<path class="st2" d="M708.5,430.3h-79.3c-4.6,0-8.3-3.7-8.3-8.3c0-4.6,3.7-8.3,8.3-8.3h79.3c4.6,0,8.3,3.7,8.3,8.3
		C716.8,426.6,713.1,430.3,708.5,430.3z"/>
	<path class="st2" d="M708.5,463.5h-79.3c-4.6,0-8.3-3.7-8.3-8.3c0-4.6,3.7-8.3,8.3-8.3h79.3c4.6,0,8.3,3.7,8.3,8.3
		C716.8,459.8,713.1,463.5,708.5,463.5z"/>
	<path class="st4" d="M876.4,81.6h-79.3c-4.6,0-8.3-3.7-8.3-8.3s3.7-8.3,8.3-8.3h79.3c4.6,0,8.3,3.7,8.3,8.3S881,81.6,876.4,81.6z"
		/>
	<path class="st4" d="M876.4,114.8h-79.3c-4.6,0-8.3-3.7-8.3-8.3s3.7-8.3,8.3-8.3h79.3c4.6,0,8.3,3.7,8.3,8.3S881,114.8,876.4,114.8
		z"/>
	<path class="st4" d="M876.4,148h-79.3c-4.6,0-8.3-3.7-8.3-8.3c0-4.6,3.7-8.3,8.3-8.3h79.3c4.6,0,8.3,3.7,8.3,8.3
		C884.7,144.3,881,148,876.4,148z"/>
	<path class="st4" d="M876.4,397.1h-79.3c-4.6,0-8.3-3.7-8.3-8.3c0-4.6,3.7-8.3,8.3-8.3h79.3c4.6,0,8.3,3.7,8.3,8.3
		C884.7,393.4,881,397.1,876.4,397.1z"/>
	<path class="st4" d="M876.4,430.3h-79.3c-4.6,0-8.3-3.7-8.3-8.3c0-4.6,3.7-8.3,8.3-8.3h79.3c4.6,0,8.3,3.7,8.3,8.3
		C884.7,426.6,881,430.3,876.4,430.3z"/>
	<path class="st4" d="M876.4,463.5h-79.3c-4.6,0-8.3-3.7-8.3-8.3c0-4.6,3.7-8.3,8.3-8.3h79.3c4.6,0,8.3,3.7,8.3,8.3
		C884.7,459.8,881,463.5,876.4,463.5z"/>
	<path class="st4" d="M477.9,247.6c9.2,0,16.6,7.4,16.6,16.6c0,9.2-7.4,16.6-16.6,16.6c-9.2,0-16.6-7.4-16.6-16.6
		C461.3,255.1,468.7,247.6,477.9,247.6z"/>
</g>
<path class="st5" d="M2243.4,302.4h-26.1c-4.8,0-8.7-6.2-8.7-13.7l0,0c0-7.6,3.9-13.7,8.7-13.7h26.1V302.4z"/>
<g>
	<rect x="2068.3" y="27.5" class="st6" width="185.7" height="494.8"/>
	<polygon class="st7" points="2068.3,522.3 2050.9,522.3 2050.9,0 2068.3,27.5 	"/>
	<polygon class="st7" points="2254,522.3 2271.4,522.3 2271.4,0 2254,27.5 	"/>
	<polygon class="st8" points="2254,27.5 2068.3,27.5 2050.9,0 2271.4,0 	"/>
	<path class="st9" d="M2201.8,260.6v14.3h11.6v27.5h-11.6v14.3c0,7.3,3.7,13.2,8.4,13.2h12.3c4.6,0,8.4-5.9,8.4-13.2v-56
		c0-7.3-3.7-13.2-8.4-13.2h-12.3C2205.5,247.4,2201.8,253.3,2201.8,260.6z"/>
</g>
</svg>
