<?xml version="1.0" encoding="utf-8"?>
<!-- Generator: Adobe Illustrator 20.1.0, SVG Export Plug-In . SVG Version: 6.00 Build 0)  -->
<svg version="1.1" id="Camada_1" xmlns="http://www.w3.org/2000/svg" xmlns:xlink="http://www.w3.org/1999/xlink" x="0px" y="0px"
	 viewBox="0 0 383.9 135.7" style="enable-background:new 0 0 383.9 135.7;" xml:space="preserve">
<style type="text/css">
	.st0{fill:#362D4F;}
	.st1{fill:#392F70;}
	.st2{fill:#334082;}
	.st3{fill:#C1D6E7;}
	.st4{opacity:0.5;enable-background:new    ;}
	.st5{fill:#7FABDA;}
	.st6{fill:#199173;}
	.st7{fill:#E30613;}
	.st8{opacity:0.4;enable-background:new    ;}
	.st9{fill:#1D1D1B;}
	.st10{opacity:0.7;}
	.st11{fill:#327D33;}
	.st12{fill:#1E1E1C;}
	.st13{fill:#274695;}
	.st14{fill:#3F5CA7;}
	.st15{fill:#5C84C3;}
	.st16{fill:#CDCCCC;}
	.st17{fill:#343434;}
	.st18{fill:#FFFFFF;}
	.st19{fill:#72190D;}
	.st20{fill:#558BBF;}
	.st21{fill:#15253C;}
	.st22{fill:#F8BDA1;}
	.st23{fill:#E29072;}
	.st24{fill:#FACCBA;}
	.st25{fill:#0B547B;}
	.st26{fill:#D6D7D7;}
	.st27{fill:#BE1622;}
	.st28{fill:#39454F;}
	.st29{fill:#E8EDEE;}
	.st30{fill:#B1B6BC;}
	.st31{fill:#28AF88;}
	.st32{fill:#DC691D;}
	.st33{fill:#EDBA1A;}
	.st34{fill:#EDEEF0;}
	.st35{fill:#00ACD0;}
	.st36{opacity:0.3;enable-background:new    ;}
	.st37{fill:#5C5C60;}
	.st38{fill:#A32916;}
	.st39{fill:#A84794;}
	.st40{fill:#3267B0;}
	.st41{fill:#2F204F;}
	.st42{fill:#D01041;}
	.st43{fill:#FFDE00;}
	.st44{opacity:0.6;enable-background:new    ;}
	.st45{fill:#7A3444;}
	.st46{fill:#D6BF32;}
	.st47{clip-path:url(#SVGID_2_);}
</style>
<title>Ativo 11 1</title>
<g id="Camada_2">
	<g id="fundo">
		<g>
			<rect x="0.3" y="0.2" class="st0" width="384" height="135.5"/>
		</g>
		<g>
			<rect x="25.7" y="16.8" class="st1" width="202.9" height="62.5"/>
			<path class="st2" d="M230.6,81.3H23.7V14.8h206.9L230.6,81.3L230.6,81.3z M27.7,77.3h198.9V18.8H27.7V77.3z"/>
		</g>
		<g>
			<rect x="36.2" y="23.3" class="st3" width="19.7" height="24.7"/>
		</g>
		<g class="st4">
			<circle class="st5" cx="49.4" cy="32" r="5.5"/>
		</g>
		<g class="st4">
			<path class="st6" d="M52.2,27.3L52.2,27.3c-1.8-1.1-4.1-1.1-5.9,0.2v0.1c0.4,0.8,0.9,2.2,1.7,2.5c0.4,0.1,0.8,0.1,1.2,0.3
				c0.1,0,0.1,0.1,0.1,0.1c0.2,0.3,0.1,0.7,0.3,0.8c0.2,0.1,0.2,0.2,0.2,0.4c-0.2,0.7,0,1.5,0.6,1.9c0.4,0.4,0.1,1.2-0.3,1.8
				c-0.1,0.1,0,0.3,0.1,0.4c0.1,0,0.2,0,0.2,0c0.4-0.2,0.8-0.4,1.1-0.7c0.5-0.5,0.7-1,1.2-1.4l0,0c0.1-0.4,0.6-1.3,0.1-1.5
				c-0.4-0.2-0.6-0.8-1-1.2c0,0-0.1-0.1-0.2-0.1c-0.5-0.1-0.7-0.4-1-0.2c-0.2,0.1-0.4,0.1-0.5,0c0-0.1-0.1-0.1-0.1-0.2
				s-0.1-0.2-0.3-0.2c-0.1,0-0.2-0.2-0.2-0.3l0,0l0,0c0.1-0.2-0.3-0.1-0.5-0.1s0.1-0.2,0.1-0.2c-0.2,0.1-0.5-0.1-0.5-0.4
				s0.1-0.3,0.5-0.3c0.5-0.2,0.7-0.1,0.7,0.5c0.3,0,0.4-0.1,0.3-0.4c0-0.1,0-0.2,0-0.3C50.7,28,51.4,27.6,52.2,27.3z"/>
		</g>
		<g>
			<path class="st7" d="M51.3,32.4L51.3,32.4l-1.2-0.7c-0.1,0-0.1-0.1,0-0.2c0-0.1,0.1-0.1,0.2,0l1.1,0.7
				C51.5,32.2,51.5,32.3,51.3,32.4C51.4,32.4,51.3,32.4,51.3,32.4z"/>
		</g>
		<g>
			<path class="st7" d="M50.3,32.5C50.3,32.5,50.2,32.5,50.3,32.5c-0.1-0.1-0.1-0.2-0.1-0.2l0.8-0.9c0-0.1,0.1-0.1,0.2,0
				c0.1,0,0.1,0.1,0,0.2L50.3,32.5C50.4,32.5,50.3,32.5,50.3,32.5z"/>
		</g>
		<g class="st8">
			<rect x="37.7" y="30.5" class="st9" width="5.5" height="0.5"/>
		</g>
		<g class="st8">
			<rect x="37.7" y="25.3" class="st9" width="16.6" height="1"/>
		</g>
		<g class="st8">
			<rect x="37.7" y="31.7" class="st9" width="5.5" height="0.5"/>
		</g>
		<g class="st8">
			<rect x="37.7" y="33" class="st9" width="5.5" height="0.5"/>
		</g>
		<g class="st8">
			<rect x="37.7" y="34.3" class="st9" width="5.5" height="0.5"/>
		</g>
		<g class="st8">
			<rect x="37.7" y="35.8" class="st9" width="5.5" height="0.5"/>
		</g>
		<g class="st8">
			<rect x="37.7" y="37.1" class="st9" width="5.5" height="0.5"/>
		</g>
		<g class="st8">
			<rect x="37.7" y="39.1" class="st9" width="15.8" height="0.5"/>
		</g>
		<g class="st8">
			<rect x="37.7" y="40.5" class="st9" width="15.8" height="0.5"/>
		</g>
		<g class="st8">
			<rect x="37.7" y="41.8" class="st9" width="15.8" height="0.5"/>
		</g>
		<g class="st8">
			<rect x="37.7" y="43.2" class="st9" width="15.8" height="0.5"/>
		</g>
		<g class="st8">
			<rect x="37.7" y="44.6" class="st9" width="15.8" height="0.5"/>
		</g>
		<g class="st8">
			<rect x="37.7" y="46.1" class="st9" width="15.7" height="0.5"/>
		</g>
		<g class="st10">
			<g>
				<rect x="46.8" y="54.4" class="st11" width="21.9" height="17.4"/>
			</g>
			<g>
				<path class="st12" d="M69.5,58.7V55c0-0.7-0.6-1.3-1.3-1.3l0,0H51.5c-0.1-0.2-0.3-0.4-0.5-0.5c-0.7-0.7-1.6-1-2.6-1
					c-2,0-3.6,1.7-3.6,3.7c0,0.6,0.1,1.1,0.4,1.6l0.9,1.5v12.1c0,0.7,0.6,1.3,1.3,1.3h20.7c0.7,0,1.3-0.6,1.3-1.3v-7l0.6-1
					c0.3-0.5,0.4-1.1,0.4-1.7C70.5,60.3,70.2,59.4,69.5,58.7z M65.9,54.7l-2.6,2.6l-2.5-2.6H65.9z M62.6,58l-4.5,4.5l-1.6-1.6l0,0
					l-1.2-1.2l4.5-4.5L62.6,58z M53.7,64.3l2.5-2.5l3.2,3.2l-2.5,2.5L53.7,64.3z M54.3,66.3L51.5,69l-2.2-2.2l2.8-2.8L54.3,66.3z
					 M51.8,57.3c0.4-0.8,0.5-1.8,0.3-2.6h6.7l-4.2,4.2l-1.5-1.5c-0.2-0.2-0.5-0.2-0.7,0s-0.2,0.5,0,0.7l0,0l3.1,3.1L53,63.6l-2-2
					c-0.2-0.2-0.5-0.2-0.7,0s-0.2,0.5,0,0.7l0,0l1.1,1.1l-4.2,4.2v-6.9l0.4,0.6c0.3,0.5,1,0.7,1.5,0.4c0.1-0.1,0.3-0.2,0.4-0.4
					L51.8,57.3z M47.5,71.2c-0.1,0-0.3-0.1-0.3-0.3l0,0v-2l1.4-1.4l3.7,3.7L47.5,71.2z M53.7,71.2l-1.5-1.5l2.8-2.8l4.2,4.2h-5.5
					V71.2z M57.5,68.2l2.5-2.5l1.8,1.8L59.3,70L57.5,68.2z M60.5,71.2L60,70.6l2.5-2.5l3,3L60.5,71.2z M68.2,71.2h-1.3l-3.7-3.7
					l1.1-1.1c0.2-0.2,0.2-0.5,0-0.7s-0.5-0.2-0.7,0l-1.1,1.1l-2.1-2.2l0,0l-1.5-1.5l1.8-1.8l0.9,0.9c0.2,0.2,0.5,0.2,0.8,0
					s0.2-0.5,0-0.8l0,0l-0.9-0.9l5.8-5.8h1c0.1,0,0.3,0.1,0.3,0.3l0,0v3c-0.5-0.2-1-0.4-1.6-0.3c-2,0-3.6,1.7-3.6,3.7
					c0,0.6,0.1,1.1,0.4,1.6l2.3,3.9c0.3,0.5,1,0.7,1.5,0.4c0.1-0.1,0.3-0.2,0.4-0.4l0.6-1.1V71l0,0C68.5,71.1,68.4,71.2,68.2,71.2
					L68.2,71.2L68.2,71.2z M69.2,62.4l-0.7,1.1l0,0l-1.6,2.7l-2.3-3.8c-0.2-0.4-0.3-0.8-0.3-1.2c0-1.4,1.1-2.5,2.5-2.5
					s2.6,1.1,2.6,2.5C69.4,61.6,69.3,62,69.2,62.4z"/>
			</g>
			<g>
				<path class="st13" d="M70.4,60.3c0.2,0.9,0.2,1.8-0.3,2.6l-2.3,3.9c-0.3,0.5-1,0.7-1.5,0.4c-0.1-0.1-0.3-0.2-0.4-0.4l-0.4-0.6"
					/>
			</g>
			<g>
				<path class="st13" d="M69.9,59.2c-0.1-0.2-0.3-0.4-0.4-0.5c-0.7-0.7-1.6-1-2.6-1c-2,0-3.6,1.7-3.6,3.7c0,0.6,0.1,1.1,0.4,1.6
					l0.9,1.5 M64.6,64.4l1.4,2.4c0.3,0.5,1,0.7,1.5,0.4c0.1-0.1,0.3-0.2,0.4-0.4l2.3-3.9c0.3-0.5,0.4-1.1,0.4-1.7
					c0-0.7-0.2-1.4-0.6-2"/>
			</g>
			<g>
				<path class="st13" d="M52,54.7c0.2,0.9,0.1,1.8-0.3,2.6l-2.3,3.9c-0.3,0.5-1,0.7-1.5,0.4c-0.1-0.1-0.3-0.2-0.4-0.4l-0.4-0.6"/>
			</g>
			<g>
				<path class="st13" d="M51.5,53.6c-0.1-0.2-0.3-0.4-0.5-0.5c-0.7-0.7-1.6-1-2.6-1c-2,0-3.6,1.7-3.6,3.7c0,0.6,0.1,1.1,0.4,1.6
					l0.9,1.5 M46.2,58.8l1.5,2.4c0.3,0.5,1,0.7,1.5,0.4c0.1-0.1,0.3-0.2,0.4-0.4l2.3-3.9c0.3-0.5,0.4-1.1,0.4-1.7
					c0-0.7-0.2-1.4-0.6-2"/>
			</g>
			<g>
				<path class="st12" d="M48.5,54.4c-0.8,0-1.5,0.7-1.5,1.5s0.7,1.5,1.5,1.5s1.5-0.7,1.5-1.5l0,0C50,55.1,49.4,54.4,48.5,54.4z
					 M48.5,56.3c-0.2,0-0.4-0.2-0.4-0.4s0.2-0.4,0.4-0.4s0.4,0.2,0.4,0.4l0,0C49,56.2,48.8,56.3,48.5,56.3z"/>
			</g>
			<g>
				<path class="st12" d="M66.9,60c-0.8,0-1.5,0.7-1.5,1.5s0.7,1.5,1.5,1.5s1.5-0.7,1.5-1.5S67.7,60,66.9,60L66.9,60z M66.9,61.9
					c-0.2,0-0.4-0.2-0.4-0.4s0.2-0.4,0.4-0.4c0.2,0,0.4,0.2,0.4,0.4l0,0C67.3,61.7,67.1,61.9,66.9,61.9z"/>
			</g>
		</g>
		<g>
			<rect x="100" y="29.8" class="st14" width="8.9" height="8.9"/>
		</g>
		<g>
			<rect x="100" y="25.9" class="st15" width="17.9" height="2.3"/>
		</g>
		<g>
			<polygon class="st16" points="119.3,35.6 114.7,40.2 114.7,38.1 114.7,36.2 114.7,35.6 			"/>
		</g>
		<g>
			<path class="st16" d="M114.7,38.1v2.1H98.6v-18l1.5,1.1l1.5-1.1l1.5,1.1l1.5-1.1l1.5,1.1l1.5-1.1l1.5,1.1l1.5-1.1l1.5,1.1
				l1.5-1.1l1.5,1.1l1.5-1.1l1.5,1.1l1.5-1.1v13.4H115L114.7,38.1L114.7,38.1z M117.9,28.2v-2.3H100v2.3H117.9z M108.9,38.7v-8.9
				H100v8.9H108.9z"/>
		</g>
		<g class="st10">
			<g>
				<path class="st17" d="M119.5,21.9c-0.1-0.1-0.3-0.1-0.4,0l-1.2,1l-1.2-1c-0.1-0.1-0.3-0.1-0.5,0l-1.2,1l-1.2-1
					c-0.1-0.1-0.3-0.1-0.5,0l-1.2,1l-1.2-1c-0.1-0.1-0.3-0.1-0.5,0l-1.2,1l-1.2-1c-0.1-0.1-0.3-0.1-0.5,0l-1.2,1l-1.2-1
					c-0.1-0.1-0.3-0.1-0.5,0l-1.2,1l-1.2-1c-0.1-0.1-0.3-0.1-0.5,0l-1.2,1l-1.2-1c-0.2-0.1-0.4-0.1-0.6,0.1c0,0.1-0.1,0.1-0.1,0.2
					v18c0,0.2,0.2,0.4,0.4,0.4l0,0h16.1c0.1,0,0.2,0,0.3-0.1l4.6-4.6c0.1-0.1,0.1-0.1,0.1-0.2V22.3C119.7,22.1,119.6,22,119.5,21.9z
					 M99,23.1l0.8,0.6c0.1,0.1,0.3,0.1,0.5,0l1.2-1l1.2,1c0.1,0.1,0.3,0.1,0.5,0l1.2-1l1.2,1c0.1,0.1,0.3,0.1,0.5,0l1.2-1l1.2,1
					c0.1,0.1,0.3,0.1,0.5,0l1.2-1l1.2,1c0.1,0.1,0.3,0.1,0.5,0l1.2-1l1.2,1c0.1,0.1,0.3,0.1,0.5,0l1.2-1l1.2,1
					c0.1,0.1,0.3,0.1,0.5,0l0.8-0.6v12.1h-4.2c-0.2,0-0.4,0.2-0.4,0.4l0,0v0.2h-3.5c-0.2,0-0.4,0.2-0.3,0.5c0,0.2,0.2,0.3,0.3,0.3
					h3.6v1.1h-3.6c-0.2,0-0.4,0.2-0.3,0.5c0,0.2,0.2,0.3,0.3,0.3h3.6v1.3H98.9L99,23.1z M115.1,36h3.3l-3.3,3.3V36z"/>
			</g>
			<g>
				<path class="st17" d="M108.9,29.4H100c-0.2,0-0.4,0.2-0.4,0.4l0,0v8.9c0,0.2,0.2,0.4,0.4,0.4l0,0h8.9c0.2,0,0.4-0.2,0.4-0.4l0,0
					v-8.9C109.3,29.5,109.1,29.4,108.9,29.4z M108.5,38.3h-8.1v-8.1h8.1V38.3z"/>
			</g>
			<g>
				<path class="st17" d="M100,28.6h17.9c0.2,0,0.4-0.2,0.4-0.4v-2.4c0-0.2-0.2-0.4-0.4-0.4H100c-0.2,0-0.4,0.2-0.4,0.4l0,0v2.3
					C99.6,28.4,99.8,28.6,100,28.6L100,28.6z M100.4,26.3h17.1v1.5h-17.1V26.3z"/>
			</g>
			<g>
				<path class="st17" d="M117.9,30.1h-7.1c-0.2,0-0.4,0.2-0.3,0.5c0,0.2,0.2,0.3,0.3,0.3h7.1c0.2,0,0.4-0.2,0.3-0.5
					C118.2,30.2,118.1,30.1,117.9,30.1L117.9,30.1z"/>
			</g>
			<g>
				<path class="st17" d="M117.9,32h-7.1c-0.2,0-0.4,0.2-0.3,0.5c0,0.2,0.2,0.3,0.3,0.3h7.1c0.2,0,0.4-0.2,0.3-0.5
					C118.2,32.1,118.1,32,117.9,32L117.9,32z"/>
			</g>
			<g>
				<path class="st17" d="M117.9,33.9h-7.1c-0.2,0-0.4,0.2-0.3,0.5c0,0.2,0.2,0.3,0.3,0.3h7.1c0.2,0,0.4-0.2,0.3-0.5
					C118.2,34.1,118.1,33.9,117.9,33.9L117.9,33.9z"/>
			</g>
		</g>
		<g>
			<path class="st18" d="M104.5,36.8c1.4,0,2.6-1.2,2.6-2.6c0-0.2-0.2-0.4-0.4-0.4l0,0h-2.2c-0.2,0-0.4,0.1-0.5,0.3
				c0,0.2,0.1,0.4,0.3,0.5h0.1h1.8c-0.2,1-1.2,1.6-2.1,1.4c-1-0.2-1.6-1.2-1.4-2.1c0.2-1,1.2-1.6,2.1-1.4c0.3,0.1,0.6,0.2,0.9,0.5
				c0.2,0.1,0.4,0.1,0.6-0.1c0.1-0.1,0.1-0.3,0-0.5c-1-1-2.6-1-3.6,0s-1,2.6,0,3.6C103.1,36.5,103.8,36.8,104.5,36.8L104.5,36.8z"/>
		</g>
		<g>
			<rect x="134.2" y="44" class="st19" width="8.9" height="8.9"/>
		</g>
		<g>
			<rect x="125.3" y="54.5" class="st19" width="17.9" height="2.3"/>
		</g>
		<g>
			<polygon class="st16" points="123.8,47.1 128.5,42.4 128.5,44.5 128.5,46.5 128.5,47.1 			"/>
		</g>
		<g>
			<path class="st16" d="M128.5,44.6v-2.1h16.1v18l-1.5-1.1l-1.5,1.1l-1.5-1.1l-1.5,1.1l-1.5-1.1l-1.5,1.1l-1.5-1.1l-1.5,1.1
				l-1.5-1.1l-1.5,1.1l-1.5-1.1l-1.5,1.1l-1.5-1.1l-1.5,1.1V47.1h4.6L128.5,44.6L128.5,44.6z M125.3,54.5v2.3h17.9v-2.3H125.3z
				 M134.2,44v8.9h8.9V44H134.2z"/>
		</g>
		<g class="st10">
			<g>
				<path class="st17" d="M123.7,60.8c0.1,0.1,0.3,0.1,0.4,0l1.2-1l1.2,1c0.1,0.1,0.3,0.1,0.5,0l1.2-1l1.2,1c0.1,0.1,0.3,0.1,0.5,0
					l1.2-1l1.2,1c0.1,0.1,0.3,0.1,0.5,0l1.2-1l1.2,1c0.1,0.1,0.3,0.1,0.5,0l1.2-1l1.2,1c0.1,0.1,0.3,0.1,0.5,0l1.2-1l1.2,1
					c0.1,0.1,0.3,0.1,0.5,0l1.2-1l1.2,1c0.2,0.1,0.4,0.1,0.6-0.1c0-0.1,0.1-0.1,0.1-0.2v-18c0-0.2-0.2-0.4-0.4-0.4h-16.1
					c-0.1,0-0.2,0-0.3,0.1l-4.6,4.6c-0.1,0.1-0.1,0.2-0.1,0.3v13.3C123.4,60.6,123.5,60.7,123.7,60.8z M144.2,59.6l-0.8-0.7
					c-0.1-0.1-0.3-0.1-0.5,0l-1.2,1l-1.2-1c-0.1-0.1-0.3-0.1-0.5,0l-1.2,1l-1.2-1c-0.1-0.1-0.3-0.1-0.5,0l-1.2,1l-1.2-1
					c-0.1-0.1-0.3-0.1-0.5,0l-1.2,1l-1.2-1c-0.1-0.1-0.3-0.1-0.5,0l-1.2,1l-1.2-1c-0.1-0.1-0.3-0.1-0.5,0l-1.2,1l-1.2-1
					c-0.1-0.1-0.3-0.1-0.5,0l-0.8,0.7V47.5h4.2c0.2,0,0.4-0.2,0.4-0.4v-0.2h3.6c0.2,0,0.4-0.2,0.3-0.5c0-0.2-0.2-0.3-0.3-0.3h-3.6
					V45h3.6c0.2,0,0.4-0.2,0.3-0.5c0-0.2-0.2-0.3-0.3-0.3h-3.6v-1.3h15.3L144.2,59.6z M128.1,46.7h-3.3l3.3-3.3V46.7z"/>
			</g>
			<g>
				<path class="st17" d="M134.2,53.3h8.9c0.2,0,0.4-0.2,0.4-0.4V44c0-0.2-0.2-0.4-0.4-0.4h-8.9c-0.2,0-0.4,0.2-0.4,0.4v8.9
					C133.8,53.1,134,53.3,134.2,53.3z M134.6,44.4h8.1v8.1h-8.1V44.4L134.6,44.4z"/>
			</g>
			<g>
				<path class="st17" d="M143.1,54.1h-17.9c-0.2,0-0.4,0.2-0.4,0.4v2.3c0,0.2,0.2,0.4,0.4,0.4h17.9c0.2,0,0.4-0.2,0.4-0.4v-2.3
					C143.5,54.3,143.4,54.1,143.1,54.1z M142.7,56.4h-17.1v-1.5h17.1V56.4z"/>
			</g>
			<g>
				<path class="st17" d="M125.3,52.6h7.1c0.2,0,0.4-0.2,0.3-0.5c0-0.2-0.2-0.3-0.3-0.3h-7.1c-0.2,0-0.4,0.2-0.3,0.5
					C125,52.5,125.1,52.6,125.3,52.6z"/>
			</g>
			<g>
				<path class="st17" d="M125.3,50.7h7.1c0.2,0,0.4-0.2,0.3-0.5c0-0.2-0.2-0.3-0.3-0.3h-7.1c-0.2,0-0.4,0.2-0.3,0.5
					C125,50.5,125.1,50.7,125.3,50.7z"/>
			</g>
			<g>
				<path class="st17" d="M125.3,48.8h7.1c0.2,0,0.4-0.2,0.3-0.5c0-0.2-0.2-0.3-0.3-0.3h-7.1c-0.2,0-0.4,0.2-0.3,0.5
					C125,48.6,125.1,48.8,125.3,48.8z"/>
			</g>
		</g>
		<g>
			<rect x="182.2" y="30.5" class="st20" width="27.9" height="32.2"/>
		</g>
		<g>
			<path class="st21" d="M201.8,38.5c0.1,2.5-1.8,4.7-4.4,4.8h-2.6c-2.5-0.1-4.5-2.3-4.4-4.8l0,0c-0.1-2.5,1.8-4.7,4.3-4.9
				c0,0,0,0,0.1,0h2.6C200,33.8,201.9,36,201.8,38.5z"/>
		</g>
		<g>
			<rect x="192.7" y="45.7" class="st22" width="6.9" height="7.2"/>
		</g>
		<g>
			<polygon class="st23" points="199.6,52.9 196.2,52.9 192.5,45.7 199.6,45.7 			"/>
		</g>
		<g>
			<path class="st24" d="M201.6,40.5c0,4.8-2.7,9.1-5.5,9.1s-5.5-4.3-5.5-9.1s2.7-5.6,5.5-5.6S201.6,35.7,201.6,40.5z"/>
		</g>
		<g>
			<path class="st22" d="M196.1,34.9c2.8,0,5.5,0.8,5.5,5.6s-2.7,9.1-5.5,9.1"/>
		</g>
		<g>
			<path class="st21" d="M197.9,34.5c0.1,0.5-0.3,1-0.9,1.1h-0.1h-1.5c-0.6,0-1-0.4-1-1v-0.1v-0.2c-0.1-0.5,0.3-1,0.9-1.1h0.1h1.5
				c0.6,0,1,0.4,1,1v0.1V34.5z"/>
		</g>
		<g>
			<polygon class="st25" points="192.2,50.5 182.7,54.5 182.7,62.5 195.8,62.5 			"/>
		</g>
		<g>
			<polygon class="st21" points="192.2,50.5 184.5,55.4 182.7,62.5 195.8,62.5 			"/>
		</g>
		<g>
			<polygon class="st26" points="192.2,50 190,51 191.6,55.7 195.7,62.5 195.7,52.8 			"/>
		</g>
		<g>
			<polygon class="st18" points="192.3,50 195.7,52.8 191.6,55.7 			"/>
		</g>
		<g>
			<polygon class="st25" points="200.1,50.5 209.6,54.5 209.6,62.5 196.5,62.5 			"/>
		</g>
		<g>
			<polygon class="st21" points="200.1,50.5 207.8,55.4 209.6,62.5 196.5,62.5 			"/>
		</g>
		<g>
			<polygon class="st26" points="200.1,50 202.3,51 200.7,55.7 196.6,62.5 196.6,52.8 			"/>
		</g>
		<g>
			<polygon class="st18" points="200,50 196.6,52.8 200.7,55.7 			"/>
		</g>
		<g>
			<polygon class="st25" points="195.2,53.4 195.7,54.3 194.9,61.4 195.8,62.5 196.2,62.5 196.2,52.8 			"/>
		</g>
		<g>
			<polygon class="st21" points="197.1,53.4 196.6,54.3 197.4,61.4 196.5,62.5 196.2,62.5 196.2,52.8 			"/>
		</g>
		<g>
			<path class="st27" d="M196.1,51c-5.4,0-9.8-4.4-9.8-9.9s4.4-9.9,9.8-9.9c5.4,0,9.9,4.4,9.9,9.9S201.5,51,196.1,51z M196.1,31.7
				c-5.2,0-9.3,4.2-9.3,9.4s4.2,9.4,9.3,9.4c5.2,0,9.4-4.2,9.4-9.4S201.3,31.7,196.1,31.7z"/>
		</g>
		<g>
			<path class="st27" d="M196.1,48.2c-3.9,0-7-3.2-7-7c0-3.9,3.2-7.1,7-7.1c3.9,0,7.1,3.2,7.1,7.1C203.2,45.1,200,48.2,196.1,48.2z
				 M196.1,34.6c-3.6,0-6.5,2.9-6.5,6.6c0,3.6,2.9,6.5,6.5,6.5s6.6-2.9,6.6-6.5C202.7,37.6,199.7,34.6,196.1,34.6z"/>
		</g>
		<g>
			<path class="st27" d="M196.1,45.6c-2.5,0-4.4-2-4.4-4.4s2-4.5,4.4-4.5c2.5,0,4.5,2,4.5,4.5S198.6,45.6,196.1,45.6z M196.1,37.2
				c-2.2,0-3.9,1.8-3.9,4s1.8,3.9,3.9,3.9s4-1.8,4-3.9C200,39,198.3,37.2,196.1,37.2z"/>
		</g>
		<g>
			<rect x="195.8" y="30.3" class="st27" width="0.5" height="9.8"/>
		</g>
		<g>
			<rect x="195.8" y="43.5" class="st27" width="0.5" height="9.9"/>
		</g>
		<g>
			<rect x="197.8" y="41.1" class="st27" width="9.9" height="0.5"/>
		</g>
		<g>
			<rect x="184.6" y="41.2" class="st27" width="9.8" height="0.5"/>
		</g>
		<g>
			
				<rect x="248" y="79.8" transform="matrix(0.9999 -1.533553e-02 1.533553e-02 0.9999 -1.4444 3.8453)" class="st2" width="4" height="32.6"/>
		</g>
		<g>
			<rect x="242.2" y="78.1" class="st2" width="123.5" height="4"/>
		</g>
		<g>
			
				<rect x="357.3" y="79.4" transform="matrix(0.9999 -1.533507e-02 1.533507e-02 0.9999 -1.4254 5.5212)" class="st2" width="4" height="32.6"/>
		</g>
		<g class="st10">
			<g>
				<path class="st28" d="M286.6,65.1h-38.7V44.8c0-1.3,1-2.3,2.3-2.3h34c1.3,0,2.3,1,2.3,2.3L286.6,65.1L286.6,65.1z"/>
			</g>
			<g>
				<path class="st29" d="M275.2,78.4h-16c0-1.5,1.2-2.7,2.7-2.7l0,0h10.7C274,75.8,275.2,77,275.2,78.4L275.2,78.4"/>
			</g>
			<g>
				<polygon class="st30" points="271.9,75.8 262.6,75.8 263.9,70.4 270.6,70.4 				"/>
			</g>
			<g>
				<path class="st29" d="M284.2,70.4h-34c-1.3,0-2.3-1-2.3-2.3v-3h38.7v3C286.6,69.4,285.5,70.4,284.2,70.4"/>
			</g>
			<g>
				<path class="st31" d="M269.9,63.1c-0.4,0-0.7-0.3-0.7-0.7l0,0v-2c0-0.4,0.4-0.6,0.7-0.6c0.3,0,0.5,0.3,0.6,0.6v2
					C270.6,62.8,270.3,63.1,269.9,63.1L269.9,63.1"/>
			</g>
			<g>
				<path class="st31" d="M272.6,63.1c-0.4,0-0.7-0.3-0.7-0.7l0,0v-4.7c0-0.4,0.2-0.7,0.6-0.7s0.7,0.2,0.7,0.6c0,0.1,0,0.1,0,0.2
					v4.7C273.2,62.8,272.9,63.1,272.6,63.1L272.6,63.1"/>
			</g>
			<g>
				<path class="st31" d="M275.2,63.1c-0.4,0-0.7-0.3-0.7-0.7l0,0v-3.3c0-0.4,0.2-0.7,0.6-0.7s0.7,0.2,0.7,0.6c0,0.1,0,0.1,0,0.2
					v3.3C275.9,62.8,275.6,63.1,275.2,63.1L275.2,63.1"/>
			</g>
			<g>
				<path class="st31" d="M277.9,63.1c-0.4,0-0.7-0.3-0.7-0.7l0,0v-8c0-0.4,0.4-0.6,0.7-0.6c0.3,0,0.5,0.3,0.6,0.6v8
					C278.6,62.8,278.3,63.1,277.9,63.1L277.9,63.1"/>
			</g>
			<g>
				<path class="st31" d="M280.6,63.1c-0.4,0-0.7-0.3-0.7-0.7l0,0v-5.3c0-0.4,0.4-0.6,0.7-0.6c0.3,0,0.5,0.3,0.6,0.6v5.3
					C281.2,62.8,280.9,63.1,280.6,63.1L280.6,63.1"/>
			</g>
			<g>
				<path class="st32" d="M265.9,53.4c0,3.9-3.1,7-7,7s-7-3.1-7-7s3.1-7,7-7S265.9,49.6,265.9,53.4"/>
			</g>
			<g>
				<path class="st33" d="M258.6,46.5L258.6,46.5v7.3l0,0h7.3c0.2-3.9-2.8-7.1-6.7-7.3C259,46.4,258.8,46.4,258.6,46.5"/>
			</g>
			<g>
				<path class="st32" d="M277.2,49.8h-5.3c-0.4,0-0.7-0.2-0.7-0.6c0-0.4,0.2-0.7,0.6-0.7c0.1,0,0.1,0,0.2,0h5.3
					c0.4,0,0.7,0.2,0.7,0.6c0,0.4-0.2,0.7-0.6,0.7C277.3,49.8,277.3,49.8,277.2,49.8"/>
			</g>
			<g>
				<path class="st32" d="M280.6,49.8c-0.2,0-0.3-0.1-0.5-0.2l-0.1-0.1c0,0,0-0.1-0.1-0.1v-0.1v-0.1v-0.1V49c0,0,0-0.1,0.1-0.1
					l0.1-0.1c0.3-0.2,0.7-0.2,1,0c0.3,0.3,0.3,0.7,0,1C280.9,49.7,280.7,49.8,280.6,49.8"/>
			</g>
			<g>
				<path class="st32" d="M280.6,46.5h-2c-0.4,0-0.7-0.2-0.7-0.6c0-0.4,0.2-0.7,0.6-0.7c0.1,0,0.1,0,0.2,0h2c0.4,0,0.7,0.2,0.7,0.6
					c0,0.4-0.2,0.7-0.6,0.7C280.7,46.5,280.6,46.5,280.6,46.5"/>
			</g>
			<g>
				<path class="st32" d="M273.2,46.5h-1.3c-0.4,0-0.7-0.2-0.7-0.6c0-0.4,0.2-0.7,0.6-0.7c0.1,0,0.1,0,0.2,0h1.3
					c0.4,0,0.7,0.2,0.7,0.6c0,0.4-0.2,0.7-0.6,0.7C273.3,46.5,273.3,46.5,273.2,46.5"/>
			</g>
			<g>
				<path class="st32" d="M275.9,46.5c-0.4,0-0.7-0.3-0.7-0.7c0-0.2,0.1-0.3,0.2-0.5c0.1-0.1,0.1-0.1,0.2-0.1c0.2-0.1,0.5,0,0.7,0.1
					c0.3,0.3,0.3,0.7,0,0.9C276.2,46.4,276.1,46.5,275.9,46.5"/>
			</g>
		</g>
		<g>
			<path class="st34" d="M332.8,76.4V60.6c0-1.8,1.5-3.2,3.2-3.2c1.8,0,3.2,1.5,3.2,3.2v15.8"/>
		</g>
		<g>
			<path class="st35" d="M332,78h1.6V60.8c0-1.4,1.1-2.5,2.5-2.5s2.5,1.1,2.5,2.5V78h1.6V60.8c0-2.3-1.8-4.1-4.1-4.1
				c-2.3,0-4.1,1.8-4.1,4.1V78L332,78z"/>
		</g>
		<g class="st36">
			<path class="st37" d="M338.6,76.5h-2.5V56.6c2.3,0,4.1,1.8,4.1,4.1V78h-1.6"/>
		</g>
		<g>
			<path class="st34" d="M341.8,76.4V60.6c0-1.8,1.5-3.2,3.2-3.2c1.8,0,3.2,1.5,3.2,3.2v15.8"/>
		</g>
		<g class="st36">
			<path class="st37" d="M347.5,76.5H345V56.6c2.3,0,4.1,1.8,4.1,4.1V78h-1.6"/>
		</g>
		<g>
			<path class="st34" d="M311.7,62.5h15.9c1.8,0,3.2,1.5,3.2,3.2c0,1.8-1.5,3.2-3.2,3.2h-15.9"/>
		</g>
		<g class="st36">
			<path class="st37" d="M311.7,68.2v-2.5h19.8c0,2.3-1.8,4.1-4.1,4.1h-17.2v-1.6"/>
		</g>
		<g>
			<path class="st38" d="M340.8,78h1.6V60.8c0-1.4,1.1-2.5,2.5-2.5s2.5,1.1,2.5,2.5V78h1.6V60.8c0-2.3-1.8-4.1-4.1-4.1
				c-2.3,0-4.1,1.8-4.1,4.1V78L340.8,78z"/>
		</g>
		<g>
			<path class="st39" d="M310.1,61.6h17.2c2.3,0,4.1,1.8,4.1,4.1c0,2.3-1.8,4.1-4.1,4.1h-17.2v-1.6h17.2c1.4,0,2.5-1.1,2.5-2.5
				s-1.1-2.5-2.5-2.5h-17.2V61.6z"/>
		</g>
		<g>
			<path class="st34" d="M329.9,77.2H314c-1.8,0-3.2-1.5-3.2-3.2c0-1.8,1.5-3.2,3.2-3.2h15.9"/>
		</g>
		<g class="st36">
			<path class="st37" d="M329.9,71.4v2.5h-19.8c0-2.3,1.8-4.1,4.1-4.1h17.2v1.6"/>
		</g>
		<g>
			<path class="st40" d="M331.4,69.8h-17.2c-2.3,0-4.1,1.8-4.1,4.1s1.8,4.1,4.1,4.1h17.2v-1.6h-17.2c-1.4,0-2.5-1.1-2.5-2.5
				s1.1-2.5,2.5-2.5h17.2V69.8z"/>
		</g>
		<g>
			<path class="st29" d="M292.1,77.6c0.2-1.4,1.6-2.3,3-2.1c1.1,0.2,1.9,1,2.1,2.1"/>
			<path class="st9" d="M297.1,77.6c-0.2-1.1-1-1.8-2-2c-0.6-0.1-1.3,0.1-1.9,0.4c-0.6,0.4-0.9,0.9-1,1.6H292
				c0.1-0.7,0.5-1.3,1.1-1.7c0.6-0.4,1.3-0.6,2-0.5c1.1,0.2,2,1,2.2,2.2H297.1z"/>
		</g>
		<g>
			<path class="st41" d="M294.6,76.6C294.5,76.6,294.5,76.6,294.6,76.6l-0.1-1.1c0-0.1,0-0.1,0.1-0.1s0.1,0,0.1,0.1L294.6,76.6
				C294.7,76.6,294.7,76.6,294.6,76.6z"/>
		</g>
		<g>
			<path class="st42" d="M302.7,78.4L302.7,78.4l-14.4-0.1c-0.2,0-0.4-0.2-0.4-0.4c0-0.2,0.1-0.4,0.4-0.4l14.4,0.1
				c0.2,0,0.4,0.2,0.4,0.4C303.1,78.2,302.9,78.4,302.7,78.4z"/>
		</g>
	</g>
	<g id="opacidade">
		<g class="st8">
			<rect x="0.2" y="0.2" width="384" height="135.5"/>
		</g>
	</g>
	<g id="opacidade_1_">
		<g class="st8">
			<rect x="0.2" y="0.2" width="384" height="135.5"/>
		</g>
	</g>
	<g id="luzes">
		<g class="st8">
			<circle class="st43" cx="369.7" cy="24.8" r="7"/>
		</g>
		<g class="st8">
			<circle class="st43" cx="15.2" cy="24.2" r="7"/>
		</g>
		<g class="st44">
			<circle class="st43" cx="157.9" cy="25.9" r="7"/>
		</g>
		<g>
			<polygon class="st45" points="147.6,-0.4 131.4,24.7 184.5,24.7 169.4,-0.3 			"/>
		</g>
		<g class="st44">
			<polygon class="st46" points="151,24.9 123.9,96.6 193.7,97 164.9,24.9 			"/>
		</g>
		<g class="st44">
			<circle class="st43" cx="87.5" cy="25.9" r="7"/>
		</g>
		<g>
			<polygon class="st45" points="77.1,-0.4 60.9,24.7 114,24.7 98.9,-0.3 			"/>
		</g>
		<g class="st44">
			<polygon class="st46" points="80.5,24.9 53.4,96.6 123.2,97 94.4,24.9 			"/>
		</g>
		<g class="st44">
			<circle class="st43" cx="298.4" cy="25.9" r="7"/>
		</g>
		<g>
			<polygon class="st45" points="288.1,-0.4 271.9,24.7 325,24.7 309.9,-0.3 			"/>
		</g>
		<g class="st44">
			<polygon class="st46" points="291.5,24.9 264.4,96.6 334.2,97 305.4,24.9 			"/>
		</g>
		<g class="st44">
			<circle class="st43" cx="228" cy="25.9" r="7"/>
		</g>
		<g>
			<polygon class="st45" points="217.6,-0.4 201.4,24.7 254.5,24.7 239.4,-0.3 			"/>
		</g>
		<g class="st44">
			<polygon class="st46" points="221,24.9 193.9,96.6 263.7,97 234.9,24.9 			"/>
		</g>
		<g>
			<g>
				<g>
					<defs>
						<rect id="SVGID_1_" x="0.5" y="0.4" width="384" height="135.5"/>
					</defs>
					<clipPath id="SVGID_2_">
						<use xlink:href="#SVGID_1_"  style="overflow:visible;"/>
					</clipPath>
					<g class="st47">
						<g>
							<polygon class="st45" points="359.5,-0.3 343.3,24.8 396.4,24.8 381.3,-0.2 							"/>
						</g>
						<g>
							<polygon class="st45" points="5,-0.3 -11.2,24.8 41.8,24.8 26.8,-0.2 							"/>
						</g>
					</g>
				</g>
			</g>
		</g>
	</g>
</g>
</svg>
