<?xml version="1.0" encoding="utf-8"?>
<!-- Generator: Adobe Illustrator 19.2.1, SVG Export Plug-In . SVG Version: 6.00 Build 0)  -->
<svg version="1.1" id="Layer_1" xmlns="http://www.w3.org/2000/svg" xmlns:xlink="http://www.w3.org/1999/xlink" x="0px" y="0px"
	 viewBox="0 0 118.8 124.4" style="enable-background:new 0 0 118.8 124.4;" xml:space="preserve">
<style type="text/css">
	.st0{opacity:0.15;fill:#2F204F;enable-background:new    ;}
	.st1{fill:none;}
	.st2{font-family:'FiraSans-Regular';}
	.st3{font-size:12px;}
	.st4{fill:#1D71B8;stroke:#144866;stroke-width:0.5;stroke-miterlimit:10;}
	.st5{fill:#FFFFFF;stroke:#144866;stroke-width:0.5;stroke-miterlimit:10;}
</style>
<g id="Discrimination">
	<g>
		<circle class="st0" cx="63.6" cy="69.2" r="55.2"/>
		<rect x="19.3" y="64.6" class="st1" width="88.6" height="9.2"/>
		<text transform="matrix(1 0 0 1 23.832 73.6096)" class="st2 st3">Discrimination</text>
		<g>
			<g>
				<path class="st4" d="M10.8,87.3c-0.3,0-0.5,0.3-0.5,0.3v16.1c0,0,0.1,1.9-2.1,1.9c-2.1,0-2.1-1.9-2.1-1.9V75.6
					c0,0-0.2-0.3-0.5-0.3s-0.5,0.3-0.5,0.3v9.7c0,0,0,1.7-1.6,1.7s-1.6-1.7-1.6-1.7v-11c0-2.7,2.5-4.8,5.1-4.8h3.6"/>
				<path class="st4" d="M10.8,68.5c-2,0-3.7-1.6-3.7-3.7c0-2,1.6-3.7,3.7-3.7"/>
			</g>
			<g>
				<path class="st5" d="M10.8,69.4h3.6c2.7,0,5.1,2.2,5.1,4.8v11c0,0,0,1.7-1.6,1.7s-1.6-1.7-1.6-1.7v-9.7c0,0-0.1-0.3-0.5-0.3
					c-0.3,0-0.5,0.3-0.5,0.3v28.1c0,0,0.1,1.9-2.1,1.9c-2.1,0-2.1-1.9-2.1-1.9V87.5c0,0-0.1-0.3-0.4-0.3"/>
				<path class="st5" d="M10.8,61.1c2,0,3.7,1.6,3.7,3.7c0,2-1.6,3.7-3.7,3.7"/>
			</g>
		</g>
		<g>
			<g>
				<path class="st4" d="M97.7,14.8v11c0,0,0,1.7-1.6,1.7s-1.6-1.7-1.6-1.7v-9.7c0,0,0-0.3-0.3-0.3s-0.4,0.3-0.4,0.3v28.1
					c0,0,0.1,1.9-2.1,1.9c-2.1,0-2.1-1.9-2.1-1.9V28.1c0,0-0.1-0.3-0.4-0.3c-0.3,0-0.5,0.3-0.5,0.3v16.1c0,0,0.1,1.9-2.1,1.9
					s-2.1-1.9-2.1-1.9V16.1c0,0,0-0.3-0.3-0.3s-0.4,0.3-0.4,0.3v9.7c0,0,0,1.7-1.6,1.7s-1.6-1.7-1.6-1.7v-11c0-2.7,2.2-4.8,4.8-4.8
					h7.2C95.5,10,97.7,12.1,97.7,14.8z"/>
				<circle class="st4" cx="89.2" cy="5.4" r="3.7"/>
			</g>
			<polygon class="st5" points="88.5,21.6 90,21.6 90,17.7 92,17.7 92,16.3 90,16.3 90,14.6 88.5,14.6 88.5,16.3 86.5,16.3 
				86.5,17.7 88.5,17.7 			"/>
		</g>
	</g>
</g>
</svg>
