<?xml version="1.0" encoding="utf-8"?>
<!-- Generator: Adobe Illustrator 19.2.1, SVG Export Plug-In . SVG Version: 6.00 Build 0)  -->
<svg version="1.1" id="education" xmlns="http://www.w3.org/2000/svg" xmlns:xlink="http://www.w3.org/1999/xlink" x="0px" y="0px"
	 viewBox="0 0 118 118" style="enable-background:new 0 0 118 118;" xml:space="preserve">
<style type="text/css">
	.st0{opacity:0.15;fill:#2F204F;enable-background:new    ;}
	.st1{fill:#F1F2F2;}
	.st2{fill:none;stroke:#2F214F;stroke-width:2;stroke-miterlimit:10;}
	.st3{fill:#2F214F;}
	.st4{fill:none;stroke:#BE1823;stroke-width:2;stroke-linecap:round;stroke-linejoin:round;stroke-miterlimit:10;}
	.st5{fill:#E6E7E9;}
	.st6{fill:none;stroke:#BCBEC0;stroke-width:1.5;stroke-miterlimit:10;}
	.st7{fill:none;stroke:#E84339;stroke-width:1.5;stroke-linecap:round;stroke-miterlimit:10;}
	.st8{fill:#D1D3D4;}
	.st9{fill:none;stroke:#BE1823;stroke-width:2;stroke-linecap:round;stroke-miterlimit:10;}
	.st10{fill:#2CAAE1;}
	.st11{fill:none;}
	.st12{font-family:'FiraSans-Regular';}
	.st13{font-size:16px;}
</style>
<g>
	<circle class="st0" cx="59" cy="59" r="59"/>
	<g>
		<rect x="27" y="46.9" class="st1" width="63.4" height="33.3"/>
		<rect x="27" y="46.9" class="st2" width="63.4" height="33.3"/>
		<path class="st3" d="M91.4,47.2H25.8c-1.2,0-1.8-1.2-1-2l12.8-12.8h42.1l12.8,12.8C93.3,45.9,92.6,47.2,91.4,47.2"/>
		<polygon class="st1" points="58.6,25.9 79.6,48.2 37.6,48.2 		"/>
		<polyline class="st4" points="37.6,48.2 58.6,25.9 79.6,48.2 		"/>
		<path class="st5" d="M65.7,44c0,3.9-3.2,7.1-7.1,7.1s-7.1-3.2-7.1-7.1s3.2-7.1,7.1-7.1C62.6,37,65.7,40.1,65.7,44"/>
		<circle class="st6" cx="58.7" cy="44" r="7.1"/>
		<polyline class="st7" points="58.7,40.5 58.7,44 54.8,44 		"/>
		<rect x="48.4" y="58.5" class="st8" width="20.6" height="21.7"/>
		<rect x="48.4" y="58.5" class="st4" width="20.6" height="21.7"/>
		<line class="st4" x1="58.1" y1="58.5" x2="58.1" y2="80.2"/>
		<line class="st9" x1="22.6" y1="80.2" x2="93.6" y2="80.2"/>
		<polygon class="st10" points="39.9,72.8 33.4,72.8 33.4,68.2 33.4,63.5 39.9,63.5 		"/>
		<polygon class="st4" points="39.9,72.8 33.4,72.8 33.4,68.2 33.4,63.5 39.9,63.5 		"/>
		<line class="st4" x1="39.9" y1="68.2" x2="33.4" y2="68.2"/>
		<polygon class="st10" points="83.2,72.8 76.7,72.8 76.7,68.2 76.7,63.5 83.2,63.5 		"/>
		<polygon class="st4" points="83.2,72.8 76.7,72.8 76.7,68.2 76.7,63.5 83.2,63.5 		"/>
		<line class="st4" x1="83.2" y1="68.2" x2="76.7" y2="68.2"/>
	</g>
	<rect x="22.4" y="88.1" class="st11" width="73.2" height="21.2"/>
	<text transform="matrix(1 0 0 1 22.6083 100.0849)" class="st12 st13">Education</text>
</g>
</svg>
