<!--?xml version="1.0" encoding="utf-8"?-->
<!-- Generator: Adobe Illustrator 19.2.1, SVG Export Plug-In . SVG Version: 6.00 Build 0)  -->
<svg version="1.1" id="Layer_1" xmlns="http://www.w3.org/2000/svg" xmlns:xlink="http://www.w3.org/1999/xlink" x="0px" y="0px" viewBox="0 0 239.2 215.1" xml:space="preserve">
<style type="text/css">
	.st0{opacity:0.15;fill:#2F204F;enable-background:new    ;}
	.st1{fill:none;}
	.st2{font-family:'FiraSans-Regular';}
	.st3{font-size:11px;}
	.st4{font-size:16px;}
	.st5{fill:#403072;stroke:#2F214F;stroke-miterlimit:10;}
	.st6{fill:#1D71B8;stroke:#144866;stroke-miterlimit:10;}
	.st7{fill:#056E31;stroke:#065127;stroke-miterlimit:10;}
	.st8{fill:#F1F2F2;stroke:#2F214F;stroke-miterlimit:10;}
	.st9{fill:#575656;stroke:#FFFFFF;stroke-width:0.5;stroke-miterlimit:10;}
	.st10{fill:#F6F6F6;stroke:#FFFFFF;stroke-miterlimit:10;}
	.st11{fill:#FFFFFF;}
</style>
<g id="Freedom_of">
	<g>
		<path class="st0 UInLyUkj_0" d="M33.8,103.6A85,85 0,1,1 203.8,103.6A85,85 0,1,1 33.8,103.6"></path>
		<path class="st1 UInLyUkj_1" width="32.4" height="24.3" d="M97.1 203 L129.5 203 L129.5 227.3 L97.1 227.3 Z"></path>
		<text transform="matrix(1 0 0 1 99.7775 211.2439)" class="st2 st3">press</text>
		<path class="st1 UInLyUkj_2" width="113.4" height="13.4" d="M62.1 96.9 L175.5 96.9 L175.5 110.30000000000001 L62.1 110.30000000000001 Z"></path>
		<text transform="matrix(1 0 0 1 77.2316 108.8854)" class="st2 st4">Freedom of</text>
		<path class="st1 UInLyUkj_3" width="83.3" height="32.3" d="M167.1 161.2 L250.39999999999998 161.2 L250.39999999999998 193.5 L167.1 193.5 Z"></path>
		<text transform="matrix(1 0 0 1 179.2931 169.4285)" class="st2 st3">movement/</text>
		<text transform="matrix(1 0 0 1 185.2931 182.6285)" class="st2 st3">assembly</text>
		<path class="st1 UInLyUkj_4" width="53.3" height="32.3" d="M6.4 158.8 L59.699999999999996 158.8 L59.699999999999996 191.10000000000002 L6.4 191.10000000000002 Z"></path>
		<text transform="matrix(1 0 0 1 13.3351 166.9656)" class="st2 st3">thought</text>
		<path class="st1 UInLyUkj_5" width="51.8" height="17.7" d="M137.6 54.6 L189.39999999999998 54.6 L189.39999999999998 72.3 L137.6 72.3 Z"></path>
		<text transform="matrix(1 0 0 1 144.3341 62.826)" class="st2 st3">religion</text>
		<path class="st1 UInLyUkj_6" width="73" height="17.7" d="M38.6 53.2 L111.6 53.2 L111.6 70.9 L38.6 70.9 Z"></path>
		<text transform="matrix(1 0 0 1 57.3751 61.4119)" class="st2 st3">speech</text>
		<g>
			<path class="st5 UInLyUkj_7" d="M158.5,48.2L168.5,48.2L168.5,22.3L181.5,22.3L181.5,13.1L168.5,13.1L168.5,2.4L158.5,2.4L
				158.5,13.1L145.5,13.1L145.5,22.3L158.5,22.3Z"></path>
		</g>
		<g>
			<g>
				<path class="st6 UInLyUkj_8" d="M198,117.6c0-3.4,2.7-6.1,6.1-6.1h9.1c3.4,0,6.1,2.7,6.1,6.1"></path>
				<path class="st6 UInLyUkj_9" d="M198,117.6v4.3h4v-2.6c0,0,0-0.4,0.5-0.4c0.4,0,0.4,0.4,0.4,0.4v2.6h5.4h0.8h5.4v-2.6c0,0,0-0.4,0.4-0.4
					s0.4,0.4,0.4,0.4v2.6h4v-4.3"></path>
				<path class="st6 UInLyUkj_10" d="M204.1,105.7A4.6,4.6 0,1,1 213.29999999999998,105.7A4.6,4.6 0,1,1 204.1,105.7"></path>
			</g>
			<path class="st6 UInLyUkj_11" d="M210.6,154.8c-1.7,0-3.3,0-5,0c0-9,0-18,0-27.1c-3.9,0-7.7,0-11.6,0c0-1.4,0-2.8,0-4.2c9.4,0,18.8,0,28.2,0
				c0,1.4,0,2.8,0,4.2c-3.9,0-7.7,0-11.6,0C210.6,136.7,210.6,145.7,210.6,154.8z"></path>
			<g>
				<path class="st6 UInLyUkj_12" d="M179.20000000000002,106.7A4.6,4.6 0,1,1 188.4,106.7A4.6,4.6 0,1,1 179.20000000000002,106.7"></path>
			</g>
			<path class="st6 UInLyUkj_13" d="M194.5,136.3c-2.2,0-4.3,0-6.5,0c-2.1,0-4.2,0-6.2,0c-0.8,0-1-0.2-1-1c0-7,0-14.1,0-21.1
				c0-0.9,0.2-1.1,1.1-1.1c1.4,0,2.7,0,4.1,0c0.7,0,0.9,0.2,0.9,0.9c0,5.2,0,10.4,0,15.5c0,0.2,0,0.4,0,0.7c0.3,0,0.5,0,0.7,0
				c4,0,8,0,12.1,0c0.8,0,1,0.2,1,0.9c0,6.8,0,13.6,0,20.5c0,1.7-1.1,2.9-2.8,3.1c-1.4,0.2-2.8-0.9-3.2-2.4
				c-0.1-0.3-0.1-0.6-0.1-0.9c0-4.8,0-9.6,0-14.4C194.5,136.8,194.5,136.6,194.5,136.3z"></path>
			<g>
				<path class="st6 UInLyUkj_14" d="M227,106.7A4.6,4.6 0,1,1 236.2,106.7A4.6,4.6 0,1,1 227,106.7"></path>
			</g>
			<path class="st6 UInLyUkj_15" d="M221,136.3c2.2,0,4.3,0,6.5,0c2.1,0,4.2,0,6.2,0c0.8,0,1-0.2,1-1c0-7,0-14.1,0-21.1c0-0.9-0.2-1.1-1.1-1.1
				c-1.4,0-2.7,0-4.1,0c-0.7,0-0.9,0.2-0.9,0.9c0,5.2,0,10.4,0,15.5c0,0.2,0,0.4,0,0.7c-0.3,0-0.5,0-0.7,0c-4,0-8,0-12.1,0
				c-0.8,0-1,0.2-1,0.9c0,6.8,0,13.6,0,20.5c0,1.7,1.1,2.9,2.8,3.1c1.4,0.2,2.8-0.9,3.2-2.4c0.1-0.3,0.1-0.6,0.1-0.9
				c0-4.8,0-9.6,0-14.4C221,136.8,221,136.6,221,136.3z"></path>
		</g>
		<g id="DQkqXX.tif_3_">
			<g>
				<path class="st7 UInLyUkj_16" d="M94.7,4.5c0,13,0,25.9,0,38.9c0,2.9-3.9,0-4.4-0.2c-5.6-2.8-11.1-5.6-17-7.7c-0.6-0.2-1.2-0.4-1.9-0.6
					c-0.3-0.1-0.5,0.1-0.5,0.4l0,0c0,3.6,0,7.2,0.1,10.9c0,1.3-0.7,2.1-2.1,2.1c-0.9,0-1.8,0-2.7,0c-1.5,0-2.3-0.8-2.3-2.3
					c0-3.6,0-7.2-0.1-10.8c0-0.7,0-1.4,0-2.2c0-0.2-0.1-0.4-0.3-0.4c-2.3-0.4-4.6-0.8-6.8-1.2c-0.4-0.1-0.4-0.2-0.4-0.5
					c0-4.6,0-9.1,0-13.7v-0.1c0-0.2,0.1-0.3,0.3-0.4c2.1-0.4,4.2-0.8,6.2-1.2c4.4-1,8.7-2.2,12.9-3.9c5.2-2.1,10.2-4.5,15.2-7.1
					C91,4.3,94.7,1.9,94.7,4.5z"></path>
				<path class="st7 UInLyUkj_17" d="M49.7,16.7h4.5c0.2,0,0.4,0.2,0.4,0.4v13.6c0,0.2-0.2,0.4-0.4,0.4h-4.5c-0.2,0-0.4-0.2-0.4-0.4V17.1
					C49.3,16.9,49.5,16.7,49.7,16.7z"></path>
			</g>
		</g>
		<g>
			<path class="st8 UInLyUkj_18" d="M16.7,115.7c0,0,1.4-8.3,10.2-10.1s11,7,11,7s4.7-0.9,7.1-0.1c2.5,0.8,6.1,4.3,6.2,6.4
				c0,0,11.8-3.1,11.3,7.6s-10.3,8.7-10.3,8.7s-1.1,8.5-7.1,10.9c-6.1,2.4-10.2,1.6-14.6-0.9c0,0-7.4,3.5-12,0.1s-4.2-4.1-5.4-7.5
				c0,0-6.6,1.3-8.9-4.1c-2.4-5.3,1.6-9.7,3.6-10.3C7.8,123.6,9.3,115.5,16.7,115.7z"></path>
			<path class="st8 UInLyUkj_19" d="M10.9,148.2A2.9,2.9 0,1,1 16.7,148.2A2.9,2.9 0,1,1 10.9,148.2"></path>
			<path class="st8 UInLyUkj_20" d="M7.1000000000000005,152.4A1.8,1.8 0,1,1 10.700000000000001,152.4A1.8,1.8 0,1,1 7.1000000000000005,152.4"></path>
			<path class="st8 UInLyUkj_21" d="M3.9,155A1.1,1.1 0,1,1 6.1,155A1.1,1.1 0,1,1 3.9,155"></path>
		</g>
		<g>
			<path class="st9 UInLyUkj_22" d="M105,199.7h25c1.5,0,2.7-1.2,2.7-2.7v-32.8c0-1.5-1.2-2.7-2.7-2.7h-25c-1.5,0-2.7,1.2-2.7,2.7V197
				c0,1.2-1.4,2.7-3.4,2.7c-3.6,0-4-2.6-4-2.6s0.4,2.7,3,2.7C99.7,199.7,102.3,199.7,105,199.7z"></path>
			<path class="st10 UInLyUkj_23" d="M110.1,173.1h8.2c1.4,0,2.5-1.1,2.5-2.5v-3.1c0-1.4-1.1-2.5-2.5-2.5h-8.2c-1.4,0-2.5,1.1-2.5,2.5v3.1
				C107.6,172,108.7,173.1,110.1,173.1z"></path>
			<g>
				<g>
					<path class="st11 UInLyUkj_24" d="M127.9,178.3c-6.8,0-13.6,0-20.4,0c-0.8,0-0.8,1.2,0,1.2c6.8,0,13.6,0,20.4,0
						C128.7,179.6,128.7,178.3,127.9,178.3L127.9,178.3z"></path>
				</g>
			</g>
			<g>
				<g>
					<path class="st11 UInLyUkj_25" d="M127.9,183.4c-6.8,0-13.6,0-20.4,0c-0.8,0-0.8,1.2,0,1.2c6.8,0,13.6,0,20.4,0
						C128.7,184.7,128.7,183.4,127.9,183.4L127.9,183.4z"></path>
				</g>
			</g>
			<g>
				<g>
					<path class="st11 UInLyUkj_26" d="M127.9,188.5c-6.8,0-13.6,0-20.4,0c-0.8,0-0.8,1.2,0,1.2c6.8,0,13.6,0,20.4,0
						C128.7,189.7,128.7,188.5,127.9,188.5L127.9,188.5z"></path>
				</g>
			</g>
			<g>
				<g>
					<path class="st11 UInLyUkj_27" d="M127.9,193.6c-6.8,0-13.6,0-20.4,0c-0.8,0-0.8,1.2,0,1.2c6.8,0,13.6,0,20.4,0
						C128.7,194.8,128.7,193.6,127.9,193.6L127.9,193.6z"></path>
				</g>
			</g>
			<g>
				<g>
					<path class="st11 UInLyUkj_28" d="M127.9,168.2c-0.9,0-1.7,0-2.6,0c-0.8,0-0.8,1.2,0,1.2c0.9,0,1.7,0,2.6,0
						C128.7,169.4,128.7,168.2,127.9,168.2L127.9,168.2z"></path>
				</g>
			</g>
			<g>
				<g>
					<path class="st11 UInLyUkj_29" d="M127.9,173.2c-0.9,0-1.7,0-2.6,0c-0.8,0-0.8,1.2,0,1.2c0.9,0,1.7,0,2.6,0
						C128.7,174.5,128.7,173.2,127.9,173.2L127.9,173.2z"></path>
				</g>
			</g>
			<path class="st9 UInLyUkj_30" d="M98.8,199.7c-4.5,0-4-3.8-4-3.8s0-19.3,0-22s2.3-2.7,2.3-2.7h5.1V197C102.2,197,102.4,199.7,98.8,199.7z"></path>
		</g>
	</g>
</g>
<style>.UInLyUkj_0{stroke-dasharray:535 537;stroke-dashoffset:536;animation:UInLyUkj_draw_0 4500ms linear 0ms infinite,UInLyUkj_fade 4500ms linear 0ms infinite;}.UInLyUkj_1{stroke-dasharray:114 116;stroke-dashoffset:115;animation:UInLyUkj_draw_1 4500ms linear 0ms infinite,UInLyUkj_fade 4500ms linear 0ms infinite;}.UInLyUkj_2{stroke-dasharray:254 256;stroke-dashoffset:255;animation:UInLyUkj_draw_2 4500ms linear 0ms infinite,UInLyUkj_fade 4500ms linear 0ms infinite;}.UInLyUkj_3{stroke-dasharray:232 234;stroke-dashoffset:233;animation:UInLyUkj_draw_3 4500ms linear 0ms infinite,UInLyUkj_fade 4500ms linear 0ms infinite;}.UInLyUkj_4{stroke-dasharray:172 174;stroke-dashoffset:173;animation:UInLyUkj_draw_4 4500ms linear 0ms infinite,UInLyUkj_fade 4500ms linear 0ms infinite;}.UInLyUkj_5{stroke-dasharray:139 141;stroke-dashoffset:140;animation:UInLyUkj_draw_5 4500ms linear 0ms infinite,UInLyUkj_fade 4500ms linear 0ms infinite;}.UInLyUkj_6{stroke-dasharray:182 184;stroke-dashoffset:183;animation:UInLyUkj_draw_6 4500ms linear 0ms infinite,UInLyUkj_fade 4500ms linear 0ms infinite;}.UInLyUkj_7{stroke-dasharray:164 166;stroke-dashoffset:165;animation:UInLyUkj_draw_7 4500ms linear 0ms infinite,UInLyUkj_fade 4500ms linear 0ms infinite;}.UInLyUkj_8{stroke-dasharray:29 31;stroke-dashoffset:30;animation:UInLyUkj_draw_8 4500ms linear 0ms infinite,UInLyUkj_fade 4500ms linear 0ms infinite;}.UInLyUkj_9{stroke-dasharray:42 44;stroke-dashoffset:43;animation:UInLyUkj_draw_9 4500ms linear 0ms infinite,UInLyUkj_fade 4500ms linear 0ms infinite;}.UInLyUkj_10{stroke-dasharray:29 31;stroke-dashoffset:30;animation:UInLyUkj_draw_10 4500ms linear 0ms infinite,UInLyUkj_fade 4500ms linear 0ms infinite;}.UInLyUkj_11{stroke-dasharray:119 121;stroke-dashoffset:120;animation:UInLyUkj_draw_11 4500ms linear 0ms infinite,UInLyUkj_fade 4500ms linear 0ms infinite;}.UInLyUkj_12{stroke-dasharray:29 31;stroke-dashoffset:30;animation:UInLyUkj_draw_12 4500ms linear 0ms infinite,UInLyUkj_fade 4500ms linear 0ms infinite;}.UInLyUkj_13{stroke-dasharray:120 122;stroke-dashoffset:121;animation:UInLyUkj_draw_13 4500ms linear 0ms infinite,UInLyUkj_fade 4500ms linear 0ms infinite;}.UInLyUkj_14{stroke-dasharray:29 31;stroke-dashoffset:30;animation:UInLyUkj_draw_14 4500ms linear 0ms infinite,UInLyUkj_fade 4500ms linear 0ms infinite;}.UInLyUkj_15{stroke-dasharray:120 122;stroke-dashoffset:121;animation:UInLyUkj_draw_15 4500ms linear 0ms infinite,UInLyUkj_fade 4500ms linear 0ms infinite;}.UInLyUkj_16{stroke-dasharray:164 166;stroke-dashoffset:165;animation:UInLyUkj_draw_16 4500ms linear 0ms infinite,UInLyUkj_fade 4500ms linear 0ms infinite;}.UInLyUkj_17{stroke-dasharray:39 41;stroke-dashoffset:40;animation:UInLyUkj_draw_17 4500ms linear 0ms infinite,UInLyUkj_fade 4500ms linear 0ms infinite;}.UInLyUkj_18{stroke-dasharray:165 167;stroke-dashoffset:166;animation:UInLyUkj_draw_18 4500ms linear 0ms infinite,UInLyUkj_fade 4500ms linear 0ms infinite;}.UInLyUkj_19{stroke-dasharray:19 21;stroke-dashoffset:20;animation:UInLyUkj_draw_19 4500ms linear 0ms infinite,UInLyUkj_fade 4500ms linear 0ms infinite;}.UInLyUkj_20{stroke-dasharray:12 14;stroke-dashoffset:13;animation:UInLyUkj_draw_20 4500ms linear 0ms infinite,UInLyUkj_fade 4500ms linear 0ms infinite;}.UInLyUkj_21{stroke-dasharray:7 9;stroke-dashoffset:8;animation:UInLyUkj_draw_21 4500ms linear 0ms infinite,UInLyUkj_fade 4500ms linear 0ms infinite;}.UInLyUkj_22{stroke-dasharray:150 152;stroke-dashoffset:151;animation:UInLyUkj_draw_22 4500ms linear 0ms infinite,UInLyUkj_fade 4500ms linear 0ms infinite;}.UInLyUkj_23{stroke-dasharray:39 41;stroke-dashoffset:40;animation:UInLyUkj_draw_23 4500ms linear 0ms infinite,UInLyUkj_fade 4500ms linear 0ms infinite;}.UInLyUkj_24{stroke-dasharray:45 47;stroke-dashoffset:46;animation:UInLyUkj_draw_24 4500ms linear 0ms infinite,UInLyUkj_fade 4500ms linear 0ms infinite;}.UInLyUkj_25{stroke-dasharray:45 47;stroke-dashoffset:46;animation:UInLyUkj_draw_25 4500ms linear 0ms infinite,UInLyUkj_fade 4500ms linear 0ms infinite;}.UInLyUkj_26{stroke-dasharray:45 47;stroke-dashoffset:46;animation:UInLyUkj_draw_26 4500ms linear 0ms infinite,UInLyUkj_fade 4500ms linear 0ms infinite;}.UInLyUkj_27{stroke-dasharray:45 47;stroke-dashoffset:46;animation:UInLyUkj_draw_27 4500ms linear 0ms infinite,UInLyUkj_fade 4500ms linear 0ms infinite;}.UInLyUkj_28{stroke-dasharray:10 12;stroke-dashoffset:11;animation:UInLyUkj_draw_28 4500ms linear 0ms infinite,UInLyUkj_fade 4500ms linear 0ms infinite;}.UInLyUkj_29{stroke-dasharray:10 12;stroke-dashoffset:11;animation:UInLyUkj_draw_29 4500ms linear 0ms infinite,UInLyUkj_fade 4500ms linear 0ms infinite;}.UInLyUkj_30{stroke-dasharray:69 71;stroke-dashoffset:70;animation:UInLyUkj_draw_30 4500ms linear 0ms infinite,UInLyUkj_fade 4500ms linear 0ms infinite;}@keyframes UInLyUkj_draw{100%{stroke-dashoffset:0;}}@keyframes UInLyUkj_fade{0%{stroke-opacity:1;}91.11111111111111%{stroke-opacity:1;}100%{stroke-opacity:0;}}@keyframes UInLyUkj_draw_0{2.2222222222222223%{stroke-dashoffset: 536}46.666666666666664%{ stroke-dashoffset: 0;}100%{ stroke-dashoffset: 0;}}@keyframes UInLyUkj_draw_1{2.9629629629629632%{stroke-dashoffset: 115}47.40740740740741%{ stroke-dashoffset: 0;}100%{ stroke-dashoffset: 0;}}@keyframes UInLyUkj_draw_2{3.703703703703704%{stroke-dashoffset: 255}48.148148148148145%{ stroke-dashoffset: 0;}100%{ stroke-dashoffset: 0;}}@keyframes UInLyUkj_draw_3{4.444444444444445%{stroke-dashoffset: 233}48.888888888888886%{ stroke-dashoffset: 0;}100%{ stroke-dashoffset: 0;}}@keyframes UInLyUkj_draw_4{5.185185185185186%{stroke-dashoffset: 173}49.62962962962963%{ stroke-dashoffset: 0;}100%{ stroke-dashoffset: 0;}}@keyframes UInLyUkj_draw_5{5.9259259259259265%{stroke-dashoffset: 140}50.37037037037037%{ stroke-dashoffset: 0;}100%{ stroke-dashoffset: 0;}}@keyframes UInLyUkj_draw_6{6.666666666666667%{stroke-dashoffset: 183}51.11111111111111%{ stroke-dashoffset: 0;}100%{ stroke-dashoffset: 0;}}@keyframes UInLyUkj_draw_7{7.407407407407408%{stroke-dashoffset: 165}51.85185185185186%{ stroke-dashoffset: 0;}100%{ stroke-dashoffset: 0;}}@keyframes UInLyUkj_draw_8{8.148148148148149%{stroke-dashoffset: 30}52.59259259259259%{ stroke-dashoffset: 0;}100%{ stroke-dashoffset: 0;}}@keyframes UInLyUkj_draw_9{8.88888888888889%{stroke-dashoffset: 43}53.333333333333336%{ stroke-dashoffset: 0;}100%{ stroke-dashoffset: 0;}}@keyframes UInLyUkj_draw_10{9.629629629629632%{stroke-dashoffset: 30}54.074074074074076%{ stroke-dashoffset: 0;}100%{ stroke-dashoffset: 0;}}@keyframes UInLyUkj_draw_11{10.370370370370372%{stroke-dashoffset: 120}54.81481481481482%{ stroke-dashoffset: 0;}100%{ stroke-dashoffset: 0;}}@keyframes UInLyUkj_draw_12{11.11111111111111%{stroke-dashoffset: 30}55.55555555555556%{ stroke-dashoffset: 0;}100%{ stroke-dashoffset: 0;}}@keyframes UInLyUkj_draw_13{11.851851851851853%{stroke-dashoffset: 121}56.2962962962963%{ stroke-dashoffset: 0;}100%{ stroke-dashoffset: 0;}}@keyframes UInLyUkj_draw_14{12.592592592592593%{stroke-dashoffset: 30}57.03703703703704%{ stroke-dashoffset: 0;}100%{ stroke-dashoffset: 0;}}@keyframes UInLyUkj_draw_15{13.333333333333334%{stroke-dashoffset: 121}57.77777777777777%{ stroke-dashoffset: 0;}100%{ stroke-dashoffset: 0;}}@keyframes UInLyUkj_draw_16{14.074074074074074%{stroke-dashoffset: 165}58.518518518518526%{ stroke-dashoffset: 0;}100%{ stroke-dashoffset: 0;}}@keyframes UInLyUkj_draw_17{14.814814814814817%{stroke-dashoffset: 40}59.25925925925927%{ stroke-dashoffset: 0;}100%{ stroke-dashoffset: 0;}}@keyframes UInLyUkj_draw_18{15.555555555555555%{stroke-dashoffset: 166}60%{ stroke-dashoffset: 0;}100%{ stroke-dashoffset: 0;}}@keyframes UInLyUkj_draw_19{16.296296296296298%{stroke-dashoffset: 20}60.74074074074074%{ stroke-dashoffset: 0;}100%{ stroke-dashoffset: 0;}}@keyframes UInLyUkj_draw_20{17.037037037037038%{stroke-dashoffset: 13}61.481481481481495%{ stroke-dashoffset: 0;}100%{ stroke-dashoffset: 0;}}@keyframes UInLyUkj_draw_21{17.77777777777778%{stroke-dashoffset: 8}62.22222222222222%{ stroke-dashoffset: 0;}100%{ stroke-dashoffset: 0;}}@keyframes UInLyUkj_draw_22{18.51851851851852%{stroke-dashoffset: 151}62.96296296296296%{ stroke-dashoffset: 0;}100%{ stroke-dashoffset: 0;}}@keyframes UInLyUkj_draw_23{19.259259259259263%{stroke-dashoffset: 40}63.70370370370371%{ stroke-dashoffset: 0;}100%{ stroke-dashoffset: 0;}}@keyframes UInLyUkj_draw_24{20%{stroke-dashoffset: 46}64.44444444444444%{ stroke-dashoffset: 0;}100%{ stroke-dashoffset: 0;}}@keyframes UInLyUkj_draw_25{20.740740740740744%{stroke-dashoffset: 46}65.18518518518519%{ stroke-dashoffset: 0;}100%{ stroke-dashoffset: 0;}}@keyframes UInLyUkj_draw_26{21.48148148148148%{stroke-dashoffset: 46}65.92592592592594%{ stroke-dashoffset: 0;}100%{ stroke-dashoffset: 0;}}@keyframes UInLyUkj_draw_27{22.222222222222225%{stroke-dashoffset: 46}66.66666666666666%{ stroke-dashoffset: 0;}100%{ stroke-dashoffset: 0;}}@keyframes UInLyUkj_draw_28{22.962962962962965%{stroke-dashoffset: 11}67.40740740740742%{ stroke-dashoffset: 0;}100%{ stroke-dashoffset: 0;}}@keyframes UInLyUkj_draw_29{23.703703703703706%{stroke-dashoffset: 11}68.14814814814815%{ stroke-dashoffset: 0;}100%{ stroke-dashoffset: 0;}}@keyframes UInLyUkj_draw_30{24.444444444444443%{stroke-dashoffset: 70}68.88888888888889%{ stroke-dashoffset: 0;}100%{ stroke-dashoffset: 0;}}</style></svg>
