<?xml version="1.0" encoding="utf-8"?>
<!-- Generator: Adobe Illustrator 19.2.1, SVG Export Plug-In . SVG Version: 6.00 Build 0)  -->
<svg version="1.1" id="health" xmlns="http://www.w3.org/2000/svg" xmlns:xlink="http://www.w3.org/1999/xlink" x="0px" y="0px"
	 viewBox="0 0 118 118" style="enable-background:new 0 0 118 118;" xml:space="preserve">
<style type="text/css">
	.st0{opacity:0.15;fill:#2F204F;enable-background:new    ;}
	.st1{fill:none;}
	.st2{font-family:'FiraSans-Regular';}
	.st3{font-size:16px;}
	.st4{fill:#991915;stroke:#7C1716;stroke-width:2;stroke-miterlimit:10;}
	.st5{fill:#FFFFFF;stroke:#7C1716;stroke-width:2;stroke-miterlimit:10;}
</style>
<g>
	<circle class="st0" cx="59" cy="59" r="59"/>
	<g>
		<g>
			<rect x="28" y="89.1" class="st1" width="62" height="21.2"/>
			<text transform="matrix(1 0 0 1 34.8689 101.1218)" class="st2 st3">Health</text>
		</g>
		<g>
			<path class="st4" d="M82.7,36.5H35.3c-6.6,0-12,5.4-12,12v20.9c0,6.6,5.4,12,12,12h47.4c6.6,0,12-5.4,12-12V48.5
				C94.7,41.9,89.3,36.5,82.7,36.5z"/>
			<path class="st4" d="M43.3,40.3v-7.6c0-3.3,2.7-6.1,6.1-6.1h19.2c3.3,0,6.1,2.7,6.1,6.1v7.6h-3.9v-7.6c0,0,0.4-2.9-2-2.9
				c-2.1,0-19.4,0-19.4,0s-2.7-0.2-2.7,2.9c0,3.7,0,7.6,0,7.6H43.3z"/>
			<g>
				<polygon class="st5" points="54.1,71.4 63.9,71.4 63.9,63.4 71.8,63.4 71.8,54.5 63.9,54.5 63.9,46.5 54.1,46.5 54.1,54.5 
					46.1,54.5 46.1,63.4 54.1,63.4 				"/>
			</g>
		</g>
	</g>
</g>
</svg>
