<!--?xml version="1.0" encoding="utf-8"?-->
<!-- Generator: Adobe Illustrator 19.2.1, SVG Export Plug-In . SVG Version: 6.00 Build 0)  -->
<svg version="1.1" id="Layer_1" xmlns="http://www.w3.org/2000/svg" xmlns:xlink="http://www.w3.org/1999/xlink" x="0px" y="0px" viewBox="0 0 153 133.2" xml:space="preserve">
<style type="text/css">
	.st0{opacity:0.15;fill:#2F204F;enable-background:new    ;}
	.st1{fill:none;}
	.st2{font-family:'FiraSans-Regular';}
	.st3{font-size:12px;}
	.st4{fill:#403072;stroke:#2F214F;stroke-width:0.5;stroke-miterlimit:10;}
	.st5{fill:#1D71B8;stroke:#144866;stroke-width:0.5;stroke-miterlimit:10;}
	.st6{fill:#056E31;stroke:#065127;stroke-width:0.5;stroke-miterlimit:10;}
	.st7{fill:#F1F2F2;stroke:#2F214F;stroke-width:0.5;stroke-miterlimit:10;}
	.st8{fill:#575656;stroke:#FFFFFF;stroke-width:0.4;stroke-miterlimit:10;}
	.st9{fill:#F6F6F6;stroke:#FFFFFF;stroke-width:0.5;stroke-miterlimit:10;}
	.st10{fill:#FFFFFF;}
</style>
<g id="Oppression_of">
	<g>
		<path class="st0 otuYFlsD_0" d="M21.5,66.9A55.3,55.3 0,1,1 132.1,66.9A55.3,55.3 0,1,1 21.5,66.9"></path>
		<path class="st1 otuYFlsD_1" width="77.9" height="9.3" d="M37.9 62.2 L115.80000000000001 62.2 L115.80000000000001 71.5 L37.9 71.5 Z"></path>
		<text transform="matrix(1 0 0 1 38.4199 71.2746)" class="st2 st3">Oppression of</text>
		<g>
			<path class="st4 otuYFlsD_2" d="M106.6,31.8L113.1,31.8L113.1,15L121.6,15L121.6,9L113.1,9L113.1,2.1L106.6,2.1L106.6,9L98.1,9L
				98.1,15L106.6,15Z"></path>
		</g>
		<g>
			<g>
				<path class="st5 otuYFlsD_3" d="M126.3,86.9c0-2.2,1.8-4,4-4h5.9c2.2,0,4,1.8,4,4"></path>
				<path class="st5 otuYFlsD_4" d="M126.3,86.9v2.8h2.6V88c0,0,0-0.2,0.3-0.2s0.3,0.2,0.3,0.2v1.7h3.5h0.5h3.5V88c0,0,0-0.2,0.3-0.2
					s0.3,0.2,0.3,0.2v1.7h2.6v-2.8"></path>
				
					<path transform="matrix(1 -1.090215e-03 1.090215e-03 1 -8.631030e-02 0.1452)" class="st5 otuYFlsD_5" d="M130.2,79.2A3,3 0,1,1 136.2,79.2A3,3 0,1,1 130.2,79.2"></path>
			</g>
			<path class="st5 otuYFlsD_6" d="M134.5,111.2c-1.1,0-2.2,0-3.2,0c0-5.9,0-11.7,0-17.6c-2.5,0-5,0-7.5,0c0-0.9,0-1.8,0-2.7
				c6.1,0,12.2,0,18.3,0c0,0.9,0,1.8,0,2.7c-2.5,0-5,0-7.6,0C134.5,99.4,134.5,105.3,134.5,111.2z"></path>
			<g>
				<path class="st5 otuYFlsD_7" d="M114.1,79.9A3,3 0,1,1 120.1,79.9A3,3 0,1,1 114.1,79.9"></path>
			</g>
			<path class="st5 otuYFlsD_8" d="M124,99.2c-1.4,0-2.8,0-4.2,0s-2.7,0-4.1,0c-0.5,0-0.6-0.1-0.6-0.6c0-4.6,0-9.2,0-13.7
				c0-0.6,0.1-0.7,0.7-0.7c0.9,0,1.8,0,2.7,0c0.5,0,0.6,0.1,0.6,0.6c0,3.4,0,6.7,0,10.1c0,0.1,0,0.3,0,0.4c0.2,0,0.3,0,0.4,0
				c2.6,0,5.2,0,7.8,0c0.5,0,0.6,0.1,0.6,0.6c0,4.4,0,8.9,0,13.3c0,1.1-0.7,1.9-1.8,2c-0.9,0.1-1.8-0.6-2.1-1.5c0-0.2,0-0.4,0-0.6
				c0-3.1,0-6.2,0-9.4C124,99.5,124,99.4,124,99.2z"></path>
			<g>
				<path class="st5 otuYFlsD_9" d="M145.2,79.9A3,3 0,1,1 151.2,79.9A3,3 0,1,1 145.2,79.9"></path>
			</g>
			<path class="st5 otuYFlsD_10" d="M141.3,99.2c1.4,0,2.8,0,4.2,0s2.7,0,4.1,0c0.5,0,0.6-0.1,0.6-0.6c0-4.6,0-9.2,0-13.7c0-0.6-0.1-0.7-0.7-0.7
				c-0.9,0-1.8,0-2.7,0c-0.5,0-0.6,0.1-0.6,0.6c0,3.4,0,6.7,0,10.1c0,0.1,0,0.3,0,0.4c-0.2,0-0.3,0-0.4,0c-2.6,0-5.2,0-7.8,0
				c-0.5,0-0.6,0.1-0.6,0.6c0,4.4,0,8.9,0,13.3c0,1.1,0.7,1.9,1.8,2c0.9,0.1,1.8-0.6,2.1-1.5c0-0.2,0-0.4,0-0.6c0-3.1,0-6.2,0-9.4
				C141.3,99.5,141.3,99.4,141.3,99.2z"></path>
		</g>
		<g id="DQkqXX.tif_4_">
			<g>
				<path class="st6 otuYFlsD_11" d="M64.1,2.4c0,8.4,0,16.9,0,25.3c0,1.9-2.6,0-2.9-0.2c-3.6-1.8-7.3-3.7-11.1-5c-0.4-0.1-0.8-0.3-1.2-0.4
					c-0.2-0.1-0.3,0.1-0.3,0.2l0,0c0,2.4,0,4.7,0,7.1c0,0.9-0.5,1.4-1.3,1.4c-0.6,0-1.2,0-1.8,0c-1,0-1.5-0.5-1.5-1.5
					c0-2.3,0-4.7,0-7c0-0.5,0-0.9,0-1.4c0-0.1-0.1-0.2-0.2-0.3c-1.5-0.3-3-0.5-4.4-0.8c-0.2,0-0.3-0.1-0.3-0.3c0-3,0-5.9,0-8.9
					c0,0,0,0,0-0.1s0.1-0.2,0.2-0.2c1.4-0.3,2.7-0.5,4-0.8c2.9-0.6,5.6-1.4,8.4-2.5c3.4-1.3,6.6-3,9.9-4.6
					C61.7,2.3,64.1,0.7,64.1,2.4z"></path>
				<path class="st6 otuYFlsD_12" d="M34.8,10.3h2.9c0.1,0,0.3,0.1,0.3,0.3v8.8c0,0.1-0.1,0.3-0.3,0.3h-2.9c-0.1,0-0.3-0.1-0.3-0.3v-8.8
					C34.5,10.5,34.6,10.3,34.8,10.3z"></path>
			</g>
		</g>
		<g>
			<path class="st7 otuYFlsD_13" d="M11.3,79.8c0,0,0.9-5.4,6.6-6.6c5.7-1.1,7.1,4.6,7.1,4.6s3-0.6,4.6-0.1c1.7,0.5,4,2.8,4,4.2c0,0,7.7-2,7.4,5
				s-6.7,5.7-6.7,5.7s-0.7,5.5-4.6,7.1c-3.9,1.6-6.6,1.1-9.5-0.6c0,0-4.8,2.3-7.8,0.1c-3-2.2-2.7-2.7-3.5-4.9c0,0-4.3,0.8-5.8-2.6
				c-1.5-3.5,1-6.3,2.4-6.7C5.6,84.9,6.5,79.6,11.3,79.8z"></path>
			<path class="st7 otuYFlsD_14" d="M7.6,100.9A1.9,1.9 0,1,1 11.4,100.9A1.9,1.9 0,1,1 7.6,100.9"></path>
			<path class="st7 otuYFlsD_15" d="M5.1,103.6A1.2,1.2 0,1,1 7.5,103.6A1.2,1.2 0,1,1 5.1,103.6"></path>
			<path class="st7 otuYFlsD_16" d="M3,105.4A0.7,0.7 0,1,1 4.4,105.4A0.7,0.7 0,1,1 3,105.4"></path>
		</g>
		<g>
			<path class="st8 otuYFlsD_17" d="M67.8,131.4H84c1,0,1.8-0.8,1.8-1.8v-21.3c0-1-0.8-1.8-1.8-1.8H67.8c-1,0-1.8,0.8-1.8,1.8v21.3
				c0,0.8-0.9,1.7-2.2,1.7c-2.4,0-2.6-1.7-2.6-1.7s0.3,1.7,2,1.7C64.4,131.4,66,131.4,67.8,131.4z"></path>
			<path class="st9 otuYFlsD_18" d="M70.7,114.1h6.2c0.7,0,1.2-0.5,1.2-1.2V110c0-0.7-0.5-1.2-1.2-1.2h-6.2c-0.7,0-1.2,0.5-1.2,1.2v2.9
				C69.5,113.6,70,114.1,70.7,114.1z"></path>
			<g>
				<g>
					<path class="st10 otuYFlsD_19" d="M82.7,117.5c-4.4,0-8.8,0-13.2,0c-0.5,0-0.5,0.9,0,0.9c4.4,0,8.8,0,13.2,0
						C83.3,118.4,83.3,117.5,82.7,117.5L82.7,117.5z"></path>
				</g>
			</g>
			<g>
				<g>
					<path class="st10 otuYFlsD_20" d="M82.7,120.8c-4.4,0-8.8,0-13.2,0c-0.5,0-0.5,0.9,0,0.9c4.4,0,8.8,0,13.2,0
						C83.3,121.7,83.3,120.8,82.7,120.8L82.7,120.8z"></path>
				</g>
			</g>
			<g>
				<g>
					<path class="st10 otuYFlsD_21" d="M82.7,124.1c-4.4,0-8.8,0-13.2,0c-0.5,0-0.5,0.9,0,0.9c4.4,0,8.8,0,13.2,0
						C83.3,125,83.3,124.1,82.7,124.1L82.7,124.1z"></path>
				</g>
			</g>
			<g>
				<g>
					<path class="st10 otuYFlsD_22" d="M82.7,127.4c-4.4,0-8.8,0-13.2,0c-0.5,0-0.5,0.9,0,0.9c4.4,0,8.8,0,13.2,0
						C83.3,128.3,83.3,127.4,82.7,127.4L82.7,127.4z"></path>
				</g>
			</g>
			<g>
				<g>
					<path class="st10 otuYFlsD_23" d="M82.7,110.9c-0.6,0-1.1,0-1.7,0c-0.5,0-0.5,0.9,0,0.9c0.6,0,1.1,0,1.7,0
						C83.3,111.7,83.3,110.9,82.7,110.9L82.7,110.9z"></path>
				</g>
			</g>
			<g>
				<g>
					<path class="st10 otuYFlsD_24" d="M82.7,114.2c-0.6,0-1.1,0-1.7,0c-0.5,0-0.5,0.9,0,0.9c0.6,0,1.1,0,1.7,0S83.3,114.2,82.7,114.2
						L82.7,114.2z"></path>
				</g>
			</g>
			<path class="st8 otuYFlsD_25" d="M63.8,131.4c-3,0-2.6-2.5-2.6-2.5s0-12.6,0-14.3s1.5-1.7,1.5-1.7H66v16.8C66,129.7,66.1,131.4,63.8,131.4z"></path>
		</g>
	</g>
</g>
<style>.otuYFlsD_0{stroke-dasharray:348 350;stroke-dashoffset:349;animation:otuYFlsD_draw_0 4500ms linear 0ms infinite,otuYFlsD_fade 4500ms linear 0ms infinite;}.otuYFlsD_1{stroke-dasharray:175 177;stroke-dashoffset:176;animation:otuYFlsD_draw_1 4500ms linear 0ms infinite,otuYFlsD_fade 4500ms linear 0ms infinite;}.otuYFlsD_2{stroke-dasharray:107 109;stroke-dashoffset:108;animation:otuYFlsD_draw_2 4500ms linear 0ms infinite,otuYFlsD_fade 4500ms linear 0ms infinite;}.otuYFlsD_3{stroke-dasharray:19 21;stroke-dashoffset:20;animation:otuYFlsD_draw_3 4500ms linear 0ms infinite,otuYFlsD_fade 4500ms linear 0ms infinite;}.otuYFlsD_4{stroke-dasharray:27 29;stroke-dashoffset:28;animation:otuYFlsD_draw_4 4500ms linear 0ms infinite,otuYFlsD_fade 4500ms linear 0ms infinite;}.otuYFlsD_5{stroke-dasharray:19 21;stroke-dashoffset:20;animation:otuYFlsD_draw_5 4500ms linear 0ms infinite,otuYFlsD_fade 4500ms linear 0ms infinite;}.otuYFlsD_6{stroke-dasharray:78 80;stroke-dashoffset:79;animation:otuYFlsD_draw_6 4500ms linear 0ms infinite,otuYFlsD_fade 4500ms linear 0ms infinite;}.otuYFlsD_7{stroke-dasharray:19 21;stroke-dashoffset:20;animation:otuYFlsD_draw_7 4500ms linear 0ms infinite,otuYFlsD_fade 4500ms linear 0ms infinite;}.otuYFlsD_8{stroke-dasharray:78 80;stroke-dashoffset:79;animation:otuYFlsD_draw_8 4500ms linear 0ms infinite,otuYFlsD_fade 4500ms linear 0ms infinite;}.otuYFlsD_9{stroke-dasharray:19 21;stroke-dashoffset:20;animation:otuYFlsD_draw_9 4500ms linear 0ms infinite,otuYFlsD_fade 4500ms linear 0ms infinite;}.otuYFlsD_10{stroke-dasharray:78 80;stroke-dashoffset:79;animation:otuYFlsD_draw_10 4500ms linear 0ms infinite,otuYFlsD_fade 4500ms linear 0ms infinite;}.otuYFlsD_11{stroke-dasharray:107 109;stroke-dashoffset:108;animation:otuYFlsD_draw_11 4500ms linear 0ms infinite,otuYFlsD_fade 4500ms linear 0ms infinite;}.otuYFlsD_12{stroke-dasharray:26 28;stroke-dashoffset:27;animation:otuYFlsD_draw_12 4500ms linear 0ms infinite,otuYFlsD_fade 4500ms linear 0ms infinite;}.otuYFlsD_13{stroke-dasharray:108 110;stroke-dashoffset:109;animation:otuYFlsD_draw_13 4500ms linear 0ms infinite,otuYFlsD_fade 4500ms linear 0ms infinite;}.otuYFlsD_14{stroke-dasharray:12 14;stroke-dashoffset:13;animation:otuYFlsD_draw_14 4500ms linear 0ms infinite,otuYFlsD_fade 4500ms linear 0ms infinite;}.otuYFlsD_15{stroke-dasharray:8 10;stroke-dashoffset:9;animation:otuYFlsD_draw_15 4500ms linear 0ms infinite,otuYFlsD_fade 4500ms linear 0ms infinite;}.otuYFlsD_16{stroke-dasharray:5 7;stroke-dashoffset:6;animation:otuYFlsD_draw_16 4500ms linear 0ms infinite,otuYFlsD_fade 4500ms linear 0ms infinite;}.otuYFlsD_17{stroke-dasharray:98 100;stroke-dashoffset:99;animation:otuYFlsD_draw_17 4500ms linear 0ms infinite,otuYFlsD_fade 4500ms linear 0ms infinite;}.otuYFlsD_18{stroke-dasharray:26 28;stroke-dashoffset:27;animation:otuYFlsD_draw_18 4500ms linear 0ms infinite,otuYFlsD_fade 4500ms linear 0ms infinite;}.otuYFlsD_19{stroke-dasharray:30 32;stroke-dashoffset:31;animation:otuYFlsD_draw_19 4500ms linear 0ms infinite,otuYFlsD_fade 4500ms linear 0ms infinite;}.otuYFlsD_20{stroke-dasharray:30 32;stroke-dashoffset:31;animation:otuYFlsD_draw_20 4500ms linear 0ms infinite,otuYFlsD_fade 4500ms linear 0ms infinite;}.otuYFlsD_21{stroke-dasharray:30 32;stroke-dashoffset:31;animation:otuYFlsD_draw_21 4500ms linear 0ms infinite,otuYFlsD_fade 4500ms linear 0ms infinite;}.otuYFlsD_22{stroke-dasharray:30 32;stroke-dashoffset:31;animation:otuYFlsD_draw_22 4500ms linear 0ms infinite,otuYFlsD_fade 4500ms linear 0ms infinite;}.otuYFlsD_23{stroke-dasharray:7 9;stroke-dashoffset:8;animation:otuYFlsD_draw_23 4500ms linear 0ms infinite,otuYFlsD_fade 4500ms linear 0ms infinite;}.otuYFlsD_24{stroke-dasharray:7 9;stroke-dashoffset:8;animation:otuYFlsD_draw_24 4500ms linear 0ms infinite,otuYFlsD_fade 4500ms linear 0ms infinite;}.otuYFlsD_25{stroke-dasharray:45 47;stroke-dashoffset:46;animation:otuYFlsD_draw_25 4500ms linear 0ms infinite,otuYFlsD_fade 4500ms linear 0ms infinite;}@keyframes otuYFlsD_draw{100%{stroke-dashoffset:0;}}@keyframes otuYFlsD_fade{0%{stroke-opacity:1;}91.11111111111111%{stroke-opacity:1;}100%{stroke-opacity:0;}}@keyframes otuYFlsD_draw_0{2.2222222222222223%{stroke-dashoffset: 349}46.666666666666664%{ stroke-dashoffset: 0;}100%{ stroke-dashoffset: 0;}}@keyframes otuYFlsD_draw_1{3.111111111111111%{stroke-dashoffset: 176}47.55555555555556%{ stroke-dashoffset: 0;}100%{ stroke-dashoffset: 0;}}@keyframes otuYFlsD_draw_2{4%{stroke-dashoffset: 108}48.44444444444444%{ stroke-dashoffset: 0;}100%{ stroke-dashoffset: 0;}}@keyframes otuYFlsD_draw_3{4.888888888888889%{stroke-dashoffset: 20}49.333333333333336%{ stroke-dashoffset: 0;}100%{ stroke-dashoffset: 0;}}@keyframes otuYFlsD_draw_4{5.777777777777778%{stroke-dashoffset: 28}50.22222222222222%{ stroke-dashoffset: 0;}100%{ stroke-dashoffset: 0;}}@keyframes otuYFlsD_draw_5{6.666666666666667%{stroke-dashoffset: 20}51.11111111111111%{ stroke-dashoffset: 0;}100%{ stroke-dashoffset: 0;}}@keyframes otuYFlsD_draw_6{7.555555555555555%{stroke-dashoffset: 79}52%{ stroke-dashoffset: 0;}100%{ stroke-dashoffset: 0;}}@keyframes otuYFlsD_draw_7{8.444444444444445%{stroke-dashoffset: 20}52.888888888888886%{ stroke-dashoffset: 0;}100%{ stroke-dashoffset: 0;}}@keyframes otuYFlsD_draw_8{9.333333333333334%{stroke-dashoffset: 79}53.77777777777778%{ stroke-dashoffset: 0;}100%{ stroke-dashoffset: 0;}}@keyframes otuYFlsD_draw_9{10.222222222222223%{stroke-dashoffset: 20}54.666666666666664%{ stroke-dashoffset: 0;}100%{ stroke-dashoffset: 0;}}@keyframes otuYFlsD_draw_10{11.11111111111111%{stroke-dashoffset: 79}55.55555555555556%{ stroke-dashoffset: 0;}100%{ stroke-dashoffset: 0;}}@keyframes otuYFlsD_draw_11{12%{stroke-dashoffset: 108}56.44444444444444%{ stroke-dashoffset: 0;}100%{ stroke-dashoffset: 0;}}@keyframes otuYFlsD_draw_12{12.88888888888889%{stroke-dashoffset: 27}57.333333333333336%{ stroke-dashoffset: 0;}100%{ stroke-dashoffset: 0;}}@keyframes otuYFlsD_draw_13{13.777777777777779%{stroke-dashoffset: 109}58.22222222222222%{ stroke-dashoffset: 0;}100%{ stroke-dashoffset: 0;}}@keyframes otuYFlsD_draw_14{14.666666666666666%{stroke-dashoffset: 13}59.111111111111114%{ stroke-dashoffset: 0;}100%{ stroke-dashoffset: 0;}}@keyframes otuYFlsD_draw_15{15.555555555555555%{stroke-dashoffset: 9}60%{ stroke-dashoffset: 0;}100%{ stroke-dashoffset: 0;}}@keyframes otuYFlsD_draw_16{16.444444444444446%{stroke-dashoffset: 6}60.88888888888889%{ stroke-dashoffset: 0;}100%{ stroke-dashoffset: 0;}}@keyframes otuYFlsD_draw_17{17.333333333333336%{stroke-dashoffset: 99}61.77777777777778%{ stroke-dashoffset: 0;}100%{ stroke-dashoffset: 0;}}@keyframes otuYFlsD_draw_18{18.22222222222222%{stroke-dashoffset: 27}62.66666666666667%{ stroke-dashoffset: 0;}100%{ stroke-dashoffset: 0;}}@keyframes otuYFlsD_draw_19{19.11111111111111%{stroke-dashoffset: 31}63.55555555555556%{ stroke-dashoffset: 0;}100%{ stroke-dashoffset: 0;}}@keyframes otuYFlsD_draw_20{20%{stroke-dashoffset: 31}64.44444444444444%{ stroke-dashoffset: 0;}100%{ stroke-dashoffset: 0;}}@keyframes otuYFlsD_draw_21{20.88888888888889%{stroke-dashoffset: 31}65.33333333333333%{ stroke-dashoffset: 0;}100%{ stroke-dashoffset: 0;}}@keyframes otuYFlsD_draw_22{21.777777777777775%{stroke-dashoffset: 31}66.22222222222223%{ stroke-dashoffset: 0;}100%{ stroke-dashoffset: 0;}}@keyframes otuYFlsD_draw_23{22.666666666666664%{stroke-dashoffset: 8}67.11111111111111%{ stroke-dashoffset: 0;}100%{ stroke-dashoffset: 0;}}@keyframes otuYFlsD_draw_24{23.555555555555554%{stroke-dashoffset: 8}68%{ stroke-dashoffset: 0;}100%{ stroke-dashoffset: 0;}}@keyframes otuYFlsD_draw_25{24.444444444444443%{stroke-dashoffset: 46}68.88888888888889%{ stroke-dashoffset: 0;}100%{ stroke-dashoffset: 0;}}</style></svg>
