<?xml version="1.0" encoding="utf-8"?>
<!-- Generator: Adobe Illustrator 19.2.1, SVG Export Plug-In . SVG Version: 6.00 Build 0)  -->
<svg version="1.1" id="Camada_1" xmlns="http://www.w3.org/2000/svg" xmlns:xlink="http://www.w3.org/1999/xlink" x="0px" y="0px"
	 viewBox="0 0 216.4 82.3" style="enable-background:new 0 0 216.4 82.3;" xml:space="preserve">
<style type="text/css">
	.st0{opacity:0.2;}
	.st1{fill:#334082;stroke:#2E1F4F;stroke-width:0.3;stroke-miterlimit:10;}
	.st2{fill:#7A3444;stroke:#2E1F4F;stroke-width:0.3;stroke-miterlimit:10;}
</style>
<g class="st0">
	<path class="st1" d="M3.4,60.5c0-1.7,1.4-3.1,3.1-3.1h4.7c1.7,0,3.1,1.4,3.1,3.1"/>
	<path class="st1" d="M3.4,60.5v7.1c0,0,0,1.1,1,1.1s1-1.1,1-1.1v-6.3c0,0,0-0.2,0.2-0.2c0.2,0,0.2,0.2,0.2,0.2v18.2
		c0,0,0,1.3,1.4,1.3s1.4-1.3,1.4-1.3V69.2c0,0,0-0.2,0.2-0.2c0.2,0,0.2,0.2,0.2,0.2v10.4c0,0,0,1.3,1.4,1.3s1.4-1.3,1.4-1.3V61.4
		c0,0,0-0.2,0.2-0.2s0.2,0.2,0.2,0.2v6.3c0,0,0,1.1,1,1.1s1-1.1,1-1.1v-7.1"/>
	<circle class="st1" cx="8.9" cy="54.4" r="2.4"/>
</g>
<g class="st0">
	<path class="st2" d="M25.6,60.5c0-1.7,1.4-3.1,3.1-3.1h4.7c1.7,0,3.1,1.4,3.1,3.1"/>
	<path class="st2" d="M25.6,60.5v7.1c0,0,0,1.1,1,1.1s1-1.1,1-1.1v-6.3c0,0,0-0.2,0.2-0.2s0.2,0.2,0.2,0.2v18.2c0,0,0,1.3,1.4,1.3
		c1.4,0,1.4-1.3,1.4-1.3V69.2c0,0,0-0.2,0.2-0.2s0.2,0.2,0.2,0.2v10.4c0,0,0,1.3,1.4,1.3c1.4,0,1.4-1.3,1.4-1.3V61.4
		c0,0,0-0.2,0.2-0.2s0.2,0.2,0.2,0.2v6.3c0,0,0,1.1,1,1.1c1,0,1-1.1,1-1.1v-7.1"/>
	<circle class="st2" cx="31.1" cy="54.4" r="2.4"/>
</g>
<g class="st0">
	<path class="st1" d="M25.4,48.1c0,1.7-1.4,3.1-3.1,3.1h-4.7c-1.7,0-3.1-1.4-3.1-3.1"/>
	<path class="st1" d="M25.4,48.1v-7.1c0,0,0-1.1-1-1.1s-1,1.1-1,1.1v6.3c0,0,0,0.2-0.2,0.2s-0.2-0.2-0.2-0.2V29c0,0,0-1.3-1.4-1.3
		c-1.4,0-1.4,1.3-1.4,1.3v10.4c0,0,0,0.2-0.2,0.2s-0.2-0.2-0.2-0.2V29c0,0,0-1.3-1.4-1.3C17,27.7,17,29,17,29v18.2
		c0,0,0,0.2-0.2,0.2s-0.2-0.2-0.2-0.2v-6.3c0,0,0-1.1-1-1.1s-1,1.1-1,1.1v7.1"/>
	<circle class="st1" cx="20" cy="54.2" r="2.4"/>
</g>
<g class="st0">
	<path class="st2" d="M47.6,48.1c0,1.7-1.4,3.1-3.1,3.1h-4.7c-1.7,0-3.1-1.4-3.1-3.1"/>
	<path class="st2" d="M47.6,48.1v-7.1c0,0,0-1.1-1-1.1c-1,0-1,1.1-1,1.1v6.3c0,0,0,0.2-0.2,0.2s-0.2-0.2-0.2-0.2V29
		c0,0,0-1.3-1.4-1.3S42.4,29,42.4,29v10.4c0,0,0,0.2-0.2,0.2c-0.2,0-0.2-0.2-0.2-0.2V29c0,0,0-1.3-1.4-1.3c-1.4,0-1.4,1.3-1.4,1.3
		v18.2c0,0,0,0.2-0.2,0.2s-0.2-0.2-0.2-0.2v-6.3c0,0,0-1.1-1-1.1c-1,0-1,1.1-1,1.1v7.1"/>
	<circle class="st2" cx="42.2" cy="54.2" r="2.4"/>
</g>
<g class="st0">
	<path class="st1" d="M47.8,60.5c0-1.7,1.4-3.1,3.1-3.1h4.7c1.7,0,3.1,1.4,3.1,3.1"/>
	<path class="st1" d="M47.8,60.5v7.1c0,0,0,1.1,1,1.1c1,0,1-1.1,1-1.1v-6.3c0,0,0-0.2,0.2-0.2s0.2,0.2,0.2,0.2v18.2
		c0,0,0,1.3,1.4,1.3c1.4,0,1.4-1.3,1.4-1.3V69.2c0,0,0-0.2,0.2-0.2c0.2,0,0.2,0.2,0.2,0.2v10.4c0,0,0,1.3,1.4,1.3s1.4-1.3,1.4-1.3
		V61.4c0,0,0-0.2,0.2-0.2s0.2,0.2,0.2,0.2v6.3c0,0,0,1.1,1,1.1c1,0,1-1.1,1-1.1v-7.1"/>
	<circle class="st1" cx="53.3" cy="54.4" r="2.4"/>
</g>
<g class="st0">
	<path class="st2" d="M70,60.5c0-1.7,1.4-3.1,3.1-3.1h4.7c1.7,0,3.1,1.4,3.1,3.1"/>
	<path class="st2" d="M70,60.5v7.1c0,0,0,1.1,1,1.1s1-1.1,1-1.1v-6.3c0,0,0-0.2,0.2-0.2s0.2,0.2,0.2,0.2v18.2c0,0,0,1.3,1.4,1.3
		c1.4,0,1.4-1.3,1.4-1.3V69.2c0,0,0-0.2,0.2-0.2s0.2,0.2,0.2,0.2v10.4c0,0,0,1.3,1.4,1.3s1.4-1.3,1.4-1.3V61.4c0,0,0-0.2,0.2-0.2
		s0.2,0.2,0.2,0.2v6.3c0,0,0,1.1,1,1.1s1-1.1,1-1.1v-7.1"/>
	<circle class="st2" cx="75.4" cy="54.4" r="2.4"/>
</g>
<g class="st0">
	<path class="st1" d="M69.8,48.1c0,1.7-1.4,3.1-3.1,3.1H62c-1.7,0-3.1-1.4-3.1-3.1"/>
	<path class="st1" d="M69.8,48.1v-7.1c0,0,0-1.1-1-1.1c-1,0-1,1.1-1,1.1v6.3c0,0,0,0.2-0.2,0.2s-0.2-0.2-0.2-0.2V29
		c0,0,0-1.3-1.4-1.3c-1.4,0-1.4,1.3-1.4,1.3v10.4c0,0,0,0.2-0.2,0.2s-0.2-0.2-0.2-0.2V29c0,0,0-1.3-1.4-1.3c-1.4,0-1.4,1.3-1.4,1.3
		v18.2c0,0,0,0.2-0.2,0.2s-0.2-0.2-0.2-0.2v-6.3c0,0,0-1.1-1-1.1c-1,0-1,1.1-1,1.1v7.1"/>
	<circle class="st1" cx="64.3" cy="54.2" r="2.4"/>
</g>
<g class="st0">
	<path class="st2" d="M92,48.1c0,1.7-1.4,3.1-3.1,3.1h-4.7c-1.7,0-3.1-1.4-3.1-3.1"/>
	<path class="st2" d="M92,48.1v-7.1c0,0,0-1.1-1-1.1c-1,0-1,1.1-1,1.1v6.3c0,0,0,0.2-0.2,0.2s-0.2-0.2-0.2-0.2V29c0,0,0-1.3-1.4-1.3
		c-1.4,0-1.4,1.3-1.4,1.3v10.4c0,0,0,0.2-0.2,0.2s-0.2-0.2-0.2-0.2V29c0,0,0-1.3-1.4-1.3c-1.4,0-1.4,1.3-1.4,1.3v18.2
		c0,0,0,0.2-0.2,0.2s-0.2-0.2-0.2-0.2v-6.3c0,0,0-1.1-1-1.1c-1,0-1,1.1-1,1.1v7.1"/>
	<circle class="st2" cx="86.5" cy="54.2" r="2.4"/>
</g>
<g class="st0">
	<path class="st1" d="M92.2,60.5c0-1.7,1.4-3.1,3.1-3.1h4.7c1.7,0,3.1,1.4,3.1,3.1"/>
	<path class="st1" d="M92.2,60.5v7.1c0,0,0,1.1,1,1.1s1-1.1,1-1.1v-6.3c0,0,0-0.2,0.2-0.2s0.2,0.2,0.2,0.2v18.2c0,0,0,1.3,1.4,1.3
		c1.4,0,1.4-1.3,1.4-1.3V69.2c0,0,0-0.2,0.2-0.2s0.2,0.2,0.2,0.2v10.4c0,0,0,1.3,1.4,1.3s1.4-1.3,1.4-1.3V61.4c0,0,0-0.2,0.2-0.2
		s0.2,0.2,0.2,0.2v6.3c0,0,0,1.1,1,1.1s1-1.1,1-1.1v-7.1"/>
	<circle class="st1" cx="97.6" cy="54.4" r="2.4"/>
</g>
<g class="st0">
	<path class="st2" d="M114.3,60.5c0-1.7,1.4-3.1,3.1-3.1h4.7c1.7,0,3.1,1.4,3.1,3.1"/>
	<path class="st2" d="M114.3,60.5v7.1c0,0,0,1.1,1,1.1s1-1.1,1-1.1v-6.3c0,0,0-0.2,0.2-0.2s0.2,0.2,0.2,0.2v18.2c0,0,0,1.3,1.4,1.3
		s1.4-1.3,1.4-1.3V69.2c0,0,0-0.2,0.2-0.2s0.2,0.2,0.2,0.2v10.4c0,0,0,1.3,1.4,1.3s1.4-1.3,1.4-1.3V61.4c0,0,0-0.2,0.2-0.2
		s0.2,0.2,0.2,0.2v6.3c0,0,0,1.1,1,1.1s1-1.1,1-1.1v-7.1"/>
	<circle class="st2" cx="119.8" cy="54.4" r="2.4"/>
</g>
<g class="st0">
	<path class="st1" d="M114.2,48.1c0,1.7-1.4,3.1-3.1,3.1h-4.7c-1.7,0-3.1-1.4-3.1-3.1"/>
	<path class="st1" d="M114.2,48.1v-7.1c0,0,0-1.1-1-1.1c-1,0-1,1.1-1,1.1v6.3c0,0,0,0.2-0.2,0.2s-0.2-0.2-0.2-0.2V29
		c0,0,0-1.3-1.4-1.3c-1.4,0-1.4,1.3-1.4,1.3v10.4c0,0,0,0.2-0.2,0.2s-0.2-0.2-0.2-0.2V29c0,0,0-1.3-1.4-1.3c-1.4,0-1.4,1.3-1.4,1.3
		v18.2c0,0,0,0.2-0.2,0.2s-0.2-0.2-0.2-0.2v-6.3c0,0,0-1.1-1-1.1c-1,0-1,1.1-1,1.1v7.1"/>
	<circle class="st1" cx="108.7" cy="54.2" r="2.4"/>
</g>
<g class="st0">
	<path class="st2" d="M136.4,48.1c0,1.7-1.4,3.1-3.1,3.1h-4.7c-1.7,0-3.1-1.4-3.1-3.1"/>
	<path class="st2" d="M136.4,48.1v-7.1c0,0,0-1.1-1-1.1c-1,0-1,1.1-1,1.1v6.3c0,0,0,0.2-0.2,0.2c-0.2,0-0.2-0.2-0.2-0.2V29
		c0,0,0-1.3-1.4-1.3s-1.4,1.3-1.4,1.3v10.4c0,0,0,0.2-0.2,0.2c-0.2,0-0.2-0.2-0.2-0.2V29c0,0,0-1.3-1.4-1.3c-1.4,0-1.4,1.3-1.4,1.3
		v18.2c0,0,0,0.2-0.2,0.2s-0.2-0.2-0.2-0.2v-6.3c0,0,0-1.1-1-1.1c-1,0-1,1.1-1,1.1v7.1"/>
	<circle class="st2" cx="130.9" cy="54.2" r="2.4"/>
</g>
<g class="st0">
	<path class="st1" d="M136.5,60.5c0-1.7,1.4-3.1,3.1-3.1h4.7c1.7,0,3.1,1.4,3.1,3.1"/>
	<path class="st1" d="M136.5,60.5v7.1c0,0,0,1.1,1,1.1s1-1.1,1-1.1v-6.3c0,0,0-0.2,0.2-0.2c0.2,0,0.2,0.2,0.2,0.2v18.2
		c0,0,0,1.3,1.4,1.3c1.4,0,1.4-1.3,1.4-1.3V69.2c0,0,0-0.2,0.2-0.2c0.2,0,0.2,0.2,0.2,0.2v10.4c0,0,0,1.3,1.4,1.3s1.4-1.3,1.4-1.3
		V61.4c0,0,0-0.2,0.2-0.2c0.2,0,0.2,0.2,0.2,0.2v6.3c0,0,0,1.1,1,1.1c1,0,1-1.1,1-1.1v-7.1"/>
	<circle class="st1" cx="142" cy="54.4" r="2.4"/>
</g>
<g class="st0">
	<path class="st2" d="M158.7,60.5c0-1.7,1.4-3.1,3.1-3.1h4.7c1.7,0,3.1,1.4,3.1,3.1"/>
	<path class="st2" d="M158.7,60.5v7.1c0,0,0,1.1,1,1.1c1,0,1-1.1,1-1.1v-6.3c0,0,0-0.2,0.2-0.2c0.2,0,0.2,0.2,0.2,0.2v18.2
		c0,0,0,1.3,1.4,1.3s1.4-1.3,1.4-1.3V69.2c0,0,0-0.2,0.2-0.2c0.2,0,0.2,0.2,0.2,0.2v10.4c0,0,0,1.3,1.4,1.3c1.4,0,1.4-1.3,1.4-1.3
		V61.4c0,0,0-0.2,0.2-0.2c0.2,0,0.2,0.2,0.2,0.2v6.3c0,0,0,1.1,1,1.1s1-1.1,1-1.1v-7.1"/>
	<circle class="st2" cx="164.2" cy="54.4" r="2.4"/>
</g>
<g class="st0">
	<path class="st1" d="M158.6,48.1c0,1.7-1.4,3.1-3.1,3.1h-4.7c-1.7,0-3.1-1.4-3.1-3.1"/>
	<path class="st1" d="M158.6,48.1v-7.1c0,0,0-1.1-1-1.1c-1,0-1,1.1-1,1.1v6.3c0,0,0,0.2-0.2,0.2c-0.2,0-0.2-0.2-0.2-0.2V29
		c0,0,0-1.3-1.4-1.3c-1.4,0-1.4,1.3-1.4,1.3v10.4c0,0,0,0.2-0.2,0.2s-0.2-0.2-0.2-0.2V29c0,0,0-1.3-1.4-1.3s-1.4,1.3-1.4,1.3v18.2
		c0,0,0,0.2-0.2,0.2c-0.2,0-0.2-0.2-0.2-0.2v-6.3c0,0,0-1.1-1-1.1c-1,0-1,1.1-1,1.1v7.1"/>
	<circle class="st1" cx="153.1" cy="54.2" r="2.4"/>
</g>
<g class="st0">
	<path class="st2" d="M180.8,48.1c0,1.7-1.4,3.1-3.1,3.1h-4.7c-1.7,0-3.1-1.4-3.1-3.1"/>
	<path class="st2" d="M180.7,48.1v-7.1c0,0,0-1.1-1-1.1c-1,0-1,1.1-1,1.1v6.3c0,0,0,0.2-0.2,0.2c-0.2,0-0.2-0.2-0.2-0.2V29
		c0,0,0-1.3-1.4-1.3s-1.4,1.3-1.4,1.3v10.4c0,0,0,0.2-0.2,0.2c-0.2,0-0.2-0.2-0.2-0.2V29c0,0,0-1.3-1.4-1.3s-1.4,1.3-1.4,1.3v18.2
		c0,0,0,0.2-0.2,0.2c-0.2,0-0.2-0.2-0.2-0.2v-6.3c0,0,0-1.1-1-1.1c-1,0-1,1.1-1,1.1v7.1"/>
	<circle class="st2" cx="175.3" cy="54.2" r="2.4"/>
</g>
<g class="st0">
	<path class="st1" d="M180.9,60.5c0-1.7,1.4-3.1,3.1-3.1h4.7c1.7,0,3.1,1.4,3.1,3.1"/>
	<path class="st1" d="M180.9,60.5v7.1c0,0,0,1.1,1,1.1s1-1.1,1-1.1v-6.3c0,0,0-0.2,0.2-0.2c0.2,0,0.2,0.2,0.2,0.2v18.2
		c0,0,0,1.3,1.4,1.3c1.4,0,1.4-1.3,1.4-1.3V69.2c0,0,0-0.2,0.2-0.2c0.2,0,0.2,0.2,0.2,0.2v10.4c0,0,0,1.3,1.4,1.3s1.4-1.3,1.4-1.3
		V61.4c0,0,0-0.2,0.2-0.2c0.2,0,0.2,0.2,0.2,0.2v6.3c0,0,0,1.1,1,1.1c1,0,1-1.1,1-1.1v-7.1"/>
	<circle class="st1" cx="186.4" cy="54.4" r="2.4"/>
</g>
<g class="st0">
	<path class="st2" d="M203.1,60.5c0-1.7,1.4-3.1,3.1-3.1h4.7c1.7,0,3.1,1.4,3.1,3.1"/>
	<path class="st2" d="M203.1,60.5v7.1c0,0,0,1.1,1,1.1c1,0,1-1.1,1-1.1v-6.3c0,0,0-0.2,0.2-0.2c0.2,0,0.2,0.2,0.2,0.2v18.2
		c0,0,0,1.3,1.4,1.3s1.4-1.3,1.4-1.3V69.2c0,0,0-0.2,0.2-0.2c0.2,0,0.2,0.2,0.2,0.2v10.4c0,0,0,1.3,1.4,1.3c1.4,0,1.4-1.3,1.4-1.3
		V61.4c0,0,0-0.2,0.2-0.2c0.2,0,0.2,0.2,0.2,0.2v6.3c0,0,0,1.1,1,1.1s1-1.1,1-1.1v-7.1"/>
	<circle class="st2" cx="208.6" cy="54.4" r="2.4"/>
</g>
<g class="st0">
	<path class="st1" d="M203,48.1c0,1.7-1.4,3.1-3.1,3.1h-4.7c-1.7,0-3.1-1.4-3.1-3.1"/>
	<path class="st1" d="M202.9,48.1v-7.1c0,0,0-1.1-1-1.1c-1,0-1,1.1-1,1.1v6.3c0,0,0,0.2-0.2,0.2c-0.2,0-0.2-0.2-0.2-0.2V29
		c0,0,0-1.3-1.4-1.3c-1.4,0-1.4,1.3-1.4,1.3v10.4c0,0,0,0.2-0.2,0.2c-0.2,0-0.2-0.2-0.2-0.2V29c0,0,0-1.3-1.4-1.3s-1.4,1.3-1.4,1.3
		v18.2c0,0,0,0.2-0.2,0.2c-0.2,0-0.2-0.2-0.2-0.2v-6.3c0,0,0-1.1-1-1.1c-1,0-1,1.1-1,1.1v7.1"/>
	<circle class="st1" cx="197.5" cy="54.2" r="2.4"/>
</g>
<g class="st0">
	<path class="st1" d="M3.4,9.9c0-1.7,1.4-3.1,3.1-3.1h4.7c1.7,0,3.1,1.4,3.1,3.1"/>
	<path class="st1" d="M3.4,9.9V17c0,0,0,1.1,1,1.1s1-1.1,1-1.1v-6.3c0,0,0-0.2,0.2-0.2c0.2,0,0.2,0.2,0.2,0.2V29c0,0,0,1.3,1.4,1.3
		S8.6,29,8.6,29V18.6c0,0,0-0.2,0.2-0.2c0.2,0,0.2,0.2,0.2,0.2V29c0,0,0,1.3,1.4,1.3s1.4-1.3,1.4-1.3V10.8c0,0,0-0.2,0.2-0.2
		s0.2,0.2,0.2,0.2V17c0,0,0,1.1,1,1.1s1-1.1,1-1.1V9.9"/>
	<circle class="st1" cx="8.9" cy="3.8" r="2.4"/>
</g>
<g class="st0">
	<path class="st2" d="M25.6,9.9c0-1.7,1.4-3.1,3.1-3.1h4.7c1.7,0,3.1,1.4,3.1,3.1"/>
	<path class="st2" d="M25.6,9.9V17c0,0,0,1.1,1,1.1s1-1.1,1-1.1v-6.3c0,0,0-0.2,0.2-0.2s0.2,0.2,0.2,0.2V29c0,0,0,1.3,1.4,1.3
		c1.4,0,1.4-1.3,1.4-1.3V18.6c0,0,0-0.2,0.2-0.2s0.2,0.2,0.2,0.2V29c0,0,0,1.3,1.4,1.3C34,30.2,34,29,34,29V10.8c0,0,0-0.2,0.2-0.2
		s0.2,0.2,0.2,0.2V17c0,0,0,1.1,1,1.1c1,0,1-1.1,1-1.1V9.9"/>
	<circle class="st2" cx="31.1" cy="3.8" r="2.4"/>
</g>
<g class="st0">
	<path class="st1" d="M47.8,9.9c0-1.7,1.4-3.1,3.1-3.1h4.7c1.7,0,3.1,1.4,3.1,3.1"/>
	<path class="st1" d="M47.8,9.9V17c0,0,0,1.1,1,1.1c1,0,1-1.1,1-1.1v-6.3c0,0,0-0.2,0.2-0.2s0.2,0.2,0.2,0.2V29c0,0,0,1.3,1.4,1.3
		C53,30.2,53,29,53,29V18.6c0,0,0-0.2,0.2-0.2c0.2,0,0.2,0.2,0.2,0.2V29c0,0,0,1.3,1.4,1.3s1.4-1.3,1.4-1.3V10.8c0,0,0-0.2,0.2-0.2
		s0.2,0.2,0.2,0.2V17c0,0,0,1.1,1,1.1c1,0,1-1.1,1-1.1V9.9"/>
	<circle class="st1" cx="53.3" cy="3.8" r="2.4"/>
</g>
<g class="st0">
	<path class="st2" d="M70,9.9c0-1.7,1.4-3.1,3.1-3.1h4.7c1.7,0,3.1,1.4,3.1,3.1"/>
	<path class="st2" d="M70,9.9V17c0,0,0,1.1,1,1.1s1-1.1,1-1.1v-6.3c0,0,0-0.2,0.2-0.2s0.2,0.2,0.2,0.2V29c0,0,0,1.3,1.4,1.3
		c1.4,0,1.4-1.3,1.4-1.3V18.6c0,0,0-0.2,0.2-0.2s0.2,0.2,0.2,0.2V29c0,0,0,1.3,1.4,1.3s1.4-1.3,1.4-1.3V10.8c0,0,0-0.2,0.2-0.2
		s0.2,0.2,0.2,0.2V17c0,0,0,1.1,1,1.1s1-1.1,1-1.1V9.9"/>
	<circle class="st2" cx="75.4" cy="3.8" r="2.4"/>
</g>
<g class="st0">
	<path class="st1" d="M92.2,9.9c0-1.7,1.4-3.1,3.1-3.1h4.7c1.7,0,3.1,1.4,3.1,3.1"/>
	<path class="st1" d="M92.2,9.9V17c0,0,0,1.1,1,1.1s1-1.1,1-1.1v-6.3c0,0,0-0.2,0.2-0.2s0.2,0.2,0.2,0.2V29c0,0,0,1.3,1.4,1.3
		c1.4,0,1.4-1.3,1.4-1.3V18.6c0,0,0-0.2,0.2-0.2s0.2,0.2,0.2,0.2V29c0,0,0,1.3,1.4,1.3s1.4-1.3,1.4-1.3V10.8c0,0,0-0.2,0.2-0.2
		s0.2,0.2,0.2,0.2V17c0,0,0,1.1,1,1.1s1-1.1,1-1.1V9.9"/>
	<circle class="st1" cx="97.6" cy="3.8" r="2.4"/>
</g>
<g class="st0">
	<path class="st2" d="M114.3,9.9c0-1.7,1.4-3.1,3.1-3.1h4.7c1.7,0,3.1,1.4,3.1,3.1"/>
	<path class="st2" d="M114.3,9.9V17c0,0,0,1.1,1,1.1s1-1.1,1-1.1v-6.3c0,0,0-0.2,0.2-0.2s0.2,0.2,0.2,0.2V29c0,0,0,1.3,1.4,1.3
		s1.4-1.3,1.4-1.3V18.6c0,0,0-0.2,0.2-0.2s0.2,0.2,0.2,0.2V29c0,0,0,1.3,1.4,1.3s1.4-1.3,1.4-1.3V10.8c0,0,0-0.2,0.2-0.2
		s0.2,0.2,0.2,0.2V17c0,0,0,1.1,1,1.1s1-1.1,1-1.1V9.9"/>
	<circle class="st2" cx="119.8" cy="3.8" r="2.4"/>
</g>
<g class="st0">
	<path class="st1" d="M136.5,9.9c0-1.7,1.4-3.1,3.1-3.1h4.7c1.7,0,3.1,1.4,3.1,3.1"/>
	<path class="st1" d="M136.5,9.9V17c0,0,0,1.1,1,1.1s1-1.1,1-1.1v-6.3c0,0,0-0.2,0.2-0.2c0.2,0,0.2,0.2,0.2,0.2V29
		c0,0,0,1.3,1.4,1.3c1.4,0,1.4-1.3,1.4-1.3V18.6c0,0,0-0.2,0.2-0.2c0.2,0,0.2,0.2,0.2,0.2V29c0,0,0,1.3,1.4,1.3s1.4-1.3,1.4-1.3
		V10.8c0,0,0-0.2,0.2-0.2c0.2,0,0.2,0.2,0.2,0.2V17c0,0,0,1.1,1,1.1c1,0,1-1.1,1-1.1V9.9"/>
	<circle class="st1" cx="142" cy="3.8" r="2.4"/>
</g>
<g class="st0">
	<path class="st2" d="M158.7,9.9c0-1.7,1.4-3.1,3.1-3.1h4.7c1.7,0,3.1,1.4,3.1,3.1"/>
	<path class="st2" d="M158.7,9.9V17c0,0,0,1.1,1,1.1c1,0,1-1.1,1-1.1v-6.3c0,0,0-0.2,0.2-0.2c0.2,0,0.2,0.2,0.2,0.2V29
		c0,0,0,1.3,1.4,1.3S164,29,164,29V18.6c0,0,0-0.2,0.2-0.2c0.2,0,0.2,0.2,0.2,0.2V29c0,0,0,1.3,1.4,1.3c1.4,0,1.4-1.3,1.4-1.3V10.8
		c0,0,0-0.2,0.2-0.2c0.2,0,0.2,0.2,0.2,0.2V17c0,0,0,1.1,1,1.1s1-1.1,1-1.1V9.9"/>
	<circle class="st2" cx="164.2" cy="3.8" r="2.4"/>
</g>
<g class="st0">
	<path class="st1" d="M180.9,9.9c0-1.7,1.4-3.1,3.1-3.1h4.7c1.7,0,3.1,1.4,3.1,3.1"/>
	<path class="st1" d="M180.9,9.9V17c0,0,0,1.1,1,1.1s1-1.1,1-1.1v-6.3c0,0,0-0.2,0.2-0.2c0.2,0,0.2,0.2,0.2,0.2V29
		c0,0,0,1.3,1.4,1.3c1.4,0,1.4-1.3,1.4-1.3V18.6c0,0,0-0.2,0.2-0.2c0.2,0,0.2,0.2,0.2,0.2V29c0,0,0,1.3,1.4,1.3s1.4-1.3,1.4-1.3
		V10.8c0,0,0-0.2,0.2-0.2c0.2,0,0.2,0.2,0.2,0.2V17c0,0,0,1.1,1,1.1c1,0,1-1.1,1-1.1V9.9"/>
	<circle class="st1" cx="186.4" cy="3.8" r="2.4"/>
</g>
<g class="st0">
	<path class="st2" d="M203.1,9.9c0-1.7,1.4-3.1,3.1-3.1h4.7c1.7,0,3.1,1.4,3.1,3.1"/>
	<path class="st2" d="M203.1,9.9V17c0,0,0,1.1,1,1.1c1,0,1-1.1,1-1.1v-6.3c0,0,0-0.2,0.2-0.2c0.2,0,0.2,0.2,0.2,0.2V29
		c0,0,0,1.3,1.4,1.3s1.4-1.3,1.4-1.3V18.6c0,0,0-0.2,0.2-0.2c0.2,0,0.2,0.2,0.2,0.2V29c0,0,0,1.3,1.4,1.3c1.4,0,1.4-1.3,1.4-1.3
		V10.8c0,0,0-0.2,0.2-0.2c0.2,0,0.2,0.2,0.2,0.2V17c0,0,0,1.1,1,1.1s1-1.1,1-1.1V9.9"/>
	<circle class="st2" cx="208.6" cy="3.8" r="2.4"/>
</g>
</svg>
