<!--?xml version="1.0" encoding="utf-8"?-->
<!-- Generator: Adobe Illustrator 19.2.1, SVG Export Plug-In . SVG Version: 6.00 Build 0)  -->
<svg version="1.1" id="Protection_from_discrimination_1_" xmlns="http://www.w3.org/2000/svg" xmlns:xlink="http://www.w3.org/1999/xlink" x="0px" y="0px" viewBox="0 0 196.1 215.7" xml:space="preserve">
<style type="text/css">
	.st0{opacity:0.15;fill:#2F204F;enable-background:new    ;}
	.st1{font-family:'FiraSans-Regular';}
	.st2{font-size:16px;}
	.st3{fill:#1D71B8;stroke:#144866;stroke-miterlimit:10;}
	.st4{fill:none;stroke:#F1F2F2;stroke-miterlimit:10;}
	.st5{fill:#F1F2F2;stroke:#144866;stroke-miterlimit:10;}
	.st6{fill:#FFFFFF;stroke:#144866;stroke-miterlimit:10;}
</style>
<g>
	<path class="st0 RQvzIlRS_0" d="M11.700000000000003,105A85,85 0,1,1 181.7,105A85,85 0,1,1 11.700000000000003,105"></path>
	<text transform="matrix(1 0 0 1 39.2138 101.7431)" class="st1 st2">Protection from </text>
	<text transform="matrix(1 0 0 1 44.0138 120.9431)" class="st1 st2">discrimination</text>
	<g>
		<g>
			<path class="st3 RQvzIlRS_1" d="M179.4,128.2c0,0-0.4-0.4-0.9-0.4s-0.9,0.4-0.9,0.4v24.7c0,0,0.1,3-3.2,3c-3.3,0-3.2-3-3.2-3v-43.3
				c0,0-0.2-0.4-0.7-0.4s-0.8,0.4-0.8,0.4v14.9c0,0,0,2.6-2.5,2.6s-2.5-2.6-2.5-2.6v-17c0-4.1,3.8-7.4,7.9-7.4h5.6"></path>
		</g>
		<g>
			<path class="st3 RQvzIlRS_2" d="M178.3,100.1l3.8,0.1c5.4,0.5,7.4,3.5,8.5,7.6l4,13.4c0,0,0.9,2.9-1.4,3.5c-2.3,0.7-3.1-2.2-3.1-2.2
				l-4.1-13.6c0,0-0.4-0.7-0.9-0.7s-0.8,0.2-0.8,0.2l7.4,25.5h-6.9v19c0,0,0,3.1-2.7,3.1s-2.7-3.1-2.7-3.1v-19c0,0,0-5.5,0-5.9
				c-0.2-0.3-0.9-0.4-0.9-0.4L178.3,100.1z"></path>
		</g>
		<path class="st3 RQvzIlRS_3" d="M172.70000000000002,93.2A5.6,5.6 0,1,1 183.9,93.2A5.6,5.6 0,1,1 172.70000000000002,93.2"></path>
		<path class="st4 RQvzIlRS_4" d="M178.5,127.3L178.3,100.7"></path>
		<path class="st4 RQvzIlRS_5" d="M178.3,98.3L178.3,88"></path>
	</g>
	<g>
		<g>
			<path class="st3 RQvzIlRS_6" d="M15.3,133c-0.5,0-0.7,0.4-0.7,0.4v24.7c0,0,0.1,3-3.2,3s-3.2-3-3.2-3v-43.3c0,0-0.3-0.4-0.8-0.4
				s-0.7,0.4-0.7,0.4v14.9c0,0,0,2.6-2.5,2.6s-2.5-2.6-2.5-2.6v-17c0-4.1,3.8-7.4,7.9-7.4h5.6"></path>
			<path class="st3 RQvzIlRS_7" d="M15.3,104c-3.1,0-5.6-2.5-5.6-5.6s2.5-5.6,5.6-5.6"></path>
		</g>
		<g>
			<path class="st5 RQvzIlRS_8" d="M15.3,105.4h5.6c4.1,0,7.9,3.3,7.9,7.4v17c0,0,0,2.6-2.5,2.6s-2.5-2.6-2.5-2.6v-14.9c0,0-0.2-0.4-0.7-0.4
				s-0.8,0.4-0.8,0.4v43.3c0,0,0.1,3-3.2,3s-3.2-3-3.2-3v-24.8c0,0-0.2-0.4-0.6-0.4"></path>
			<path class="st5 RQvzIlRS_9" d="M15.3,92.7c3.1,0,5.6,2.5,5.6,5.6s-2.5,5.6-5.6,5.6"></path>
		</g>
	</g>
	<g>
		<g>
			<path class="st3 RQvzIlRS_10" d="M149.1,21.3v17c0,0,0,2.6-2.5,2.6s-2.5-2.6-2.5-2.6V23.4c0,0,0-0.4-0.5-0.4s-0.5,0.4-0.5,0.4v43.3
				c0,0,0.1,3-3.2,3c-3.3,0-3.2-3-3.2-3V42c0,0-0.2-0.4-0.6-0.4c-0.5,0-0.7,0.4-0.7,0.4v24.7c0,0,0.1,3-3.2,3s-3.2-3-3.2-3V23.4
				c0,0,0-0.4-0.5-0.4c-0.5,0-0.6,0.4-0.6,0.4v14.9c0,0,0,2.6-2.5,2.6s-2.5-2.6-2.5-2.6v-17c0-4.1,3.3-7.4,7.4-7.4h11.2
				C145.8,13.9,149.1,17.2,149.1,21.3z"></path>
			<path class="st3 RQvzIlRS_11" d="M130.5,6.8A5.6,5.6 0,1,1 141.7,6.8A5.6,5.6 0,1,1 130.5,6.8"></path>
		</g>
		<path class="st6 RQvzIlRS_12" d="M135,31.8L137.3,31.8L137.3,25.8L140.3,25.8L140.3,23.6L137.3,23.6L137.3,21.1L135,21.1L135,23.6L
			131.9,23.6L131.9,25.8L135,25.8Z"></path>
	</g>
	<g>
		<path class="st3 RQvzIlRS_13" d="M88.4,177.3c0,0,0-2.9,2.8-2.9s2.8,2.9,2.8,2.9v2.5h10.3c0,0,2.8-0.1,2.8,2.2s-2.7,2.3-2.7,2.3H94.1v7h14.1
			c0,0,3.4-0.2,4,3.2c0.6,3.5,1.9,6.9,1.9,6.9l2.5-0.6c0,0,2.6-0.7,3.1,1.3c0.6,2-1.9,3-1.9,3l-4.3,1.1c0,0-2.4,0.7-3.3-1.7
			c-0.8-2.4-2.2-8-2.2-8s0-0.8-0.7-0.7H92.8c0,0-4.3,0.5-4.3-3C88.4,189.2,88.4,177.3,88.4,177.3z"></path>
		<path class="st3 RQvzIlRS_14" d="M85.60000000000001,167.5A5.6,5.6 0,1,1 96.8,167.5A5.6,5.6 0,1,1 85.60000000000001,167.5"></path>
		<path class="st3 RQvzIlRS_15" d="M85.3,184.6c2.9-1.4,0.8-5.3-1.6-4.3l0,0c-7.5,2.6-11.4,9.5-11.4,16.9c0,9.4,8.1,17.1,18.2,17.1
			c9.1,0,16.1-5.6,17.6-11.9c0.4-1.8-0.6-2.5-1.4-2.9c-0.7-0.3-1.4-0.3-2,0.1c-0.3,0.2-0.6,0.5-0.8,1c-0.4,0.9-0.1,0.4-0.5,1.4
			c-1.9,4.7-7.2,7.8-12.8,7.8c-7.5,0-13.5-5.7-13.5-12.7C77,191.7,79.9,186.6,85.3,184.6"></path>
	</g>
	<g>
		<g id="Homem_1_">
			<path class="st3 RQvzIlRS_16" d="M67.4,21c0.1,0.7,0.1,0.9,0.1,1.3l1.3,15.1c0,0,0.4,2.6-2,3.1c-2.5,0.4-2.9-2.6-2.9-2.6l-1.4-14.4
				c0,0-0.2-0.4-0.8-0.4s-0.8,0.4-0.8,0.4v43.3c0,0,0.1,3-3.2,3s-3.2-3-3.2-3V42.1c0,0-0.2-0.4-0.6-0.4s-0.7,0.4-0.7,0.4v24.7
				c0,0,0.1,3-3.2,3s-3.2-3-3.2-3V23.4c0,0-0.3-0.4-0.8-0.4s-0.8,0.4-0.8,0.4v14.9c0,0,0,2.6-2.5,2.6s-2.5-2.6-2.5-2.6v-17
				c0-4.1,3.8-7.4,7.9-7.4h11.2C63.5,13.9,66.9,16.8,67.4,21z"></path>
			<path class="st3 RQvzIlRS_17" d="M48.3,6.8A5.6,5.6 0,1,1 59.5,6.8A5.6,5.6 0,1,1 48.3,6.8"></path>
		</g>
		<path class="st3 RQvzIlRS_18" d="M67.5,40L67.5,40c0-0.5,0.4-0.8,0.8-0.8l0,0l0,0c0.4,0,0.8,0.4,0.8,0.8l0,0c0,0,0,0.7,0.6,0.7
			c0.7,0,0.7-0.7,0.7-0.7l0,0c0-0.7-0.3-1.3-0.9-1.7c-0.3-0.2-0.7-0.3-1.2-0.3c-0.4,0-0.8,0.1-1,0.2c-0.7,0.3-1.1,1-1.1,1.7l0,0
			v28.9c0,0,0,0.7,0.6,0.7c0.7,0,0.7-0.7,0.7-0.7L67.5,40"></path>
	</g>
	<g>
		<path class="st3 RQvzIlRS_19" d="M33.6,57.5V68c0,0,0,1.7-1.5,1.7c-1.5,0-1.5-1.7-1.5-1.7V57.5h-3.8l4.1-14.1c0,0-0.1-0.1-0.3-0.1
			c-0.3,0-0.4,0.4-0.4,0.4L28,51.2c0,0-0.5,1.6-1.7,1.2c-1.3-0.4-0.8-2-0.8-2l2.2-7.5c0.6-2.3,1.4-3.8,4.4-4.1h3.8
			c3,0.3,3.8,1.9,4.4,4.2l2.2,7.4c0,0,0.5,1.6-0.8,2S40,51.2,40,51.2l-2.3-7.5c0,0-0.1-0.4-0.4-0.4c-0.3,0-0.3,0.1-0.3,0.1l4.1,14.1
			h-3.8V68c0,0,0,1.7-1.5,1.7S34.3,68,34.3,68V57.5L33.6,57.5L33.6,57.5z"></path>
		<path class="st3 RQvzIlRS_20" d="M31,34.9A3.1,3.1 0,1,1 37.2,34.9A3.1,3.1 0,1,1 31,34.9"></path>
	</g>
</g>
<style>.RQvzIlRS_0{stroke-dasharray:535 537;stroke-dashoffset:536;animation:RQvzIlRS_draw_0 4500ms linear 0ms infinite,RQvzIlRS_fade 4500ms linear 0ms infinite;}.RQvzIlRS_1{stroke-dasharray:140 142;stroke-dashoffset:141;animation:RQvzIlRS_draw_1 4500ms linear 0ms infinite,RQvzIlRS_fade 4500ms linear 0ms infinite;}.RQvzIlRS_2{stroke-dasharray:170 172;stroke-dashoffset:171;animation:RQvzIlRS_draw_2 4500ms linear 0ms infinite,RQvzIlRS_fade 4500ms linear 0ms infinite;}.RQvzIlRS_3{stroke-dasharray:36 38;stroke-dashoffset:37;animation:RQvzIlRS_draw_3 4500ms linear 0ms infinite,RQvzIlRS_fade 4500ms linear 0ms infinite;}.RQvzIlRS_4{stroke-dasharray:27 29;stroke-dashoffset:28;animation:RQvzIlRS_draw_4 4500ms linear 0ms infinite,RQvzIlRS_fade 4500ms linear 0ms infinite;}.RQvzIlRS_5{stroke-dasharray:11 13;stroke-dashoffset:12;animation:RQvzIlRS_draw_5 4500ms linear 0ms infinite,RQvzIlRS_fade 4500ms linear 0ms infinite;}.RQvzIlRS_6{stroke-dasharray:139 141;stroke-dashoffset:140;animation:RQvzIlRS_draw_6 4500ms linear 0ms infinite,RQvzIlRS_fade 4500ms linear 0ms infinite;}.RQvzIlRS_7{stroke-dasharray:18 20;stroke-dashoffset:19;animation:RQvzIlRS_draw_7 4500ms linear 0ms infinite,RQvzIlRS_fade 4500ms linear 0ms infinite;}.RQvzIlRS_8{stroke-dasharray:139 141;stroke-dashoffset:140;animation:RQvzIlRS_draw_8 4500ms linear 0ms infinite,RQvzIlRS_fade 4500ms linear 0ms infinite;}.RQvzIlRS_9{stroke-dasharray:18 20;stroke-dashoffset:19;animation:RQvzIlRS_draw_9 4500ms linear 0ms infinite,RQvzIlRS_fade 4500ms linear 0ms infinite;}.RQvzIlRS_10{stroke-dasharray:275 277;stroke-dashoffset:276;animation:RQvzIlRS_draw_10 4500ms linear 0ms infinite,RQvzIlRS_fade 4500ms linear 0ms infinite;}.RQvzIlRS_11{stroke-dasharray:36 38;stroke-dashoffset:37;animation:RQvzIlRS_draw_11 4500ms linear 0ms infinite,RQvzIlRS_fade 4500ms linear 0ms infinite;}.RQvzIlRS_12{stroke-dasharray:39 41;stroke-dashoffset:40;animation:RQvzIlRS_draw_12 4500ms linear 0ms infinite,RQvzIlRS_fade 4500ms linear 0ms infinite;}.RQvzIlRS_13{stroke-dasharray:139 141;stroke-dashoffset:140;animation:RQvzIlRS_draw_13 4500ms linear 0ms infinite,RQvzIlRS_fade 4500ms linear 0ms infinite;}.RQvzIlRS_14{stroke-dasharray:36 38;stroke-dashoffset:37;animation:RQvzIlRS_draw_14 4500ms linear 0ms infinite,RQvzIlRS_fade 4500ms linear 0ms infinite;}.RQvzIlRS_15{stroke-dasharray:141 143;stroke-dashoffset:142;animation:RQvzIlRS_draw_15 4500ms linear 0ms infinite,RQvzIlRS_fade 4500ms linear 0ms infinite;}.RQvzIlRS_16{stroke-dasharray:276 278;stroke-dashoffset:277;animation:RQvzIlRS_draw_16 4500ms linear 0ms infinite,RQvzIlRS_fade 4500ms linear 0ms infinite;}.RQvzIlRS_17{stroke-dasharray:36 38;stroke-dashoffset:37;animation:RQvzIlRS_draw_17 4500ms linear 0ms infinite,RQvzIlRS_fade 4500ms linear 0ms infinite;}.RQvzIlRS_18{stroke-dasharray:71 73;stroke-dashoffset:72;animation:RQvzIlRS_draw_18 4500ms linear 0ms infinite,RQvzIlRS_fade 4500ms linear 0ms infinite;}.RQvzIlRS_19{stroke-dasharray:150 152;stroke-dashoffset:151;animation:RQvzIlRS_draw_19 4500ms linear 0ms infinite,RQvzIlRS_fade 4500ms linear 0ms infinite;}.RQvzIlRS_20{stroke-dasharray:20 22;stroke-dashoffset:21;animation:RQvzIlRS_draw_20 4500ms linear 0ms infinite,RQvzIlRS_fade 4500ms linear 0ms infinite;}@keyframes RQvzIlRS_draw{100%{stroke-dashoffset:0;}}@keyframes RQvzIlRS_fade{0%{stroke-opacity:1;}91.11111111111111%{stroke-opacity:1;}100%{stroke-opacity:0;}}@keyframes RQvzIlRS_draw_0{2.2222222222222223%{stroke-dashoffset: 536}46.666666666666664%{ stroke-dashoffset: 0;}100%{ stroke-dashoffset: 0;}}@keyframes RQvzIlRS_draw_1{3.3333333333333335%{stroke-dashoffset: 141}47.77777777777778%{ stroke-dashoffset: 0;}100%{ stroke-dashoffset: 0;}}@keyframes RQvzIlRS_draw_2{4.444444444444445%{stroke-dashoffset: 171}48.888888888888886%{ stroke-dashoffset: 0;}100%{ stroke-dashoffset: 0;}}@keyframes RQvzIlRS_draw_3{5.555555555555555%{stroke-dashoffset: 37}50%{ stroke-dashoffset: 0;}100%{ stroke-dashoffset: 0;}}@keyframes RQvzIlRS_draw_4{6.666666666666667%{stroke-dashoffset: 28}51.11111111111111%{ stroke-dashoffset: 0;}100%{ stroke-dashoffset: 0;}}@keyframes RQvzIlRS_draw_5{7.777777777777778%{stroke-dashoffset: 12}52.22222222222223%{ stroke-dashoffset: 0;}100%{ stroke-dashoffset: 0;}}@keyframes RQvzIlRS_draw_6{8.88888888888889%{stroke-dashoffset: 140}53.333333333333336%{ stroke-dashoffset: 0;}100%{ stroke-dashoffset: 0;}}@keyframes RQvzIlRS_draw_7{10%{stroke-dashoffset: 19}54.44444444444444%{ stroke-dashoffset: 0;}100%{ stroke-dashoffset: 0;}}@keyframes RQvzIlRS_draw_8{11.11111111111111%{stroke-dashoffset: 140}55.55555555555556%{ stroke-dashoffset: 0;}100%{ stroke-dashoffset: 0;}}@keyframes RQvzIlRS_draw_9{12.222222222222221%{stroke-dashoffset: 19}56.666666666666664%{ stroke-dashoffset: 0;}100%{ stroke-dashoffset: 0;}}@keyframes RQvzIlRS_draw_10{13.333333333333334%{stroke-dashoffset: 276}57.77777777777777%{ stroke-dashoffset: 0;}100%{ stroke-dashoffset: 0;}}@keyframes RQvzIlRS_draw_11{14.444444444444443%{stroke-dashoffset: 37}58.88888888888889%{ stroke-dashoffset: 0;}100%{ stroke-dashoffset: 0;}}@keyframes RQvzIlRS_draw_12{15.555555555555555%{stroke-dashoffset: 40}60%{ stroke-dashoffset: 0;}100%{ stroke-dashoffset: 0;}}@keyframes RQvzIlRS_draw_13{16.666666666666664%{stroke-dashoffset: 140}61.111111111111114%{ stroke-dashoffset: 0;}100%{ stroke-dashoffset: 0;}}@keyframes RQvzIlRS_draw_14{17.77777777777778%{stroke-dashoffset: 37}62.22222222222222%{ stroke-dashoffset: 0;}100%{ stroke-dashoffset: 0;}}@keyframes RQvzIlRS_draw_15{18.88888888888889%{stroke-dashoffset: 142}63.33333333333333%{ stroke-dashoffset: 0;}100%{ stroke-dashoffset: 0;}}@keyframes RQvzIlRS_draw_16{20%{stroke-dashoffset: 277}64.44444444444444%{ stroke-dashoffset: 0;}100%{ stroke-dashoffset: 0;}}@keyframes RQvzIlRS_draw_17{21.11111111111111%{stroke-dashoffset: 37}65.55555555555556%{ stroke-dashoffset: 0;}100%{ stroke-dashoffset: 0;}}@keyframes RQvzIlRS_draw_18{22.22222222222222%{stroke-dashoffset: 72}66.66666666666666%{ stroke-dashoffset: 0;}100%{ stroke-dashoffset: 0;}}@keyframes RQvzIlRS_draw_19{23.333333333333332%{stroke-dashoffset: 151}67.77777777777779%{ stroke-dashoffset: 0;}100%{ stroke-dashoffset: 0;}}@keyframes RQvzIlRS_draw_20{24.444444444444443%{stroke-dashoffset: 21}68.88888888888889%{ stroke-dashoffset: 0;}100%{ stroke-dashoffset: 0;}}</style></svg>
