<!--?xml version="1.0" encoding="utf-8"?-->
<!-- Generator: Adobe Illustrator 19.2.1, SVG Export Plug-In . SVG Version: 6.00 Build 0)  -->
<svg version="1.1" id="Layer_1" xmlns="http://www.w3.org/2000/svg" xmlns:xlink="http://www.w3.org/1999/xlink" x="0px" y="0px" viewBox="0 0 118.8 124.4" xml:space="preserve">
<style type="text/css">
	.st0{opacity:0.15;fill:#2F204F;enable-background:new    ;}
	.st1{fill:none;}
	.st2{font-family:'FiraSans-Regular';}
	.st3{font-size:12px;}
	.st4{fill:#1D71B8;stroke:#144866;stroke-width:0.5;stroke-miterlimit:10;}
	.st5{fill:#FFFFFF;stroke:#144866;stroke-width:0.5;stroke-miterlimit:10;}
</style>
<g id="Discrimination">
	<g>
		<path class="st0 eyvBDauG_0" d="M8.399999999999999,69.2A55.2,55.2 0,1,1 118.80000000000001,69.2A55.2,55.2 0,1,1 8.399999999999999,69.2"></path>
		<path class="st1 eyvBDauG_1" width="88.6" height="9.2" d="M19.3 64.6 L107.89999999999999 64.6 L107.89999999999999 73.8 L19.3 73.8 Z"></path>
		<text transform="matrix(1 0 0 1 23.832 73.6096)" class="st2 st3">Discrimination</text>
		<g>
			<g>
				<path class="st4 eyvBDauG_2" d="M10.8,87.3c-0.3,0-0.5,0.3-0.5,0.3v16.1c0,0,0.1,1.9-2.1,1.9c-2.1,0-2.1-1.9-2.1-1.9V75.6
					c0,0-0.2-0.3-0.5-0.3s-0.5,0.3-0.5,0.3v9.7c0,0,0,1.7-1.6,1.7s-1.6-1.7-1.6-1.7v-11c0-2.7,2.5-4.8,5.1-4.8h3.6"></path>
				<path class="st4 eyvBDauG_3" d="M10.8,68.5c-2,0-3.7-1.6-3.7-3.7c0-2,1.6-3.7,3.7-3.7"></path>
			</g>
			<g>
				<path class="st5 eyvBDauG_4" d="M10.8,69.4h3.6c2.7,0,5.1,2.2,5.1,4.8v11c0,0,0,1.7-1.6,1.7s-1.6-1.7-1.6-1.7v-9.7c0,0-0.1-0.3-0.5-0.3
					c-0.3,0-0.5,0.3-0.5,0.3v28.1c0,0,0.1,1.9-2.1,1.9c-2.1,0-2.1-1.9-2.1-1.9V87.5c0,0-0.1-0.3-0.4-0.3"></path>
				<path class="st5 eyvBDauG_5" d="M10.8,61.1c2,0,3.7,1.6,3.7,3.7c0,2-1.6,3.7-3.7,3.7"></path>
			</g>
		</g>
		<g>
			<g>
				<path class="st4 eyvBDauG_6" d="M97.7,14.8v11c0,0,0,1.7-1.6,1.7s-1.6-1.7-1.6-1.7v-9.7c0,0,0-0.3-0.3-0.3s-0.4,0.3-0.4,0.3v28.1
					c0,0,0.1,1.9-2.1,1.9c-2.1,0-2.1-1.9-2.1-1.9V28.1c0,0-0.1-0.3-0.4-0.3c-0.3,0-0.5,0.3-0.5,0.3v16.1c0,0,0.1,1.9-2.1,1.9
					s-2.1-1.9-2.1-1.9V16.1c0,0,0-0.3-0.3-0.3s-0.4,0.3-0.4,0.3v9.7c0,0,0,1.7-1.6,1.7s-1.6-1.7-1.6-1.7v-11c0-2.7,2.2-4.8,4.8-4.8
					h7.2C95.5,10,97.7,12.1,97.7,14.8z"></path>
				<path class="st4 eyvBDauG_7" d="M85.5,5.4A3.7,3.7 0,1,1 92.9,5.4A3.7,3.7 0,1,1 85.5,5.4"></path>
			</g>
			<path class="st5 eyvBDauG_8" d="M88.5,21.6L90,21.6L90,17.7L92,17.7L92,16.3L90,16.3L90,14.6L88.5,14.6L88.5,16.3L86.5,16.3L
				86.5,17.7L88.5,17.7Z"></path>
		</g>
	</g>
</g>
<style>.eyvBDauG_0{stroke-dasharray:347 349;stroke-dashoffset:348;animation:eyvBDauG_draw_0 4500ms linear 0ms infinite,eyvBDauG_fade 4500ms linear 0ms infinite;}.eyvBDauG_1{stroke-dasharray:196 198;stroke-dashoffset:197;animation:eyvBDauG_draw_1 4500ms linear 0ms infinite,eyvBDauG_fade 4500ms linear 0ms infinite;}.eyvBDauG_2{stroke-dasharray:90 92;stroke-dashoffset:91;animation:eyvBDauG_draw_2 4500ms linear 0ms infinite,eyvBDauG_fade 4500ms linear 0ms infinite;}.eyvBDauG_3{stroke-dasharray:12 14;stroke-dashoffset:13;animation:eyvBDauG_draw_3 4500ms linear 0ms infinite,eyvBDauG_fade 4500ms linear 0ms infinite;}.eyvBDauG_4{stroke-dasharray:90 92;stroke-dashoffset:91;animation:eyvBDauG_draw_4 4500ms linear 0ms infinite,eyvBDauG_fade 4500ms linear 0ms infinite;}.eyvBDauG_5{stroke-dasharray:12 14;stroke-dashoffset:13;animation:eyvBDauG_draw_5 4500ms linear 0ms infinite,eyvBDauG_fade 4500ms linear 0ms infinite;}.eyvBDauG_6{stroke-dasharray:179 181;stroke-dashoffset:180;animation:eyvBDauG_draw_6 4500ms linear 0ms infinite,eyvBDauG_fade 4500ms linear 0ms infinite;}.eyvBDauG_7{stroke-dasharray:24 26;stroke-dashoffset:25;animation:eyvBDauG_draw_7 4500ms linear 0ms infinite,eyvBDauG_fade 4500ms linear 0ms infinite;}.eyvBDauG_8{stroke-dasharray:25 27;stroke-dashoffset:26;animation:eyvBDauG_draw_8 4500ms linear 0ms infinite,eyvBDauG_fade 4500ms linear 0ms infinite;}@keyframes eyvBDauG_draw{100%{stroke-dashoffset:0;}}@keyframes eyvBDauG_fade{0%{stroke-opacity:1;}91.11111111111111%{stroke-opacity:1;}100%{stroke-opacity:0;}}@keyframes eyvBDauG_draw_0{2.2222222222222223%{stroke-dashoffset: 348}46.666666666666664%{ stroke-dashoffset: 0;}100%{ stroke-dashoffset: 0;}}@keyframes eyvBDauG_draw_1{5%{stroke-dashoffset: 197}49.44444444444444%{ stroke-dashoffset: 0;}100%{ stroke-dashoffset: 0;}}@keyframes eyvBDauG_draw_2{7.777777777777778%{stroke-dashoffset: 91}52.22222222222223%{ stroke-dashoffset: 0;}100%{ stroke-dashoffset: 0;}}@keyframes eyvBDauG_draw_3{10.555555555555555%{stroke-dashoffset: 13}55.00000000000001%{ stroke-dashoffset: 0;}100%{ stroke-dashoffset: 0;}}@keyframes eyvBDauG_draw_4{13.333333333333334%{stroke-dashoffset: 91}57.77777777777777%{ stroke-dashoffset: 0;}100%{ stroke-dashoffset: 0;}}@keyframes eyvBDauG_draw_5{16.11111111111111%{stroke-dashoffset: 13}60.55555555555555%{ stroke-dashoffset: 0;}100%{ stroke-dashoffset: 0;}}@keyframes eyvBDauG_draw_6{18.88888888888889%{stroke-dashoffset: 180}63.33333333333333%{ stroke-dashoffset: 0;}100%{ stroke-dashoffset: 0;}}@keyframes eyvBDauG_draw_7{21.666666666666668%{stroke-dashoffset: 25}66.11111111111111%{ stroke-dashoffset: 0;}100%{ stroke-dashoffset: 0;}}@keyframes eyvBDauG_draw_8{24.444444444444443%{stroke-dashoffset: 26}68.88888888888889%{ stroke-dashoffset: 0;}100%{ stroke-dashoffset: 0;}}</style></svg>
