<?xml version="1.0" encoding="utf-8"?>
<!-- Generator: Adobe Illustrator 19.2.1, SVG Export Plug-In . SVG Version: 6.00 Build 0)  -->
<svg version="1.1" id="Layer_1" xmlns="http://www.w3.org/2000/svg" xmlns:xlink="http://www.w3.org/1999/xlink" x="0px" y="0px"
	 viewBox="0 0 239.2 215.1" style="enable-background:new 0 0 239.2 215.1;" xml:space="preserve">
<style type="text/css">
	.st0{opacity:0.15;fill:#2F204F;enable-background:new    ;}
	.st1{fill:none;}
	.st2{font-family:'FiraSans-Regular';}
	.st3{font-size:11px;}
	.st4{font-size:16px;}
	.st5{fill:#403072;stroke:#2F214F;stroke-miterlimit:10;}
	.st6{fill:#1D71B8;stroke:#144866;stroke-miterlimit:10;}
	.st7{fill:#056E31;stroke:#065127;stroke-miterlimit:10;}
	.st8{fill:#F1F2F2;stroke:#2F214F;stroke-miterlimit:10;}
	.st9{fill:#575656;stroke:#FFFFFF;stroke-width:0.5;stroke-miterlimit:10;}
	.st10{fill:#F6F6F6;stroke:#FFFFFF;stroke-miterlimit:10;}
	.st11{fill:#FFFFFF;}
</style>
<g id="Freedom_of">
	<g>
		<circle class="st0" cx="118.8" cy="103.6" r="85"/>
		<rect x="97.1" y="203" class="st1" width="32.4" height="24.3"/>
		<text transform="matrix(1 0 0 1 99.7775 211.2439)" class="st2 st3">press</text>
		<rect x="62.1" y="96.9" class="st1" width="113.4" height="13.4"/>
		<text transform="matrix(1 0 0 1 77.2316 108.8854)" class="st2 st4">Freedom of</text>
		<rect x="167.1" y="161.2" class="st1" width="83.3" height="32.3"/>
		<text transform="matrix(1 0 0 1 179.2931 169.4285)" class="st2 st3">movement/</text>
		<text transform="matrix(1 0 0 1 185.2931 182.6285)" class="st2 st3">assembly</text>
		<rect x="6.4" y="158.8" class="st1" width="53.3" height="32.3"/>
		<text transform="matrix(1 0 0 1 13.3351 166.9656)" class="st2 st3">thought</text>
		<rect x="137.6" y="54.6" class="st1" width="51.8" height="17.7"/>
		<text transform="matrix(1 0 0 1 144.3341 62.826)" class="st2 st3">religion</text>
		<rect x="38.6" y="53.2" class="st1" width="73" height="17.7"/>
		<text transform="matrix(1 0 0 1 57.3751 61.4119)" class="st2 st3">speech</text>
		<g>
			<polygon class="st5" points="158.5,48.2 168.5,48.2 168.5,22.3 181.5,22.3 181.5,13.1 168.5,13.1 168.5,2.4 158.5,2.4 
				158.5,13.1 145.5,13.1 145.5,22.3 158.5,22.3 			"/>
		</g>
		<g>
			<g>
				<path class="st6" d="M198,117.6c0-3.4,2.7-6.1,6.1-6.1h9.1c3.4,0,6.1,2.7,6.1,6.1"/>
				<path class="st6" d="M198,117.6v4.3h4v-2.6c0,0,0-0.4,0.5-0.4c0.4,0,0.4,0.4,0.4,0.4v2.6h5.4h0.8h5.4v-2.6c0,0,0-0.4,0.4-0.4
					s0.4,0.4,0.4,0.4v2.6h4v-4.3"/>
				<circle class="st6" cx="208.7" cy="105.7" r="4.6"/>
			</g>
			<path class="st6" d="M210.6,154.8c-1.7,0-3.3,0-5,0c0-9,0-18,0-27.1c-3.9,0-7.7,0-11.6,0c0-1.4,0-2.8,0-4.2c9.4,0,18.8,0,28.2,0
				c0,1.4,0,2.8,0,4.2c-3.9,0-7.7,0-11.6,0C210.6,136.7,210.6,145.7,210.6,154.8z"/>
			<g>
				<circle class="st6" cx="183.8" cy="106.7" r="4.6"/>
			</g>
			<path class="st6" d="M194.5,136.3c-2.2,0-4.3,0-6.5,0c-2.1,0-4.2,0-6.2,0c-0.8,0-1-0.2-1-1c0-7,0-14.1,0-21.1
				c0-0.9,0.2-1.1,1.1-1.1c1.4,0,2.7,0,4.1,0c0.7,0,0.9,0.2,0.9,0.9c0,5.2,0,10.4,0,15.5c0,0.2,0,0.4,0,0.7c0.3,0,0.5,0,0.7,0
				c4,0,8,0,12.1,0c0.8,0,1,0.2,1,0.9c0,6.8,0,13.6,0,20.5c0,1.7-1.1,2.9-2.8,3.1c-1.4,0.2-2.8-0.9-3.2-2.4
				c-0.1-0.3-0.1-0.6-0.1-0.9c0-4.8,0-9.6,0-14.4C194.5,136.8,194.5,136.6,194.5,136.3z"/>
			<g>
				<circle class="st6" cx="231.6" cy="106.7" r="4.6"/>
			</g>
			<path class="st6" d="M221,136.3c2.2,0,4.3,0,6.5,0c2.1,0,4.2,0,6.2,0c0.8,0,1-0.2,1-1c0-7,0-14.1,0-21.1c0-0.9-0.2-1.1-1.1-1.1
				c-1.4,0-2.7,0-4.1,0c-0.7,0-0.9,0.2-0.9,0.9c0,5.2,0,10.4,0,15.5c0,0.2,0,0.4,0,0.7c-0.3,0-0.5,0-0.7,0c-4,0-8,0-12.1,0
				c-0.8,0-1,0.2-1,0.9c0,6.8,0,13.6,0,20.5c0,1.7,1.1,2.9,2.8,3.1c1.4,0.2,2.8-0.9,3.2-2.4c0.1-0.3,0.1-0.6,0.1-0.9
				c0-4.8,0-9.6,0-14.4C221,136.8,221,136.6,221,136.3z"/>
		</g>
		<g id="DQkqXX.tif_3_">
			<g>
				<path class="st7" d="M94.7,4.5c0,13,0,25.9,0,38.9c0,2.9-3.9,0-4.4-0.2c-5.6-2.8-11.1-5.6-17-7.7c-0.6-0.2-1.2-0.4-1.9-0.6
					c-0.3-0.1-0.5,0.1-0.5,0.4l0,0c0,3.6,0,7.2,0.1,10.9c0,1.3-0.7,2.1-2.1,2.1c-0.9,0-1.8,0-2.7,0c-1.5,0-2.3-0.8-2.3-2.3
					c0-3.6,0-7.2-0.1-10.8c0-0.7,0-1.4,0-2.2c0-0.2-0.1-0.4-0.3-0.4c-2.3-0.4-4.6-0.8-6.8-1.2c-0.4-0.1-0.4-0.2-0.4-0.5
					c0-4.6,0-9.1,0-13.7v-0.1c0-0.2,0.1-0.3,0.3-0.4c2.1-0.4,4.2-0.8,6.2-1.2c4.4-1,8.7-2.2,12.9-3.9c5.2-2.1,10.2-4.5,15.2-7.1
					C91,4.3,94.7,1.9,94.7,4.5z"/>
				<path class="st7" d="M49.7,16.7h4.5c0.2,0,0.4,0.2,0.4,0.4v13.6c0,0.2-0.2,0.4-0.4,0.4h-4.5c-0.2,0-0.4-0.2-0.4-0.4V17.1
					C49.3,16.9,49.5,16.7,49.7,16.7z"/>
			</g>
		</g>
		<g>
			<path class="st8" d="M16.7,115.7c0,0,1.4-8.3,10.2-10.1s11,7,11,7s4.7-0.9,7.1-0.1c2.5,0.8,6.1,4.3,6.2,6.4
				c0,0,11.8-3.1,11.3,7.6s-10.3,8.7-10.3,8.7s-1.1,8.5-7.1,10.9c-6.1,2.4-10.2,1.6-14.6-0.9c0,0-7.4,3.5-12,0.1s-4.2-4.1-5.4-7.5
				c0,0-6.6,1.3-8.9-4.1c-2.4-5.3,1.6-9.7,3.6-10.3C7.8,123.6,9.3,115.5,16.7,115.7z"/>
			<circle class="st8" cx="13.8" cy="148.2" r="2.9"/>
			<circle class="st8" cx="8.9" cy="152.4" r="1.8"/>
			<circle class="st8" cx="5" cy="155" r="1.1"/>
		</g>
		<g>
			<path class="st9" d="M105,199.7h25c1.5,0,2.7-1.2,2.7-2.7v-32.8c0-1.5-1.2-2.7-2.7-2.7h-25c-1.5,0-2.7,1.2-2.7,2.7V197
				c0,1.2-1.4,2.7-3.4,2.7c-3.6,0-4-2.6-4-2.6s0.4,2.7,3,2.7C99.7,199.7,102.3,199.7,105,199.7z"/>
			<path class="st10" d="M110.1,173.1h8.2c1.4,0,2.5-1.1,2.5-2.5v-3.1c0-1.4-1.1-2.5-2.5-2.5h-8.2c-1.4,0-2.5,1.1-2.5,2.5v3.1
				C107.6,172,108.7,173.1,110.1,173.1z"/>
			<g>
				<g>
					<path class="st11" d="M127.9,178.3c-6.8,0-13.6,0-20.4,0c-0.8,0-0.8,1.2,0,1.2c6.8,0,13.6,0,20.4,0
						C128.7,179.6,128.7,178.3,127.9,178.3L127.9,178.3z"/>
				</g>
			</g>
			<g>
				<g>
					<path class="st11" d="M127.9,183.4c-6.8,0-13.6,0-20.4,0c-0.8,0-0.8,1.2,0,1.2c6.8,0,13.6,0,20.4,0
						C128.7,184.7,128.7,183.4,127.9,183.4L127.9,183.4z"/>
				</g>
			</g>
			<g>
				<g>
					<path class="st11" d="M127.9,188.5c-6.8,0-13.6,0-20.4,0c-0.8,0-0.8,1.2,0,1.2c6.8,0,13.6,0,20.4,0
						C128.7,189.7,128.7,188.5,127.9,188.5L127.9,188.5z"/>
				</g>
			</g>
			<g>
				<g>
					<path class="st11" d="M127.9,193.6c-6.8,0-13.6,0-20.4,0c-0.8,0-0.8,1.2,0,1.2c6.8,0,13.6,0,20.4,0
						C128.7,194.8,128.7,193.6,127.9,193.6L127.9,193.6z"/>
				</g>
			</g>
			<g>
				<g>
					<path class="st11" d="M127.9,168.2c-0.9,0-1.7,0-2.6,0c-0.8,0-0.8,1.2,0,1.2c0.9,0,1.7,0,2.6,0
						C128.7,169.4,128.7,168.2,127.9,168.2L127.9,168.2z"/>
				</g>
			</g>
			<g>
				<g>
					<path class="st11" d="M127.9,173.2c-0.9,0-1.7,0-2.6,0c-0.8,0-0.8,1.2,0,1.2c0.9,0,1.7,0,2.6,0
						C128.7,174.5,128.7,173.2,127.9,173.2L127.9,173.2z"/>
				</g>
			</g>
			<path class="st9" d="M98.8,199.7c-4.5,0-4-3.8-4-3.8s0-19.3,0-22s2.3-2.7,2.3-2.7h5.1V197C102.2,197,102.4,199.7,98.8,199.7z"/>
		</g>
	</g>
</g>
</svg>
