<!--?xml version="1.0" encoding="utf-8"?-->
<!-- Generator: Adobe Illustrator 19.2.1, SVG Export Plug-In . SVG Version: 6.00 Build 0)  -->
<svg version="1.1" id="health" xmlns="http://www.w3.org/2000/svg" xmlns:xlink="http://www.w3.org/1999/xlink" x="0px" y="0px" viewBox="0 0 118 118" xml:space="preserve">
<style type="text/css">
	.st0{opacity:0.15;fill:#2F204F;enable-background:new    ;}
	.st1{fill:none;}
	.st2{font-family:'FiraSans-Regular';}
	.st3{font-size:16px;}
	.st4{fill:#991915;stroke:#7C1716;stroke-width:2;stroke-miterlimit:10;}
	.st5{fill:#FFFFFF;stroke:#7C1716;stroke-width:2;stroke-miterlimit:10;}
</style>
<g>
	<path class="st0 cYNuFxMv_0" d="M0,59A59,59 0,1,1 118,59A59,59 0,1,1 0,59"></path>
	<g>
		<g>
			<path class="st1 cYNuFxMv_1" width="62" height="21.2" d="M28 89.1 L90 89.1 L90 110.3 L28 110.3 Z"></path>
			<text transform="matrix(1 0 0 1 34.8689 101.1218)" class="st2 st3">Health</text>
		</g>
		<g>
			<path class="st4 cYNuFxMv_2" d="M82.7,36.5H35.3c-6.6,0-12,5.4-12,12v20.9c0,6.6,5.4,12,12,12h47.4c6.6,0,12-5.4,12-12V48.5
				C94.7,41.9,89.3,36.5,82.7,36.5z"></path>
			<path class="st4 cYNuFxMv_3" d="M43.3,40.3v-7.6c0-3.3,2.7-6.1,6.1-6.1h19.2c3.3,0,6.1,2.7,6.1,6.1v7.6h-3.9v-7.6c0,0,0.4-2.9-2-2.9
				c-2.1,0-19.4,0-19.4,0s-2.7-0.2-2.7,2.9c0,3.7,0,7.6,0,7.6H43.3z"></path>
			<g>
				<path class="st5 cYNuFxMv_4" d="M54.1,71.4L63.9,71.4L63.9,63.4L71.8,63.4L71.8,54.5L63.9,54.5L63.9,46.5L54.1,46.5L54.1,54.5L
					46.1,54.5L46.1,63.4L54.1,63.4Z"></path>
			</g>
		</g>
	</g>
</g>
<style>.cYNuFxMv_0{stroke-dasharray:371 373;stroke-dashoffset:372;animation:cYNuFxMv_draw_0 4500ms linear 0ms infinite,cYNuFxMv_fade 4500ms linear 0ms infinite;}.cYNuFxMv_1{stroke-dasharray:167 169;stroke-dashoffset:168;animation:cYNuFxMv_draw_1 4500ms linear 0ms infinite,cYNuFxMv_fade 4500ms linear 0ms infinite;}.cYNuFxMv_2{stroke-dasharray:212 214;stroke-dashoffset:213;animation:cYNuFxMv_draw_2 4500ms linear 0ms infinite,cYNuFxMv_fade 4500ms linear 0ms infinite;}.cYNuFxMv_3{stroke-dasharray:105 107;stroke-dashoffset:106;animation:cYNuFxMv_draw_3 4500ms linear 0ms infinite,cYNuFxMv_fade 4500ms linear 0ms infinite;}.cYNuFxMv_4{stroke-dasharray:102 104;stroke-dashoffset:103;animation:cYNuFxMv_draw_4 4500ms linear 0ms infinite,cYNuFxMv_fade 4500ms linear 0ms infinite;}@keyframes cYNuFxMv_draw{100%{stroke-dashoffset:0;}}@keyframes cYNuFxMv_fade{0%{stroke-opacity:1;}91.11111111111111%{stroke-opacity:1;}100%{stroke-opacity:0;}}@keyframes cYNuFxMv_draw_0{2.2222222222222223%{stroke-dashoffset: 372}46.666666666666664%{ stroke-dashoffset: 0;}100%{ stroke-dashoffset: 0;}}@keyframes cYNuFxMv_draw_1{7.777777777777778%{stroke-dashoffset: 168}52.22222222222223%{ stroke-dashoffset: 0;}100%{ stroke-dashoffset: 0;}}@keyframes cYNuFxMv_draw_2{13.333333333333334%{stroke-dashoffset: 213}57.77777777777777%{ stroke-dashoffset: 0;}100%{ stroke-dashoffset: 0;}}@keyframes cYNuFxMv_draw_3{18.88888888888889%{stroke-dashoffset: 106}63.33333333333333%{ stroke-dashoffset: 0;}100%{ stroke-dashoffset: 0;}}@keyframes cYNuFxMv_draw_4{24.444444444444443%{stroke-dashoffset: 103}68.88888888888889%{ stroke-dashoffset: 0;}100%{ stroke-dashoffset: 0;}}</style></svg>
