<?xml version="1.0" encoding="utf-8"?>
<!-- Generator: Adobe Illustrator 19.2.1, SVG Export Plug-In . SVG Version: 6.00 Build 0)  -->
<svg version="1.1" id="housing" xmlns="http://www.w3.org/2000/svg" xmlns:xlink="http://www.w3.org/1999/xlink" x="0px" y="0px"
	 viewBox="0 0 118 118" style="enable-background:new 0 0 118 118;" xml:space="preserve">
<style type="text/css">
	.st0{opacity:0.15;fill:#2F204F;enable-background:new    ;}
	.st1{fill:none;}
	.st2{font-family:'FiraSans-Regular';}
	.st3{font-size:16px;}
	.st4{fill:#F1F2F2;}
	.st5{fill:none;stroke:#2F214F;stroke-width:2;stroke-miterlimit:10;}
	.st6{fill:#2F214F;}
	.st7{fill:#D1D3D4;}
	.st8{fill:none;stroke:#2F214F;stroke-width:2;stroke-linecap:round;stroke-linejoin:round;stroke-miterlimit:10;}
	.st9{fill:#2CAAE1;}
</style>
<g>
	<circle class="st0" cx="59" cy="59" r="59"/>
	<g>
		<g>
			<rect x="28" y="81.8" class="st1" width="62" height="21.2"/>
			<text transform="matrix(1 0 0 1 29.4206 93.7503)" class="st2 st3">Housing</text>
		</g>
		<g>
			<rect x="27.9" y="37.5" class="st4" width="63.4" height="33.3"/>
			<rect x="27.9" y="37.5" class="st5" width="63.4" height="33.3"/>
			<path class="st6" d="M92.4,37.9H26.8c-1.2,0-1.8-1.2-1-2l12.8-12.8h42.1l12.8,12.8C94.2,36.6,93.6,37.9,92.4,37.9"/>
			<rect x="54.5" y="49.2" class="st7" width="10.3" height="21.7"/>
			<rect x="54.4" y="49.2" class="st8" width="10.3" height="21.7"/>
			<line class="st8" x1="23.5" y1="70.9" x2="94.5" y2="70.9"/>
			<polygon class="st9" points="84.2,58.8 75.2,58.8 75.2,55.7 75.2,52.5 84.2,52.5 			"/>
			<polygon class="st8" points="84.2,58.8 75.2,58.8 75.2,55.7 75.2,52.5 84.2,52.5 			"/>
			<polygon class="st9" points="43.3,58.8 34.3,58.8 34.3,55.7 34.3,52.5 43.3,52.5 			"/>
			<polygon class="st8" points="43.3,58.8 34.3,58.8 34.3,55.7 34.3,52.5 43.3,52.5 			"/>
		</g>
	</g>
</g>
</svg>
