<?xml version="1.0" encoding="utf-8"?>
<!-- Generator: Adobe Illustrator 19.2.1, SVG Export Plug-In . SVG Version: 6.00 Build 0)  -->
<svg version="1.1" id="Layer_1" xmlns="http://www.w3.org/2000/svg" xmlns:xlink="http://www.w3.org/1999/xlink" x="0px" y="0px"
	 viewBox="0 0 153 133.2" style="enable-background:new 0 0 153 133.2;" xml:space="preserve">
<style type="text/css">
	.st0{opacity:0.15;fill:#2F204F;enable-background:new    ;}
	.st1{fill:none;}
	.st2{font-family:'FiraSans-Regular';}
	.st3{font-size:12px;}
	.st4{fill:#403072;stroke:#2F214F;stroke-width:0.5;stroke-miterlimit:10;}
	.st5{fill:#1D71B8;stroke:#144866;stroke-width:0.5;stroke-miterlimit:10;}
	.st6{fill:#056E31;stroke:#065127;stroke-width:0.5;stroke-miterlimit:10;}
	.st7{fill:#F1F2F2;stroke:#2F214F;stroke-width:0.5;stroke-miterlimit:10;}
	.st8{fill:#575656;stroke:#FFFFFF;stroke-width:0.4;stroke-miterlimit:10;}
	.st9{fill:#F6F6F6;stroke:#FFFFFF;stroke-width:0.5;stroke-miterlimit:10;}
	.st10{fill:#FFFFFF;}
</style>
<g id="Oppression_of">
	<g>
		<circle class="st0" cx="76.8" cy="66.9" r="55.3"/>
		<rect x="37.9" y="62.2" class="st1" width="77.9" height="9.3"/>
		<text transform="matrix(1 0 0 1 38.4199 71.2746)" class="st2 st3">Oppression of</text>
		<g>
			<polygon class="st4" points="106.6,31.8 113.1,31.8 113.1,15 121.6,15 121.6,9 113.1,9 113.1,2.1 106.6,2.1 106.6,9 98.1,9 
				98.1,15 106.6,15 			"/>
		</g>
		<g>
			<g>
				<path class="st5" d="M126.3,86.9c0-2.2,1.8-4,4-4h5.9c2.2,0,4,1.8,4,4"/>
				<path class="st5" d="M126.3,86.9v2.8h2.6V88c0,0,0-0.2,0.3-0.2s0.3,0.2,0.3,0.2v1.7h3.5h0.5h3.5V88c0,0,0-0.2,0.3-0.2
					s0.3,0.2,0.3,0.2v1.7h2.6v-2.8"/>
				
					<ellipse transform="matrix(1 -1.090215e-03 1.090215e-03 1 -8.631030e-02 0.1452)" class="st5" cx="133.2" cy="79.2" rx="3" ry="3"/>
			</g>
			<path class="st5" d="M134.5,111.2c-1.1,0-2.2,0-3.2,0c0-5.9,0-11.7,0-17.6c-2.5,0-5,0-7.5,0c0-0.9,0-1.8,0-2.7
				c6.1,0,12.2,0,18.3,0c0,0.9,0,1.8,0,2.7c-2.5,0-5,0-7.6,0C134.5,99.4,134.5,105.3,134.5,111.2z"/>
			<g>
				<circle class="st5" cx="117.1" cy="79.9" r="3"/>
			</g>
			<path class="st5" d="M124,99.2c-1.4,0-2.8,0-4.2,0s-2.7,0-4.1,0c-0.5,0-0.6-0.1-0.6-0.6c0-4.6,0-9.2,0-13.7
				c0-0.6,0.1-0.7,0.7-0.7c0.9,0,1.8,0,2.7,0c0.5,0,0.6,0.1,0.6,0.6c0,3.4,0,6.7,0,10.1c0,0.1,0,0.3,0,0.4c0.2,0,0.3,0,0.4,0
				c2.6,0,5.2,0,7.8,0c0.5,0,0.6,0.1,0.6,0.6c0,4.4,0,8.9,0,13.3c0,1.1-0.7,1.9-1.8,2c-0.9,0.1-1.8-0.6-2.1-1.5c0-0.2,0-0.4,0-0.6
				c0-3.1,0-6.2,0-9.4C124,99.5,124,99.4,124,99.2z"/>
			<g>
				<circle class="st5" cx="148.2" cy="79.9" r="3"/>
			</g>
			<path class="st5" d="M141.3,99.2c1.4,0,2.8,0,4.2,0s2.7,0,4.1,0c0.5,0,0.6-0.1,0.6-0.6c0-4.6,0-9.2,0-13.7c0-0.6-0.1-0.7-0.7-0.7
				c-0.9,0-1.8,0-2.7,0c-0.5,0-0.6,0.1-0.6,0.6c0,3.4,0,6.7,0,10.1c0,0.1,0,0.3,0,0.4c-0.2,0-0.3,0-0.4,0c-2.6,0-5.2,0-7.8,0
				c-0.5,0-0.6,0.1-0.6,0.6c0,4.4,0,8.9,0,13.3c0,1.1,0.7,1.9,1.8,2c0.9,0.1,1.8-0.6,2.1-1.5c0-0.2,0-0.4,0-0.6c0-3.1,0-6.2,0-9.4
				C141.3,99.5,141.3,99.4,141.3,99.2z"/>
		</g>
		<g id="DQkqXX.tif_4_">
			<g>
				<path class="st6" d="M64.1,2.4c0,8.4,0,16.9,0,25.3c0,1.9-2.6,0-2.9-0.2c-3.6-1.8-7.3-3.7-11.1-5c-0.4-0.1-0.8-0.3-1.2-0.4
					c-0.2-0.1-0.3,0.1-0.3,0.2l0,0c0,2.4,0,4.7,0,7.1c0,0.9-0.5,1.4-1.3,1.4c-0.6,0-1.2,0-1.8,0c-1,0-1.5-0.5-1.5-1.5
					c0-2.3,0-4.7,0-7c0-0.5,0-0.9,0-1.4c0-0.1-0.1-0.2-0.2-0.3c-1.5-0.3-3-0.5-4.4-0.8c-0.2,0-0.3-0.1-0.3-0.3c0-3,0-5.9,0-8.9
					c0,0,0,0,0-0.1s0.1-0.2,0.2-0.2c1.4-0.3,2.7-0.5,4-0.8c2.9-0.6,5.6-1.4,8.4-2.5c3.4-1.3,6.6-3,9.9-4.6
					C61.7,2.3,64.1,0.7,64.1,2.4z"/>
				<path class="st6" d="M34.8,10.3h2.9c0.1,0,0.3,0.1,0.3,0.3v8.8c0,0.1-0.1,0.3-0.3,0.3h-2.9c-0.1,0-0.3-0.1-0.3-0.3v-8.8
					C34.5,10.5,34.6,10.3,34.8,10.3z"/>
			</g>
		</g>
		<g>
			<path class="st7" d="M11.3,79.8c0,0,0.9-5.4,6.6-6.6c5.7-1.1,7.1,4.6,7.1,4.6s3-0.6,4.6-0.1c1.7,0.5,4,2.8,4,4.2c0,0,7.7-2,7.4,5
				s-6.7,5.7-6.7,5.7s-0.7,5.5-4.6,7.1c-3.9,1.6-6.6,1.1-9.5-0.6c0,0-4.8,2.3-7.8,0.1c-3-2.2-2.7-2.7-3.5-4.9c0,0-4.3,0.8-5.8-2.6
				c-1.5-3.5,1-6.3,2.4-6.7C5.6,84.9,6.5,79.6,11.3,79.8z"/>
			<circle class="st7" cx="9.5" cy="100.9" r="1.9"/>
			<circle class="st7" cx="6.3" cy="103.6" r="1.2"/>
			<circle class="st7" cx="3.7" cy="105.4" r="0.7"/>
		</g>
		<g>
			<path class="st8" d="M67.8,131.4H84c1,0,1.8-0.8,1.8-1.8v-21.3c0-1-0.8-1.8-1.8-1.8H67.8c-1,0-1.8,0.8-1.8,1.8v21.3
				c0,0.8-0.9,1.7-2.2,1.7c-2.4,0-2.6-1.7-2.6-1.7s0.3,1.7,2,1.7C64.4,131.4,66,131.4,67.8,131.4z"/>
			<path class="st9" d="M70.7,114.1h6.2c0.7,0,1.2-0.5,1.2-1.2V110c0-0.7-0.5-1.2-1.2-1.2h-6.2c-0.7,0-1.2,0.5-1.2,1.2v2.9
				C69.5,113.6,70,114.1,70.7,114.1z"/>
			<g>
				<g>
					<path class="st10" d="M82.7,117.5c-4.4,0-8.8,0-13.2,0c-0.5,0-0.5,0.9,0,0.9c4.4,0,8.8,0,13.2,0
						C83.3,118.4,83.3,117.5,82.7,117.5L82.7,117.5z"/>
				</g>
			</g>
			<g>
				<g>
					<path class="st10" d="M82.7,120.8c-4.4,0-8.8,0-13.2,0c-0.5,0-0.5,0.9,0,0.9c4.4,0,8.8,0,13.2,0
						C83.3,121.7,83.3,120.8,82.7,120.8L82.7,120.8z"/>
				</g>
			</g>
			<g>
				<g>
					<path class="st10" d="M82.7,124.1c-4.4,0-8.8,0-13.2,0c-0.5,0-0.5,0.9,0,0.9c4.4,0,8.8,0,13.2,0
						C83.3,125,83.3,124.1,82.7,124.1L82.7,124.1z"/>
				</g>
			</g>
			<g>
				<g>
					<path class="st10" d="M82.7,127.4c-4.4,0-8.8,0-13.2,0c-0.5,0-0.5,0.9,0,0.9c4.4,0,8.8,0,13.2,0
						C83.3,128.3,83.3,127.4,82.7,127.4L82.7,127.4z"/>
				</g>
			</g>
			<g>
				<g>
					<path class="st10" d="M82.7,110.9c-0.6,0-1.1,0-1.7,0c-0.5,0-0.5,0.9,0,0.9c0.6,0,1.1,0,1.7,0
						C83.3,111.7,83.3,110.9,82.7,110.9L82.7,110.9z"/>
				</g>
			</g>
			<g>
				<g>
					<path class="st10" d="M82.7,114.2c-0.6,0-1.1,0-1.7,0c-0.5,0-0.5,0.9,0,0.9c0.6,0,1.1,0,1.7,0S83.3,114.2,82.7,114.2
						L82.7,114.2z"/>
				</g>
			</g>
			<path class="st8" d="M63.8,131.4c-3,0-2.6-2.5-2.6-2.5s0-12.6,0-14.3s1.5-1.7,1.5-1.7H66v16.8C66,129.7,66.1,131.4,63.8,131.4z"
				/>
		</g>
	</g>
</g>
</svg>
