<?xml version="1.0" encoding="utf-8"?>
<!-- Generator: Adobe Illustrator 19.2.1, SVG Export Plug-In . SVG Version: 6.00 Build 0)  -->
<svg version="1.1" id="Protection_from_discrimination_1_"
	 xmlns="http://www.w3.org/2000/svg" xmlns:xlink="http://www.w3.org/1999/xlink" x="0px" y="0px" viewBox="0 0 196.1 215.7"
	 style="enable-background:new 0 0 196.1 215.7;" xml:space="preserve">
<style type="text/css">
	.st0{opacity:0.15;fill:#2F204F;enable-background:new    ;}
	.st1{font-family:'FiraSans-Regular';}
	.st2{font-size:16px;}
	.st3{fill:#1D71B8;stroke:#144866;stroke-miterlimit:10;}
	.st4{fill:none;stroke:#F1F2F2;stroke-miterlimit:10;}
	.st5{fill:#F1F2F2;stroke:#144866;stroke-miterlimit:10;}
	.st6{fill:#FFFFFF;stroke:#144866;stroke-miterlimit:10;}
</style>
<g>
	<circle class="st0" cx="96.7" cy="105" r="85"/>
	<text transform="matrix(1 0 0 1 39.2138 101.7431)" class="st1 st2">Protection from </text>
	<text transform="matrix(1 0 0 1 44.0138 120.9431)" class="st1 st2">discrimination</text>
	<g>
		<g>
			<path class="st3" d="M179.4,128.2c0,0-0.4-0.4-0.9-0.4s-0.9,0.4-0.9,0.4v24.7c0,0,0.1,3-3.2,3c-3.3,0-3.2-3-3.2-3v-43.3
				c0,0-0.2-0.4-0.7-0.4s-0.8,0.4-0.8,0.4v14.9c0,0,0,2.6-2.5,2.6s-2.5-2.6-2.5-2.6v-17c0-4.1,3.8-7.4,7.9-7.4h5.6"/>
		</g>
		<g>
			<path class="st3" d="M178.3,100.1l3.8,0.1c5.4,0.5,7.4,3.5,8.5,7.6l4,13.4c0,0,0.9,2.9-1.4,3.5c-2.3,0.7-3.1-2.2-3.1-2.2
				l-4.1-13.6c0,0-0.4-0.7-0.9-0.7s-0.8,0.2-0.8,0.2l7.4,25.5h-6.9v19c0,0,0,3.1-2.7,3.1s-2.7-3.1-2.7-3.1v-19c0,0,0-5.5,0-5.9
				c-0.2-0.3-0.9-0.4-0.9-0.4L178.3,100.1z"/>
		</g>
		<circle class="st3" cx="178.3" cy="93.2" r="5.6"/>
		<line class="st4" x1="178.5" y1="127.3" x2="178.3" y2="100.7"/>
		<line class="st4" x1="178.3" y1="98.3" x2="178.3" y2="88"/>
	</g>
	<g>
		<g>
			<path class="st3" d="M15.3,133c-0.5,0-0.7,0.4-0.7,0.4v24.7c0,0,0.1,3-3.2,3s-3.2-3-3.2-3v-43.3c0,0-0.3-0.4-0.8-0.4
				s-0.7,0.4-0.7,0.4v14.9c0,0,0,2.6-2.5,2.6s-2.5-2.6-2.5-2.6v-17c0-4.1,3.8-7.4,7.9-7.4h5.6"/>
			<path class="st3" d="M15.3,104c-3.1,0-5.6-2.5-5.6-5.6s2.5-5.6,5.6-5.6"/>
		</g>
		<g>
			<path class="st5" d="M15.3,105.4h5.6c4.1,0,7.9,3.3,7.9,7.4v17c0,0,0,2.6-2.5,2.6s-2.5-2.6-2.5-2.6v-14.9c0,0-0.2-0.4-0.7-0.4
				s-0.8,0.4-0.8,0.4v43.3c0,0,0.1,3-3.2,3s-3.2-3-3.2-3v-24.8c0,0-0.2-0.4-0.6-0.4"/>
			<path class="st5" d="M15.3,92.7c3.1,0,5.6,2.5,5.6,5.6s-2.5,5.6-5.6,5.6"/>
		</g>
	</g>
	<g>
		<g>
			<path class="st3" d="M149.1,21.3v17c0,0,0,2.6-2.5,2.6s-2.5-2.6-2.5-2.6V23.4c0,0,0-0.4-0.5-0.4s-0.5,0.4-0.5,0.4v43.3
				c0,0,0.1,3-3.2,3c-3.3,0-3.2-3-3.2-3V42c0,0-0.2-0.4-0.6-0.4c-0.5,0-0.7,0.4-0.7,0.4v24.7c0,0,0.1,3-3.2,3s-3.2-3-3.2-3V23.4
				c0,0,0-0.4-0.5-0.4c-0.5,0-0.6,0.4-0.6,0.4v14.9c0,0,0,2.6-2.5,2.6s-2.5-2.6-2.5-2.6v-17c0-4.1,3.3-7.4,7.4-7.4h11.2
				C145.8,13.9,149.1,17.2,149.1,21.3z"/>
			<circle class="st3" cx="136.1" cy="6.8" r="5.6"/>
		</g>
		<polygon class="st6" points="135,31.8 137.3,31.8 137.3,25.8 140.3,25.8 140.3,23.6 137.3,23.6 137.3,21.1 135,21.1 135,23.6 
			131.9,23.6 131.9,25.8 135,25.8 		"/>
	</g>
	<g>
		<path class="st3" d="M88.4,177.3c0,0,0-2.9,2.8-2.9s2.8,2.9,2.8,2.9v2.5h10.3c0,0,2.8-0.1,2.8,2.2s-2.7,2.3-2.7,2.3H94.1v7h14.1
			c0,0,3.4-0.2,4,3.2c0.6,3.5,1.9,6.9,1.9,6.9l2.5-0.6c0,0,2.6-0.7,3.1,1.3c0.6,2-1.9,3-1.9,3l-4.3,1.1c0,0-2.4,0.7-3.3-1.7
			c-0.8-2.4-2.2-8-2.2-8s0-0.8-0.7-0.7H92.8c0,0-4.3,0.5-4.3-3C88.4,189.2,88.4,177.3,88.4,177.3z"/>
		<circle class="st3" cx="91.2" cy="167.5" r="5.6"/>
		<path class="st3" d="M85.3,184.6c2.9-1.4,0.8-5.3-1.6-4.3l0,0c-7.5,2.6-11.4,9.5-11.4,16.9c0,9.4,8.1,17.1,18.2,17.1
			c9.1,0,16.1-5.6,17.6-11.9c0.4-1.8-0.6-2.5-1.4-2.9c-0.7-0.3-1.4-0.3-2,0.1c-0.3,0.2-0.6,0.5-0.8,1c-0.4,0.9-0.1,0.4-0.5,1.4
			c-1.9,4.7-7.2,7.8-12.8,7.8c-7.5,0-13.5-5.7-13.5-12.7C77,191.7,79.9,186.6,85.3,184.6"/>
	</g>
	<g>
		<g id="Homem_1_">
			<path class="st3" d="M67.4,21c0.1,0.7,0.1,0.9,0.1,1.3l1.3,15.1c0,0,0.4,2.6-2,3.1c-2.5,0.4-2.9-2.6-2.9-2.6l-1.4-14.4
				c0,0-0.2-0.4-0.8-0.4s-0.8,0.4-0.8,0.4v43.3c0,0,0.1,3-3.2,3s-3.2-3-3.2-3V42.1c0,0-0.2-0.4-0.6-0.4s-0.7,0.4-0.7,0.4v24.7
				c0,0,0.1,3-3.2,3s-3.2-3-3.2-3V23.4c0,0-0.3-0.4-0.8-0.4s-0.8,0.4-0.8,0.4v14.9c0,0,0,2.6-2.5,2.6s-2.5-2.6-2.5-2.6v-17
				c0-4.1,3.8-7.4,7.9-7.4h11.2C63.5,13.9,66.9,16.8,67.4,21z"/>
			<circle class="st3" cx="53.9" cy="6.8" r="5.6"/>
		</g>
		<path class="st3" d="M67.5,40L67.5,40c0-0.5,0.4-0.8,0.8-0.8l0,0l0,0c0.4,0,0.8,0.4,0.8,0.8l0,0c0,0,0,0.7,0.6,0.7
			c0.7,0,0.7-0.7,0.7-0.7l0,0c0-0.7-0.3-1.3-0.9-1.7c-0.3-0.2-0.7-0.3-1.2-0.3c-0.4,0-0.8,0.1-1,0.2c-0.7,0.3-1.1,1-1.1,1.7l0,0
			v28.9c0,0,0,0.7,0.6,0.7c0.7,0,0.7-0.7,0.7-0.7L67.5,40"/>
	</g>
	<g>
		<path class="st3" d="M33.6,57.5V68c0,0,0,1.7-1.5,1.7c-1.5,0-1.5-1.7-1.5-1.7V57.5h-3.8l4.1-14.1c0,0-0.1-0.1-0.3-0.1
			c-0.3,0-0.4,0.4-0.4,0.4L28,51.2c0,0-0.5,1.6-1.7,1.2c-1.3-0.4-0.8-2-0.8-2l2.2-7.5c0.6-2.3,1.4-3.8,4.4-4.1h3.8
			c3,0.3,3.8,1.9,4.4,4.2l2.2,7.4c0,0,0.5,1.6-0.8,2S40,51.2,40,51.2l-2.3-7.5c0,0-0.1-0.4-0.4-0.4c-0.3,0-0.3,0.1-0.3,0.1l4.1,14.1
			h-3.8V68c0,0,0,1.7-1.5,1.7S34.3,68,34.3,68V57.5L33.6,57.5L33.6,57.5z"/>
		<circle class="st3" cx="34.1" cy="34.9" r="3.1"/>
	</g>
</g>
</svg>
